<svg width="275" height="395" viewBox="0 0 275 395" fill="none" xmlns="http://www.w3.org/2000/svg">
<path d="M-0.450684 395V0.429688H101.715C119.962 0.429688 137.035 2.68799 152.933 7.20459C168.832 11.5405 183.285 17.7734 196.292 25.9033C207.674 32.5879 217.792 40.8081 226.644 50.564C235.677 60.1392 243.536 70.6177 250.221 81.9995C257.989 95.9106 263.951 111.267 268.106 128.069C272.442 144.871 274.61 162.756 274.61 181.726V214.246C274.61 232.493 272.623 249.746 268.648 266.006C264.674 282.266 259.073 297.17 251.847 310.72C244.981 322.825 236.942 334.026 227.728 344.324C218.514 354.441 208.397 362.932 197.376 369.797C184.549 377.927 170.367 384.16 154.83 388.496C139.474 392.832 123.033 395 105.509 395H-0.450684ZM76.2412 62.2168V333.755H105.509C114.903 333.755 123.666 332.581 131.795 330.232C139.925 327.883 147.333 324.451 154.017 319.934C160.882 315.237 167.025 309.275 172.445 302.048C178.045 294.641 182.833 286.06 186.808 276.304C190.06 267.812 192.499 258.418 194.125 248.12C195.931 237.642 196.834 226.35 196.834 214.246V181.184C196.834 169.802 195.931 159.053 194.125 148.936C192.499 138.638 190.06 129.243 186.808 120.752C182.833 110.635 177.594 101.602 171.09 93.6523C164.767 85.7031 157.359 79.1992 148.868 74.1406C142.364 70.3467 135.138 67.4561 127.188 65.4688C119.42 63.3008 110.929 62.2168 101.715 62.2168H76.2412Z" fill="black"/>
</svg>
