<svg width="274" height="394" viewBox="0 0 274 394" fill="none" xmlns="http://www.w3.org/2000/svg">
<path d="M74.2031 249.288V394H-1.94678V-0.570312H133.009C154.508 -0.570312 173.93 2.59131 191.273 8.91455C208.617 15.0571 223.432 23.6387 235.717 34.6592C247.821 45.8604 257.125 59.2295 263.629 74.7666C270.314 90.3037 273.656 107.557 273.656 126.527C273.656 144.232 270.314 160.582 263.629 175.577C257.125 190.572 247.821 203.49 235.717 214.33C223.432 225.35 208.617 233.932 191.273 240.074C173.93 246.217 154.508 249.288 133.009 249.288H74.2031ZM74.2031 187.501H133.009C143.849 187.501 153.244 185.875 161.193 182.623C169.142 179.371 175.827 174.945 181.247 169.344C186.486 163.744 190.37 157.33 192.899 150.104C195.609 142.696 196.964 135.018 196.964 127.069C196.964 117.855 195.609 109.273 192.899 101.324C190.37 93.375 186.486 86.4194 181.247 80.4575C175.827 74.4956 169.142 69.7983 161.193 66.3657C153.244 62.9331 143.849 61.2168 133.009 61.2168H74.2031V187.501Z" fill="black"/>
</svg>
