<svg width="1916" height="36" viewBox="0 0 1916 36" fill="none" xmlns="http://www.w3.org/2000/svg">
<path fill-rule="evenodd" clip-rule="evenodd" d="M1916 0H0V14.2844H106.14L115.291 1.4922L115.31 1.52523L115.333 1.4922L131.268 25.4321H144.162L151.799 14.4495H429.102V14.4452L519.848 14.3907L521.904 11.445L518.591 6.68548H525.233L521.904 11.445L524 14.4495H527.834L536.867 1.4922L536.879 1.508L536.886 1.4922L560.887 35.9178L573.621 17.6724L738.438 17.6178L741.323 21.7511L749.954 9.36542L755.712 17.6178L829.82 17.6724L837.042 7.31309H870.604L883.237 25.4321H888.236L919.418 25.2353L925.57 34.0608L934.797 20.8205L939.482 14.079H1021.02L1024.32 9.35967L1018.84 1.4922H1029.82L1024.32 9.35967L1027.61 14.079H1172.91L1182.06 1.4922L1182.08 1.52523L1182.11 1.4922L1198.04 25.4321H1210.94L1218.57 14.4495H1495.88V14.4151L1536.72 14.3907L1538.78 11.445L1535.47 6.68548H1542.11L1538.78 11.445L1540.88 14.4495H1544.71L1553.74 1.4922L1553.76 1.508L1553.76 1.4922L1577.76 35.9178L1590.5 17.6724L1705.42 17.6178L1708.3 21.7511L1716.94 9.36542L1722.69 17.6178L1796.8 17.6724L1804.02 7.31309H1837.59L1850.22 25.4321H1855.22L1886.4 25.2353L1892.55 34.0608L1901.78 20.8205L1906.46 14.2585H1916V0ZM51.9186 8.92881H46.7334V1.4922H51.9186V8.92881ZM69.2155 8.92881H67.4881V1.4922H69.2155V8.92881ZM81.3122 8.92881H79.5848V1.4922H81.3122V8.92881ZM83.9348 8.92881H82.2044V1.4922H83.9348V8.92881ZM888.129 18.277H886.398V15.7996H888.129V18.277ZM888.129 13.3178H886.398V10.8404H888.129V13.3178ZM901.536 18.277H899.804V10.8404H901.536V18.277ZM908.163 18.277H906.432V15.7996H908.163V18.277ZM1118.69 8.92881H1113.51V1.4922H1118.69V8.92881ZM1135.99 8.92881H1134.26V1.4922H1135.99V8.92881ZM1148.09 8.92881H1146.36V1.4922H1148.09V8.92881ZM1150.71 8.92881H1148.98V1.4922H1150.71V8.92881ZM1855.11 18.277H1853.38V15.7996H1855.11V18.277ZM1855.11 13.3178H1853.38V10.8404H1855.11V13.3178ZM1868.52 18.277H1866.79V10.8404H1868.52V18.277ZM1875.14 18.277H1873.41V15.7996H1875.14V18.277ZM745.419 27.6094L741.323 21.7511L737.239 27.6094H745.419ZM1021 14.1178H1027.64L1027.61 14.079H1021.02L1021 14.1178ZM1712.4 27.6094L1708.3 21.7511L1704.22 27.6094H1712.4Z" fill="black"/>
</svg>
