<svg width="1916" height="35" viewBox="0 0 1916 35" fill="none" xmlns="http://www.w3.org/2000/svg">
<path fill-rule="evenodd" clip-rule="evenodd" d="M0 35.9177H1916V21.6333H1809.86L1800.71 34.4255L1800.69 34.3925L1800.67 34.4255L1784.73 10.4856H1771.84L1764.2 21.4682H1486.9V21.4725L1396.15 21.5271L1394.1 24.4727L1397.41 29.2322H1390.77L1394.1 24.4727L1392 21.4682H1388.17L1379.13 34.4255L1379.12 34.4097L1379.11 34.4255L1355.11 -3.05176e-05L1342.38 18.2454L1177.56 18.2999L1174.68 14.1666L1166.05 26.5523L1160.29 18.2999L1086.18 18.2454L1078.96 28.6046H1045.4L1032.76 10.4856H1027.76L996.582 10.6824L990.43 1.85697L981.203 15.0972L976.518 21.8387H894.976L891.677 26.5581L897.162 34.4255H886.181L891.677 26.5581L888.386 21.8387H743.087L733.936 34.4255L733.917 34.3925L733.894 34.4255L717.959 10.4856H705.065L697.429 21.4682H420.125V21.5027L379.275 21.5271L377.219 24.4727L380.532 29.2322H373.89L377.219 24.4727L375.123 21.4682H371.289L362.256 34.4255L362.244 34.4097L362.237 34.4255L338.236 -3.05176e-05L325.501 18.2454L210.58 18.2999L207.695 14.1666L199.064 26.5523L193.306 18.2999L119.199 18.2454L111.976 28.6046H78.4143L65.7816 10.4856H60.7831L29.6011 10.6824L23.4491 1.85697L14.2213 15.0972L9.53711 21.6592H0V35.9177ZM1864.08 26.9889H1869.27V34.4255H1864.08V26.9889ZM1846.78 26.9889H1848.51V34.4255H1846.78V26.9889ZM1834.69 26.9889H1836.42V34.4255H1834.69V26.9889ZM1832.07 26.9889H1833.8V34.4255H1832.07V26.9889ZM1027.87 17.6407H1029.6V20.1182H1027.87V17.6407ZM1027.87 22.5999H1029.6V25.0773H1027.87V22.5999ZM1014.46 17.6407H1016.2V25.0773H1014.46V17.6407ZM1007.84 17.6407H1009.57V20.1182H1007.84V17.6407ZM797.308 26.9889H802.494V34.4255H797.308V26.9889ZM780.012 26.9889H781.739V34.4255H780.012V26.9889ZM767.915 26.9889H769.641V34.4255H767.915V26.9889ZM765.292 26.9889H767.023V34.4255H765.292V26.9889ZM60.8898 17.6407H62.6202V20.1182H60.8898V17.6407ZM60.8898 22.5999H62.6202V25.0773H60.8898V22.5999ZM47.4829 17.6407H49.2144V25.0773H47.4829V17.6407ZM40.8558 17.6407H42.5872V20.1182H40.8558V17.6407ZM1170.58 8.30835L1174.68 14.1666L1178.76 8.30835H1170.58ZM895.002 21.7999H888.359L888.386 21.8387H894.976L895.002 21.7999ZM203.6 8.30835L207.695 14.1666L211.78 8.30835H203.6Z" fill="black"/>
</svg>
