<svg width="193" height="50" viewBox="0 0 193 50" fill="none" xmlns="http://www.w3.org/2000/svg">
<path d="M46.787 3.19071V2.0816H30.3449V2.12181C27.8917 2.30193 25.5177 3.06811 23.4231 4.3558C21.3285 5.64349 19.5746 7.41495 18.3092 9.52092C17.3732 -0.649565 1.9046 0.0158978 1.9046 10.289C1.88655 14.993 5.93874 18.7944 10.6395 18.4783C8.19732 19.6436 6.10701 21.4325 4.58018 23.6638C3.05335 25.8951 2.14422 28.4896 1.94487 31.1845H1.9046V47.5992C7.76487 47.9403 13.2807 44.9901 16.1248 40.2223V47.5992C24.5652 48.1233 31.9558 41.7584 32.5266 33.4027H32.5668V33.3625C40.9365 32.7996 47.3147 25.4144 46.787 16.988H38.0897C40.6929 15.7382 42.8901 13.7805 44.4286 11.3398C45.9672 8.89909 46.7846 6.0745 46.787 3.19071ZM18.4578 30.6327C19.123 24.6616 24.3458 19.6595 30.3519 19.2533V31.1845H18.3939C18.4092 31.0001 18.43 30.8157 18.4508 30.6327H18.4578ZM30.3449 4.34695V16.2781H18.3939C18.6598 13.2029 20.0043 10.3199 22.1906 8.1373C24.3768 5.95467 27.2645 4.61239 30.3449 4.34695ZM4.1265 10.289C4.26537 2.41849 15.9845 2.41849 16.1248 10.289C15.9831 18.1636 4.26537 18.1636 4.1265 10.289ZM17.2357 19.2062H23.4945C19.3118 21.7266 16.4747 26.3086 16.1637 31.1845H4.17372C4.45578 27.9187 5.95359 24.8771 8.37164 22.6596C10.7897 20.4422 13.9524 19.21 17.2357 19.2062ZM4.1265 45.3367V33.4027H16.0776C15.8115 36.4782 14.467 39.3613 12.2808 41.5444C10.0947 43.7274 7.20704 45.0703 4.1265 45.3367ZM18.3467 45.3367V33.4027H30.2977C30.0319 36.4783 28.6875 39.3616 26.5013 41.5447C24.3151 43.7278 21.4273 45.0706 18.3467 45.3367ZM32.5668 31.1401V19.2062H44.5179C44.2521 22.2816 42.9076 25.1647 40.7214 27.3476C38.5351 29.5304 35.6474 30.873 32.5668 31.1387V31.1401ZM32.5668 16.2324V4.29981H44.5179C44.252 7.37509 42.9075 10.258 40.7212 12.4406C38.535 14.6233 35.6472 15.9656 32.5668 16.231V16.2324Z" fill="#F0F2F5"/>
<path d="M60.7453 38.4219V18.1261H66.6702V25.6897H73.6666V18.1261H79.5915V38.4219H73.6666V30.8582H66.6702V38.4219H60.7453ZM80.8671 38.4219V18.1261H86.6344L91.6768 28.4316L96.6877 18.1261H102.424V38.4219H96.4986V28.274L93.2526 34.9552H90.0695L86.792 28.274V38.4219H80.8671ZM103.697 38.4219V18.1261H109.622V38.4219H103.697ZM110.893 38.4219V18.1261H126.146V22.5382H116.818V26.0364H124.949V30.5116H116.818V38.4219H110.893ZM140.336 38.737C137.542 38.737 135.325 38.0647 133.686 36.7201C132.069 35.3544 131.26 33.3794 131.26 30.7952V18.1261H135.514V30.48C135.514 32.0348 135.934 33.2009 136.775 33.9782C137.615 34.7346 138.802 35.1128 140.336 35.1128C141.87 35.1128 143.046 34.7346 143.866 33.9782C144.706 33.2009 145.126 32.0348 145.126 30.48V18.1261H149.381V30.7952C149.381 33.3794 148.572 35.3544 146.954 36.7201C145.337 38.0647 143.13 38.737 140.336 38.737ZM151.231 38.4219V18.1261H155.517L161.474 30.3225L167.43 18.1261H171.685V38.4219H167.43V25.217L162.703 34.9237H160.245L155.486 25.217V38.4219H151.231ZM173.692 38.4219V18.1261H177.379L186.991 31.6461V18.1261H191.246V38.4219H187.559L177.947 24.9018V38.4219H173.692Z" fill="#F0F2F5"/>
</svg>
