<svg width="650" height="1079" viewBox="0 0 650 1079" fill="none" xmlns="http://www.w3.org/2000/svg">
<g clip-path="url(#clip0_891_2022)">
<path d="M105.699 105.185C79.044 104.361 53.653 93.4119 34.7386 74.4975C15.8241 55.583 4.87539 30.192 4.05144 3.53682H105.699V105.185Z" stroke="#005696" stroke-width="6.49136"/>
<path d="M4.05144 213.424C4.87539 186.769 15.8241 161.378 34.7386 142.463C53.653 123.549 79.044 112.6 105.699 111.776V213.424H4.05144Z" stroke="#E46225" stroke-width="6.49136"/>
<path d="M4.00124 219.965C30.6564 220.789 56.0475 231.738 74.9619 250.653C93.8763 269.567 104.825 294.958 105.649 321.613H4.00124V219.965Z" stroke="#BF1E2D" stroke-width="6.49136"/>
<path d="M4.00124 328.155C30.6564 328.979 56.0475 339.927 74.9619 358.842C93.8763 377.756 104.825 403.147 105.649 429.803H4.00124V328.155Z" stroke="#BF1E2D" stroke-width="6.49136"/>
<path d="M105.649 436.294C104.825 462.949 93.8763 488.34 74.9619 507.254C56.0475 526.169 30.6564 537.118 4.00124 537.942L4.00124 436.294H105.649Z" stroke="#BF1E2D" stroke-width="6.49136"/>
<path d="M4.05144 646.181C4.87539 619.526 15.8241 594.135 34.7386 575.22C53.653 556.306 79.044 545.357 105.699 544.533V646.181H4.05144Z" stroke="#E46225" stroke-width="6.49136"/>
<path d="M105.649 652.672C104.825 679.328 93.8764 704.719 74.9619 723.633C56.0475 742.547 30.6565 753.496 4.00129 754.32L4.00129 652.672H105.649Z" stroke="#005696" stroke-width="6.49136"/>
<path d="M105.699 862.509C79.044 861.685 53.653 850.737 34.7386 831.822C15.8241 812.908 4.87539 787.517 4.05144 760.862H105.699V862.509Z" stroke="#BF1E2D" stroke-width="6.49136"/>
<path d="M105.699 970.699C79.044 969.875 53.653 958.926 34.7386 940.012C15.8241 921.097 4.87539 895.706 4.05144 869.051H105.699V970.699Z" stroke="#005696" stroke-width="6.49136"/>
<path d="M4.00124 977.29C30.6564 978.114 56.0475 989.063 74.9619 1007.98C93.8763 1026.89 104.825 1052.28 105.649 1078.94H4.00124V977.29Z" stroke="#BF1E2D" stroke-width="6.49136"/>
<path d="M213.888 105.185C187.233 104.361 161.842 93.4119 142.928 74.4975C124.013 55.583 113.065 30.192 112.241 3.53682H213.888V105.185Z" stroke="#005696" stroke-width="6.49136"/>
<path d="M112.19 111.776C138.846 112.6 164.237 123.549 183.151 142.463C202.066 161.378 213.014 186.769 213.838 213.424H112.19V111.776Z" stroke="#E46225" stroke-width="6.49136"/>
<path d="M213.838 219.915C213.014 246.571 202.066 271.962 183.151 290.876C164.237 309.79 138.846 320.739 112.19 321.563L112.19 219.915H213.838Z" stroke="#149ED8" stroke-width="6.49136"/>
<path d="M112.241 429.803C113.065 403.147 124.013 377.756 142.928 358.842C161.842 339.927 187.233 328.979 213.888 328.155V429.803H112.241Z" stroke="#149ED8" stroke-width="6.49136"/>
<path d="M163.039 436.294C191.123 436.294 213.888 459.06 213.888 487.143C213.888 515.226 191.123 537.992 163.039 537.992C134.956 537.992 112.191 515.226 112.191 487.143C112.191 459.06 134.956 436.294 163.039 436.294Z" stroke="#005696" stroke-width="6.49136"/>
<path d="M213.888 646.131C187.233 645.307 161.842 634.358 142.928 615.444C124.013 596.529 113.065 571.138 112.241 544.483H213.888V646.131Z" stroke="#E46225" stroke-width="6.49136"/>
<path d="M112.241 754.37C113.065 727.715 124.013 702.324 142.928 683.41C161.842 664.495 187.233 653.546 213.888 652.723V754.37H112.241Z" stroke="#E46225" stroke-width="6.49136"/>
<path d="M112.19 760.912C138.846 761.736 164.237 772.684 183.151 791.599C202.066 810.513 213.014 835.904 213.838 862.56H112.19L112.19 760.912Z" stroke="#005696" stroke-width="6.49136"/>
<path d="M112.19 869.101C138.846 869.925 164.237 880.874 183.151 899.788C202.066 918.703 213.014 944.094 213.838 970.749H112.19V869.101Z" stroke="#BF1E2D" stroke-width="6.49136"/>
<path d="M213.888 1078.89C187.233 1078.06 161.842 1067.12 142.928 1048.2C124.013 1029.29 113.065 1003.9 112.241 977.24H213.888V1078.89Z" stroke="#BF1E2D" stroke-width="6.49136"/>
<path d="M220.38 3.58697C247.035 4.41093 272.426 15.3597 291.341 34.2741C310.255 53.1885 321.204 78.5796 322.028 105.235L220.38 105.235V3.58697Z" stroke="#005696" stroke-width="6.49136"/>
<path d="M220.38 111.776C247.035 112.6 272.426 123.549 291.341 142.463C310.255 161.378 321.204 186.769 322.028 213.424H220.38V111.776Z" stroke="#149ED8" stroke-width="6.49136"/>
<path d="M220.38 219.966C247.035 220.789 272.426 231.738 291.341 250.653C310.255 269.567 321.204 294.958 322.028 321.613H220.38V219.966Z" stroke="#149ED8" stroke-width="6.49136"/>
<path d="M322.078 429.752C295.422 428.928 270.031 417.98 251.117 399.065C232.203 380.151 221.254 354.76 220.43 328.105H322.078V429.752Z" stroke="#E46225" stroke-width="6.49136"/>
<path d="M271.229 537.992C243.146 537.992 220.38 515.226 220.38 487.143C220.38 459.06 243.146 436.294 271.229 436.294C299.312 436.294 322.078 459.06 322.078 487.143C322.078 515.226 299.312 537.992 271.229 537.992Z" stroke="#BF1E2D" stroke-width="6.49136"/>
<path d="M220.43 646.181C221.254 619.526 232.203 594.135 251.117 575.22C270.031 556.306 295.422 545.357 322.078 544.533V646.181H220.43Z" stroke="#BF1E2D" stroke-width="6.49136"/>
<path d="M220.43 754.37C221.254 727.715 232.203 702.324 251.117 683.41C270.031 664.495 295.422 653.546 322.078 652.723V754.37H220.43Z" stroke="#BF1E2D" stroke-width="6.49136"/>
<path d="M322.028 760.862C321.204 787.517 310.255 812.908 291.341 831.822C272.426 850.737 247.035 861.685 220.38 862.509V760.862H322.028Z" stroke="#005696" stroke-width="6.49136"/>
<path d="M322.027 869.051C321.204 895.706 310.255 921.097 291.34 940.012C272.426 958.926 247.035 969.875 220.38 970.699V869.051H322.027Z" stroke="#E46225" stroke-width="6.49136"/>
<path d="M322.028 977.24C321.204 1003.9 310.255 1029.29 291.341 1048.2C272.426 1067.12 247.035 1078.06 220.38 1078.89V977.24H322.028Z" stroke="#BF1E2D" stroke-width="6.49136"/>
<path d="M328.619 105.235C329.443 78.5796 340.392 53.1885 359.306 34.2741C378.221 15.3597 403.612 4.41092 430.267 3.58696V105.235H328.619Z" stroke="#E46225" stroke-width="6.49136"/>
<path d="M328.619 213.424C329.443 186.769 340.392 161.378 359.306 142.463C378.221 123.549 403.612 112.6 430.267 111.776V213.424H328.619Z" stroke="#BF1E2D" stroke-width="6.49136"/>
<path d="M328.569 219.965C355.224 220.789 380.615 231.738 399.53 250.653C418.444 269.567 429.393 294.958 430.217 321.613H328.569V219.965Z" stroke="#149ED8" stroke-width="6.49136"/>
<path d="M328.569 328.155C355.224 328.979 380.615 339.927 399.53 358.842C418.444 377.756 429.393 403.147 430.217 429.803H328.569V328.155Z" stroke="#005696" stroke-width="6.49136"/>
<path d="M430.267 537.942C403.612 537.118 378.221 526.169 359.306 507.254C340.392 488.34 329.443 462.949 328.619 436.294H430.267V537.942Z" stroke="#149ED8" stroke-width="6.49136"/>
<path d="M328.569 544.533C355.224 545.357 380.615 556.306 399.53 575.22C418.444 594.135 429.393 619.526 430.217 646.181H328.569V544.533Z" stroke="#149ED8" stroke-width="6.49136"/>
<path d="M430.217 652.672C429.393 679.328 418.444 704.719 399.53 723.633C380.615 742.547 355.224 753.496 328.569 754.32V652.672H430.217Z" stroke="#005696" stroke-width="6.49136"/>
<path d="M430.217 760.862C429.393 787.517 418.444 812.908 399.53 831.822C380.615 850.737 355.224 861.686 328.569 862.509V760.862H430.217Z" stroke="#149ED8" stroke-width="6.49136"/>
<path d="M430.217 869.051C429.393 895.706 418.444 921.097 399.53 940.012C380.615 958.926 355.224 969.875 328.569 970.699V869.051H430.217Z" stroke="#BF1E2D" stroke-width="6.49136"/>
<path d="M430.267 1078.89C403.612 1078.06 378.221 1067.12 359.306 1048.2C340.392 1029.29 329.443 1003.9 328.619 977.24H430.267V1078.89Z" stroke="#E46225" stroke-width="6.49136"/>
<path d="M436.808 105.235C437.632 78.5796 448.581 53.1885 467.496 34.2741C486.41 15.3597 511.801 4.41092 538.456 3.58696V105.235H436.808Z" stroke="#E46225" stroke-width="6.49136"/>
<path d="M436.809 213.424C437.632 186.769 448.581 161.378 467.496 142.463C486.41 123.549 511.801 112.6 538.456 111.776V213.424H436.809Z" stroke="#BF1E2D" stroke-width="6.49136"/>
<path d="M436.809 321.613C437.632 294.958 448.581 269.567 467.496 250.653C486.41 231.738 511.801 220.789 538.456 219.965V321.613H436.809Z" stroke="#BF1E2D" stroke-width="6.49136"/>
<path d="M436.809 429.803C437.632 403.147 448.581 377.756 467.496 358.842C486.41 339.927 511.801 328.979 538.456 328.155V429.803H436.809Z" stroke="#149ED8" stroke-width="6.49136"/>
<path d="M436.758 436.344C463.413 437.168 488.805 448.117 507.719 467.031C526.633 485.946 537.582 511.337 538.406 537.992H436.758V436.344Z" stroke="#E46225" stroke-width="6.49136"/>
<path d="M538.456 646.131C511.801 645.307 486.41 634.358 467.496 615.444C448.581 596.529 437.632 571.138 436.809 544.483H538.456V646.131Z" stroke="#149ED8" stroke-width="6.49136"/>
<path d="M436.758 703.521C436.758 675.438 459.524 652.672 487.607 652.672C515.69 652.672 538.456 675.438 538.456 703.521C538.456 731.604 515.69 754.37 487.607 754.37C459.524 754.37 436.758 731.604 436.758 703.521Z" stroke="#E46225" stroke-width="6.49136"/>
<path d="M436.809 862.56C437.632 835.904 448.581 810.513 467.496 791.599C486.41 772.684 511.801 761.736 538.456 760.912V862.56H436.809Z" stroke="#BF1E2D" stroke-width="6.49136"/>
<path d="M436.809 970.749C437.632 944.094 448.581 918.703 467.496 899.788C486.41 880.874 511.801 869.925 538.456 869.101V970.749H436.809Z" stroke="#BF1E2D" stroke-width="6.49136"/>
<path d="M538.456 1078.89C511.801 1078.06 486.41 1067.12 467.496 1048.2C448.581 1029.29 437.632 1003.9 436.809 977.24H538.456V1078.89Z" stroke="#E46225" stroke-width="6.49136"/>
<path d="M646.645 54.3858C646.645 82.4689 623.88 105.235 595.797 105.235C567.713 105.235 544.948 82.4689 544.948 54.3858C544.948 26.3027 567.713 3.53682 595.797 3.53682C623.88 3.53682 646.645 26.3027 646.645 54.3858Z" stroke="#BF1E2D" stroke-width="6.49136"/>
<path d="M595.797 111.726C623.88 111.726 646.645 134.492 646.645 162.575C646.645 190.658 623.88 213.424 595.797 213.424C567.713 213.424 544.948 190.658 544.948 162.575C544.948 134.492 567.713 111.726 595.797 111.726Z" stroke="#BF1E2D" stroke-width="6.49136"/>
<path d="M544.948 219.965C571.603 220.789 596.994 231.738 615.908 250.653C634.823 269.567 645.771 294.958 646.595 321.613H544.948V219.965Z" stroke="#E46225" stroke-width="6.49136"/>
<path d="M544.998 429.803C545.822 403.147 556.77 377.756 575.685 358.842C594.599 339.927 619.99 328.979 646.645 328.155V429.803H544.998Z" stroke="#BF1E2D" stroke-width="6.49136"/>
<path d="M544.948 436.344C571.603 437.168 596.994 448.117 615.908 467.031C634.823 485.946 645.771 511.337 646.595 537.992H544.948V436.344Z" stroke="#E46225" stroke-width="6.49136"/>
<path d="M544.948 544.533C571.603 545.357 596.994 556.306 615.908 575.22C634.823 594.135 645.771 619.526 646.595 646.181H544.948V544.533Z" stroke="#005696" stroke-width="6.49136"/>
<path d="M544.948 703.521C544.948 675.438 567.713 652.672 595.796 652.672C623.88 652.672 646.645 675.438 646.645 703.521C646.645 731.604 623.88 754.37 595.796 754.37C567.713 754.37 544.948 731.604 544.948 703.521Z" stroke="#149ED8" stroke-width="6.49136"/>
<path d="M544.948 760.912C571.603 761.736 596.994 772.685 615.908 791.599C634.823 810.513 645.771 835.904 646.595 862.56H544.948V760.912Z" stroke="#149ED8" stroke-width="6.49136"/>
<path d="M646.645 970.699C619.99 969.875 594.599 958.926 575.685 940.012C556.77 921.097 545.822 895.706 544.998 869.051H646.645V970.699Z" stroke="#149ED8" stroke-width="6.49136"/>
<path d="M544.948 977.29C571.603 978.114 596.994 989.063 615.908 1007.98C634.823 1026.89 645.771 1052.28 646.595 1078.94H544.948V977.29Z" stroke="#149ED8" stroke-width="6.49136"/>
<path d="M754.835 105.185C728.18 104.361 702.788 93.4119 683.874 74.4975C664.96 55.583 654.011 30.192 653.187 3.53682H754.835V105.185Z" stroke="#E46225" stroke-width="6.49136"/>
<path d="M703.986 111.726C732.069 111.726 754.835 134.492 754.835 162.575C754.835 190.658 732.069 213.424 703.986 213.424C675.903 213.424 653.137 190.658 653.137 162.575C653.137 134.492 675.903 111.726 703.986 111.726Z" stroke="#BF1E2D" stroke-width="6.49136"/>
<path d="M703.986 321.613C675.903 321.613 653.137 298.847 653.137 270.764C653.137 242.681 675.903 219.915 703.986 219.915C732.069 219.915 754.835 242.681 754.835 270.764C754.835 298.847 732.069 321.613 703.986 321.613Z" stroke="#BF1E2D" stroke-width="6.49136"/>
<path d="M653.137 328.155C679.792 328.979 705.183 339.927 724.098 358.842C743.012 377.756 753.961 403.147 754.785 429.803H653.137V328.155Z" stroke="#005696" stroke-width="6.49136"/>
<path d="M754.835 537.942C728.18 537.118 702.788 526.169 683.874 507.255C664.96 488.34 654.011 462.949 653.187 436.294H754.835V537.942Z" stroke="#E46225" stroke-width="6.49136"/>
<path d="M754.835 646.131C728.18 645.307 702.788 634.358 683.874 615.444C664.96 596.529 654.011 571.138 653.187 544.483H754.835V646.131Z" stroke="#BF1E2D" stroke-width="6.49136"/>
<path d="M754.785 652.672C753.961 679.328 743.012 704.719 724.098 723.633C705.183 742.547 679.792 753.496 653.137 754.32V652.672H754.785Z" stroke="#005696" stroke-width="6.49136"/>
<path d="M754.835 811.711C754.835 839.794 732.069 862.56 703.986 862.56C675.903 862.56 653.137 839.794 653.137 811.711C653.137 783.627 675.903 760.862 703.986 760.862C732.069 760.862 754.835 783.627 754.835 811.711Z" stroke="#149ED8" stroke-width="6.49136"/>
<path d="M754.785 869.051C753.961 895.706 743.012 921.097 724.098 940.012C705.183 958.926 679.792 969.875 653.137 970.699V869.051H754.785Z" stroke="#BF1E2D" stroke-width="6.49136"/>
<path d="M653.137 1028.09C653.137 1000.01 675.903 977.24 703.986 977.24C732.069 977.24 754.835 1000.01 754.835 1028.09C754.835 1056.17 732.069 1078.94 703.986 1078.94C675.903 1078.94 653.137 1056.17 653.137 1028.09Z" stroke="#149ED8" stroke-width="6.49136"/>
</g>
<defs>
<clipPath id="clip0_891_2022">
<rect width="655.237" height="1119.71" fill="white" transform="translate(0.755615 0.291138)"/>
</clipPath>
</defs>
</svg>
