<svg width="430" height="199" viewBox="0 0 430 199" fill="none" xmlns="http://www.w3.org/2000/svg">
<g clip-path="url(#clip0_894_2731)">
<path d="M51.9817 65.9502C35.2227 65.4321 19.2584 58.5483 7.36626 46.6561C-4.5259 34.7639 -11.4098 18.7997 -11.9278 2.04067H51.9817V65.9502Z" stroke="#005696" stroke-width="4.08134"/>
<path d="M-11.9278 134.004C-11.4098 117.245 -4.52589 101.281 7.36627 89.3886C19.2584 77.4965 35.2227 70.6126 51.9817 70.0946V134.004H-11.9278Z" stroke="#E46225" stroke-width="4.08134"/>
<path d="M-11.9592 138.117C4.79979 138.635 20.764 145.519 32.6562 157.411C44.5484 169.303 51.4322 185.267 51.9503 202.026H-11.9592V138.117Z" stroke="#BF1E2D" stroke-width="4.08134"/>
<path d="M120.004 65.9502C103.245 65.4321 87.2809 58.5483 75.3887 46.6561C63.4966 34.764 56.6127 18.7997 56.0947 2.04067H120.004V65.9502Z" stroke="#005696" stroke-width="4.08134"/>
<path d="M56.063 70.0946C72.822 70.6126 88.7863 77.4965 100.678 89.3886C112.571 101.281 119.454 117.245 119.972 134.004H56.063V70.0946Z" stroke="#E46225" stroke-width="4.08134"/>
<path d="M119.972 138.085C119.454 154.844 112.571 170.809 100.678 182.701C88.7863 194.593 72.822 201.477 56.063 201.995L56.063 138.085H119.972Z" stroke="#149ED8" stroke-width="4.08134"/>
<path d="M124.085 2.0722C140.844 2.59025 156.809 9.4741 168.701 21.3663C180.593 33.2584 187.477 49.2227 187.995 65.9817L124.085 65.9817L124.085 2.0722Z" stroke="#005696" stroke-width="4.08134"/>
<path d="M124.085 70.0946C140.844 70.6126 156.809 77.4965 168.701 89.3886C180.593 101.281 187.477 117.245 187.995 134.004H124.085V70.0946Z" stroke="#149ED8" stroke-width="4.08134"/>
<path d="M124.085 138.117C140.844 138.635 156.809 145.519 168.701 157.411C180.593 169.303 187.477 185.267 187.995 202.026H124.085V138.117Z" stroke="#149ED8" stroke-width="4.08134"/>
<path d="M192.139 65.9817C192.657 49.2227 199.541 33.2584 211.433 21.3663C223.325 9.4741 239.29 2.59025 256.049 2.0722V65.9817H192.139Z" stroke="#E46225" stroke-width="4.08134"/>
<path d="M192.139 134.004C192.657 117.245 199.541 101.281 211.433 89.3886C223.326 77.4965 239.29 70.6126 256.049 70.0946V134.004H192.139Z" stroke="#BF1E2D" stroke-width="4.08134"/>
<path d="M192.108 138.117C208.867 138.635 224.831 145.519 236.723 157.411C248.615 169.303 255.499 185.267 256.017 202.026H192.108V138.117Z" stroke="#149ED8" stroke-width="4.08134"/>
<path d="M260.162 65.9817C260.68 49.2227 267.564 33.2584 279.456 21.3663C291.348 9.4741 307.312 2.59025 324.071 2.0722V65.9817H260.162Z" stroke="#E46225" stroke-width="4.08134"/>
<path d="M260.162 134.004C260.68 117.245 267.563 101.281 279.456 89.3886C291.348 77.4965 307.312 70.6126 324.071 70.0946V134.004H260.162Z" stroke="#BF1E2D" stroke-width="4.08134"/>
<path d="M260.162 202.026C260.68 185.267 267.563 169.303 279.456 157.411C291.348 145.519 307.312 138.635 324.071 138.117V202.026H260.162Z" stroke="#BF1E2D" stroke-width="4.08134"/>
<path d="M392.094 34.0112C392.094 51.668 377.78 65.9817 360.123 65.9817C342.466 65.9817 328.152 51.668 328.152 34.0112C328.152 16.3544 342.466 2.04067 360.123 2.04067C377.78 2.04067 392.094 16.3544 392.094 34.0112Z" stroke="#BF1E2D" stroke-width="4.08134"/>
<path d="M360.123 70.063C377.78 70.063 392.094 84.3767 392.094 102.034C392.094 119.69 377.78 134.004 360.123 134.004C342.466 134.004 328.152 119.69 328.152 102.034C328.152 84.3767 342.466 70.063 360.123 70.063Z" stroke="#BF1E2D" stroke-width="4.08134"/>
<path d="M328.153 138.117C344.912 138.635 360.876 145.519 372.768 157.411C384.66 169.303 391.544 185.267 392.062 202.026H328.153V138.117Z" stroke="#E46225" stroke-width="4.08134"/>
<path d="M460.116 65.9502C443.357 65.4321 427.393 58.5483 415.501 46.6561C403.608 34.764 396.725 18.7997 396.206 2.04067H460.116V65.9502Z" stroke="#E46225" stroke-width="4.08134"/>
<path d="M428.145 70.063C445.802 70.063 460.116 84.3767 460.116 102.034C460.116 119.69 445.802 134.004 428.145 134.004C410.489 134.004 396.175 119.69 396.175 102.034C396.175 84.3767 410.489 70.063 428.145 70.063Z" stroke="#BF1E2D" stroke-width="4.08134"/>
<path d="M428.145 202.026C410.488 202.026 396.175 187.713 396.175 170.056C396.175 152.399 410.488 138.085 428.145 138.085C445.802 138.085 460.116 152.399 460.116 170.056C460.116 187.713 445.802 202.026 428.145 202.026Z" stroke="#BF1E2D" stroke-width="4.08134"/>
</g>
<defs>
<clipPath id="clip0_894_2731">
<rect width="454" height="199" fill="white" transform="translate(-14)"/>
</clipPath>
</defs>
</svg>
