<svg width="180" height="180" viewBox="0 0 180 180" fill="none" xmlns="http://www.w3.org/2000/svg">
<path d="M178.447 73.2758C170.62 31.6119 133.938 0 90 0C46.0616 0 9.38034 31.6119 1.55288 73.2758C0.522953 78.6579 0 84.2299 0 89.9128C0 92.7621 0.126761 95.5957 0.396127 98.3817C4.69014 144.003 43.2253 179.826 90 179.826C136.775 179.826 175.31 144.003 179.604 98.3817C179.873 95.5957 180 92.7621 180 89.9128C180 84.2299 179.477 78.6579 178.447 73.2758ZM155.963 80.969C148.991 82.8527 141.639 84.4041 134.002 85.6546C132.734 85.8604 131.593 84.8948 131.546 83.6126C130.928 65.4717 127.6 47.6316 121.706 33.6223C120.914 31.7386 122.989 29.9656 124.748 30.9946C141.798 41.0781 154.125 58.3325 157.5 78.5787C157.674 79.6393 157.009 80.6841 155.963 80.9532V80.969ZM90 150.256C86.4982 150.256 77.9419 138.193 74.0757 114.94C73.8538 113.626 74.9155 112.454 76.2623 112.502C80.8098 112.708 85.389 112.803 90 112.803C94.6109 112.803 99.1902 112.708 103.738 112.502C105.069 112.438 106.146 113.61 105.924 114.94C102.058 138.193 93.5017 150.256 90 150.256ZM90 89.058C84.6602 89.058 79.3679 88.9155 74.1707 88.6306C73.0299 88.5673 72.1268 87.6017 72.1585 86.4619C72.8874 49.1196 85.5316 29.5857 90 29.5857C94.4683 29.5857 107.113 49.1196 107.842 86.4619C107.857 87.6017 106.97 88.5831 105.829 88.6306C100.632 88.8997 95.3397 89.058 90 89.058ZM58.3098 33.6223C52.3996 47.6316 49.0722 65.4717 48.4701 83.6126C48.4226 84.8948 47.2817 85.8446 46.0141 85.6546C38.3768 84.4199 31.0246 82.8527 24.0528 80.969C23.007 80.6841 22.3416 79.6551 22.5159 78.5945C25.8909 58.3483 38.2183 41.1098 55.2676 31.0104C57.0264 29.9657 59.1021 31.7544 58.3098 33.6382V33.6223ZM26.699 106.059C33.5282 107.61 40.5951 108.893 47.868 109.906C48.8187 110.032 49.5476 110.792 49.6743 111.742C51.2113 124.311 54.0951 136.215 58.2941 146.203C59.0863 148.071 57.0105 149.86 55.2517 148.831C40.3415 140.014 29.044 125.72 24.1796 108.734C23.7359 107.183 25.1145 105.727 26.699 106.091V106.059ZM121.706 146.187C125.905 136.215 128.789 124.295 130.326 111.726C130.437 110.776 131.181 110.032 132.132 109.89C139.405 108.877 146.488 107.595 153.301 106.043C154.886 105.679 156.264 107.136 155.82 108.687C150.956 125.672 139.658 139.966 124.748 148.784C123.005 149.812 120.93 148.024 121.706 146.156V146.187Z" fill="white"/>
</svg>
