<svg width="201" height="201" viewBox="0 0 201 201" fill="none" xmlns="http://www.w3.org/2000/svg">
<path d="M150.475 108.55L144.809 108.575L128.216 125.315L144.132 125.245L158.955 141.847L42.2898 142.36L57.0497 125.628L74.1329 125.553L57.393 108.96L50.4764 108.99L25.5867 134.1L25.7333 167.433C25.7528 171.853 27.5274 176.085 30.6667 179.197C33.806 182.308 38.053 184.046 42.4732 184.026L159.139 183.513C163.559 183.493 167.79 181.719 170.902 178.579C174.014 175.44 175.751 171.193 175.732 166.773L175.585 133.44L150.475 108.55ZM141.957 66.5044L100.889 107.935L71.1761 78.5659L112.327 37.1346L141.957 66.5044ZM106.416 19.4938L53.5672 72.81C52.7981 73.5844 52.1892 74.5028 51.7755 75.5127C51.3618 76.5227 51.1513 77.6043 51.1561 78.6957C51.1609 79.787 51.3809 80.8668 51.8035 81.873C52.2261 82.8793 52.843 83.7923 53.6189 84.5599L95.0493 125.461C98.3143 128.863 103.564 128.84 106.799 125.409L159.566 72.3436C160.335 71.5692 160.944 70.6508 161.358 69.6409C161.772 68.6309 161.982 67.5493 161.977 66.4579C161.973 65.3665 161.753 64.2868 161.33 63.2806C160.907 62.2743 160.29 61.3613 159.514 60.5937L118.083 19.5258C117.328 18.7425 116.423 18.1188 115.422 17.6919C114.421 17.265 113.345 17.0434 112.257 17.0405C111.169 17.0375 110.091 17.2531 109.088 17.6745C108.084 18.096 107.176 18.7146 106.416 19.4938Z" fill="#F0F2F5"/>
</svg>
