<svg width="582" height="689" viewBox="0 0 582 689" fill="none" xmlns="http://www.w3.org/2000/svg">
<g style="mix-blend-mode:color-dodge" opacity="0.5">
<path d="M10.2227 537.918L0.609268 521.259V482.624L31.0628 465.043L214.87 571.17L228.862 563.087V544.535L218.311 526.28L10.2227 406.128L0.609268 389.486V219.078L31.0628 201.497L292.765 352.58L302.379 369.238V407.873L271.925 425.454L88.1178 319.328L74.1256 327.41V348.102L82.8173 363.148L292.765 484.369L302.379 501.011V671.419L271.925 689L10.2227 537.918Z" fill="#D9D9D9"/>
<path d="M540.104 498.976L541.116 498.392L541.7 497.381L550.852 481.528L551.436 480.517V479.348V459.183V456.664L549.254 455.406L535.262 447.34L533.083 446.084L530.905 447.341L349.293 552.193L323.2 537.129V370.406L331.645 355.771L590.156 206.531L616.25 221.595V256.544L607.805 271.163L399.23 391.587L398.219 392.171L397.635 393.182L388.581 408.853L387.997 409.865V411.034V431.314V433.833L390.179 435.091L404.171 443.157L406.35 444.413L408.528 443.156L590.156 338.305L616.25 353.368V520.091L607.804 534.726L349.293 683.966L323.2 668.902V633.953L331.645 619.334L540.104 498.976Z" stroke="#F0F2F5" stroke-width="8.71959"/>
<path d="M328.954 81.4385L327.943 80.8544H326.774H294.428H293.26L292.248 81.4384L167.702 153.342L165.522 154.6V157.117V173.282V175.8L167.701 177.058L349.312 281.909V312.037L319.054 329.519H302.164L48.4271 183.013V147.387L295.135 4.94622H326.084L577.565 150.136V180.264L547.291 197.746H530.401L328.954 81.4385Z" stroke="#F0F2F5" stroke-width="8.71959"/>
</g>
</svg>
