<svg width="563" height="189" viewBox="0 0 563 189" fill="none" xmlns="http://www.w3.org/2000/svg">
<path d="M213.852 42.2246C213.852 43.6042 213.348 44.798 212.339 45.8062L189.417 68.728C188.409 69.7362 187.215 70.2402 185.836 70.2402C184.297 70.2402 183.024 69.6566 182.016 68.4893L142.062 108.443H147.633C149.012 108.443 150.206 108.947 151.214 109.956C152.222 110.964 152.727 112.158 152.727 113.537V123.725C152.727 125.847 152.329 127.837 151.533 129.694C150.737 131.551 149.649 133.169 148.27 134.549C146.89 135.928 145.272 137.016 143.415 137.812C141.557 138.608 139.568 139.006 137.445 139.006C136.066 139.006 134.872 139.51 133.864 140.518C132.856 141.526 132.352 142.72 132.352 144.1C132.352 149.034 131.423 153.65 129.566 157.948C127.709 162.246 125.162 166.04 121.925 169.33C118.689 172.619 114.921 175.166 110.624 176.97C106.326 178.774 101.683 179.703 96.6953 179.756C90.3812 179.756 84.4385 178.562 78.8672 176.174C73.2959 173.787 68.4409 170.497 64.3022 166.305C60.1636 162.113 56.9004 157.258 54.5127 151.74C52.125 146.222 50.9046 140.279 50.8516 133.912C50.8516 128.978 51.7801 124.361 53.6372 120.063C55.4943 115.766 58.0412 111.972 61.2778 108.682C64.5145 105.392 68.2817 102.846 72.5796 101.042C76.8774 99.2375 81.5202 98.3089 86.5078 98.2559C87.8874 98.2559 89.0812 97.7518 90.0894 96.7437C91.0975 95.7355 91.6016 94.5417 91.6016 93.1621C91.6016 90.3499 92.1322 87.7235 93.1934 85.2827C94.2546 82.842 95.7137 80.6665 97.5708 78.7563C99.4279 76.8462 101.577 75.387 104.018 74.3789C106.458 73.3708 109.111 72.8402 111.977 72.7871C115.479 72.7871 118.662 73.583 121.527 75.1748C124.393 76.7666 126.833 78.9951 128.85 81.8604L162.118 48.5918C160.951 47.5837 160.367 46.3102 160.367 44.7715C160.367 43.3919 160.871 42.1981 161.879 41.1899L184.801 18.2681C185.809 17.2599 187.003 16.7559 188.383 16.7559C189.762 16.7559 190.956 17.2599 191.964 18.2681L212.339 38.6431C213.348 39.6512 213.852 40.8451 213.852 42.2246ZM142.539 118.631H129.805C128.425 118.631 127.231 118.127 126.223 117.119L113.489 104.384C112.481 103.376 111.977 102.182 111.977 100.803C111.977 99.4232 112.481 98.2293 113.489 97.2212L121.368 89.3418C120.625 87.4316 119.405 85.8929 117.707 84.7256C116.009 83.5583 114.099 82.9746 111.977 82.9746C110.544 82.9746 109.217 83.2399 107.997 83.7705C106.777 84.3011 105.715 85.0174 104.813 85.9194C103.911 86.8215 103.169 87.9092 102.585 89.1826C102.001 90.4561 101.736 91.7826 101.789 93.1621C101.789 95.2845 101.391 97.2743 100.595 99.1313C99.7993 100.988 98.7116 102.607 97.332 103.986C95.9525 105.366 94.3341 106.454 92.4771 107.25C90.62 108.045 88.6302 108.443 86.5078 108.443C83.0059 108.443 79.7161 109.107 76.6387 110.433C73.5612 111.76 70.8551 113.59 68.5205 115.925C66.1859 118.259 64.3553 120.965 63.0288 124.043C61.7023 127.12 61.0391 130.41 61.0391 133.912C61.0391 138.847 61.9676 143.463 63.8247 147.761C65.6818 152.059 68.2287 155.826 71.4653 159.062C74.702 162.299 78.4692 164.846 82.7671 166.703C87.0649 168.56 91.7077 169.515 96.6953 169.568C100.197 169.568 103.487 168.905 106.564 167.579C109.642 166.252 112.321 164.448 114.603 162.167C116.885 159.885 118.715 157.179 120.095 154.048C121.474 150.918 122.164 147.602 122.164 144.1C122.164 141.977 122.562 139.987 123.358 138.13C124.154 136.273 125.242 134.655 126.621 133.275C128.001 131.896 129.619 130.808 131.476 130.012C133.333 129.216 135.323 128.818 137.445 128.818C138.825 128.818 140.019 128.314 141.027 127.306C142.035 126.298 142.539 125.104 142.539 123.725V118.631ZM129.805 106.374L174.853 61.3262L169.281 55.7549L124.233 100.803L129.805 106.374ZM185.836 57.9834L201.595 42.2246L188.383 29.0127L172.624 44.7715L185.836 57.9834ZM79.106 133.673L86.269 126.51L104.097 144.338L96.9341 151.501L79.106 133.673ZM94.3872 118.392L101.55 111.229L119.378 129.057L112.215 136.22L94.3872 118.392Z" fill="#F0F2F5"/>
<path fill-rule="evenodd" clip-rule="evenodd" d="M0.000225554 170.854C16.5052 171.814 32.2823 165.819 43.6412 155.206C42.6328 152.033 41.901 148.777 41.4402 145.445C40.6454 146.367 39.8144 147.261 38.9481 148.126C30.7422 156.32 19.9033 161.361 8.34029 162.361V117.566H44.9498C46.2603 114.623 47.8204 111.845 49.6276 109.24H8.51751C9.57625 96.9814 15.1984 85.5643 24.2747 77.241C33.351 68.9177 45.2224 64.2926 57.5466 64.2782H81.0395C66.967 72.7581 56.9524 87.4549 54.1864 103.591C54.4892 103.266 54.7968 102.946 55.109 102.628C58.1873 99.4995 61.6214 96.8535 65.3874 94.7C71.8694 85.6741 88.8854 66.6856 105.093 62.939C109.66 62.6754 122.201 60.909 135.823 55.952C145.595 51.2611 153.842 43.9126 159.617 34.7512C165.392 25.5899 168.46 14.9876 168.469 4.1631V0H106.753V0.150912C97.5445 0.826999 88.6336 3.70292 80.7713 8.53635C72.909 13.3698 66.3257 20.0191 61.5759 27.924C58.0627 -10.2516 0.000225554 -7.75377 0.000225554 30.8069C-0.0675374 48.4637 15.1426 62.7327 32.7871 61.5462C23.6204 65.9203 15.7742 72.635 10.0432 81.0103C4.31212 89.3857 0.899667 99.1242 0.151389 109.24H0.000225554V170.854ZM106.753 53.2877V8.50313C95.1905 9.49946 84.3512 14.5378 76.1449 22.7305C67.9386 30.9231 62.8919 41.7444 61.8939 53.2877H106.753ZM8.34029 30.8069C8.86154 1.26454 52.8501 1.26454 53.3766 30.8069C52.8449 60.3649 8.86154 60.3649 8.34029 30.8069ZM115.093 8.3262V53.1107C126.656 52.1144 137.495 47.076 145.701 38.8834C153.907 30.6907 158.954 19.8695 159.952 8.3262H115.093Z" fill="#F0F2F5"/>
<path d="M226.496 85.1425V132H214.285V85.1425H226.496ZM196.394 85.1425V132H184.183V85.1425H196.394ZM220.817 103.673V113.115H190.146V103.673H220.817ZM284.017 85.1425V132H273.225V110.488L273.58 96.0759H273.438L261.866 132H251.997L240.425 96.0759H240.283L240.638 110.488V132H229.776V85.1425H247.17L254.553 108.997L257.18 118.937H257.322L260.02 109.068L267.333 85.1425H284.017ZM299.505 85.1425V132H287.294V85.1425H299.505ZM339.217 94.585H315.008V104.524H334.318V113.967H315.008V132H302.796V85.1425H339.217V94.585ZM377.506 85.1425V114.535C377.506 120.546 375.92 125.09 372.749 128.166C369.578 131.195 365.034 132.71 359.118 132.71C353.249 132.71 348.705 131.195 345.487 128.166C342.315 125.09 340.73 120.546 340.73 114.535V85.1425H346.409V113.115C346.409 117.99 347.427 121.587 349.462 123.906C351.545 126.226 354.763 127.385 359.118 127.385C363.472 127.385 366.667 126.226 368.702 123.906C370.785 121.587 371.826 117.99 371.826 113.115V85.1425H377.506ZM430.114 85.1425V132H424.719V102.537L425.358 90.1833H425.287L409.881 132H405.053L389.647 90.1833H389.576L390.215 102.537V132H384.819V85.1425H393.551L403.846 113.612L407.396 125.326H407.538L411.159 113.683L421.382 85.1425H430.114ZM475.092 85.1425V132H468.063L448.468 100.62L443.498 91.8162H443.427L443.711 98.9158V132H438.316V85.1425H445.344L464.868 116.381L469.909 125.397H469.98L469.696 118.227V85.1425H475.092Z" fill="#F0F2F5"/>
<path d="M184.488 140.274C184.036 140.229 183.607 140.082 183.201 139.833C182.794 139.585 182.433 139.269 182.117 138.885C181.823 138.478 181.586 138.038 181.405 137.564C181.224 137.067 181.134 136.559 181.134 136.039C181.134 135.384 181.292 134.865 181.608 134.481C181.947 134.097 182.376 133.905 182.896 133.905C183.189 133.905 183.663 133.939 184.318 134.007C184.973 134.075 185.741 134.165 186.622 134.278C187.525 134.368 188.496 134.481 189.535 134.617C190.597 134.729 191.669 134.842 192.753 134.955C193.86 135.046 194.944 135.125 196.005 135.192C197.067 135.26 198.06 135.294 198.986 135.294C199.506 135.294 199.969 135.238 200.375 135.125C200.804 134.989 201.245 134.786 201.696 134.515C202.487 133.95 203.39 133.51 204.406 133.194C205.445 132.878 206.529 132.72 207.658 132.72C208.765 132.72 209.939 132.923 211.181 133.329C212.424 133.713 213.564 134.21 214.603 134.82C215.664 135.407 216.534 136.062 217.211 136.785C217.911 137.507 218.261 138.185 218.261 138.817C218.261 139.314 218.149 139.732 217.923 140.07C217.719 140.409 217.335 140.692 216.771 140.917C216.206 141.121 215.427 141.301 214.434 141.459C213.462 141.595 212.22 141.708 210.707 141.798C210.188 141.843 209.804 142.001 209.555 142.272C209.307 142.521 209.183 142.871 209.183 143.322C209.183 143.729 209.284 144.429 209.488 145.423C209.714 146.394 209.951 147.602 210.199 149.047C210.47 150.47 210.707 152.107 210.91 153.959C211.136 155.789 211.249 157.753 211.249 159.854C211.249 161.999 210.944 163.953 210.335 165.714C209.747 167.453 208.901 168.943 207.794 170.186C206.687 171.428 205.355 172.376 203.797 173.031C202.238 173.709 200.499 174.047 198.58 174.047C196.886 174.047 195.238 173.799 193.634 173.302C192.053 172.805 190.563 172.116 189.163 171.236C187.762 170.355 186.475 169.294 185.301 168.051C184.149 166.809 183.155 165.443 182.32 163.953C181.484 162.462 180.829 160.87 180.355 159.176C179.903 157.482 179.678 155.732 179.678 153.925C179.678 153.09 179.926 152.401 180.423 151.859C180.92 151.294 181.552 151.012 182.32 151.012C183.02 151.012 183.686 151.091 184.318 151.249C184.951 151.407 185.493 151.633 185.944 151.927C186.419 152.22 186.791 152.559 187.062 152.943C187.333 153.327 187.469 153.733 187.469 154.163C187.469 155.992 187.796 157.742 188.451 159.413C189.129 161.084 190.032 162.552 191.161 163.817C192.29 165.082 193.6 166.087 195.091 166.832C196.581 167.577 198.151 167.95 199.799 167.95C201.267 167.95 202.397 167.408 203.187 166.324C204 165.217 204.406 163.636 204.406 161.581C204.406 158.984 204.192 156.229 203.763 153.316C203.334 150.38 202.69 147.184 201.832 143.729C201.493 142.509 200.816 141.866 199.799 141.798C197.089 141.663 194.458 141.471 191.906 141.222C189.355 140.974 186.882 140.658 184.488 140.274ZM232.936 138.072C234.178 138.072 235.375 138.264 236.527 138.648C237.679 139.032 238.695 139.562 239.576 140.24C240.456 140.917 241.157 141.73 241.676 142.679C242.218 143.627 242.489 144.678 242.489 145.829C242.489 146.304 242.376 146.766 242.15 147.218C241.947 147.647 241.665 148.031 241.303 148.37C240.942 148.686 240.524 148.946 240.05 149.149C239.598 149.33 239.124 149.42 238.627 149.42C238.582 149.42 238.537 149.431 238.492 149.454C238.469 149.454 238.435 149.454 238.39 149.454C238.345 149.476 238.3 149.488 238.255 149.488L238.39 152.198C238.48 155.427 238.932 157.787 239.745 159.278C240.581 160.768 241.665 161.514 242.997 161.514C243.471 161.514 243.889 161.468 244.251 161.378C244.634 161.288 244.984 161.186 245.301 161.073C245.639 160.938 245.956 160.825 246.249 160.734C246.543 160.644 246.836 160.599 247.13 160.599C247.649 160.599 248.101 160.825 248.485 161.276C248.891 161.728 249.095 162.27 249.095 162.902C249.095 163.535 248.846 164.167 248.349 164.799C247.875 165.432 247.243 166.008 246.452 166.527C245.662 167.024 244.77 167.43 243.776 167.747C242.783 168.063 241.778 168.221 240.761 168.221C239 168.221 237.453 167.498 236.12 166.053C234.788 164.585 233.84 162.439 233.275 159.616C233.139 159.165 232.959 158.939 232.733 158.939C232.462 158.939 232.225 159.074 232.022 159.345C229.786 162.168 227.403 164.291 224.874 165.714C222.345 167.114 219.849 167.814 217.387 167.814C216.236 167.814 215.197 167.645 214.271 167.306C213.345 166.967 212.555 166.493 211.9 165.883C211.267 165.251 210.77 164.495 210.409 163.614C210.07 162.71 209.901 161.705 209.901 160.599C209.901 159.041 210.24 157.403 210.917 155.687C211.617 153.971 212.555 152.277 213.729 150.606C214.903 148.934 216.258 147.342 217.794 145.829C219.352 144.316 220.978 142.984 222.672 141.832C224.388 140.68 226.127 139.766 227.889 139.088C229.65 138.411 231.333 138.072 232.936 138.072ZM231.818 149.793C232.225 149.025 232.597 148.472 232.936 148.133C233.275 147.771 233.76 147.534 234.393 147.421C234.89 147.354 235.138 147.196 235.138 146.947C235.138 146.766 235.07 146.575 234.935 146.371C234.506 145.784 234.054 145.276 233.58 144.847C233.106 144.395 232.473 144.169 231.683 144.169C230.825 144.169 229.865 144.418 228.803 144.915C227.742 145.411 226.658 146.078 225.551 146.913C224.467 147.726 223.395 148.663 222.333 149.725C221.294 150.764 220.368 151.836 219.555 152.943C218.742 154.05 218.088 155.145 217.591 156.229C217.094 157.313 216.845 158.284 216.845 159.142C216.845 159.91 217.049 160.509 217.455 160.938C217.884 161.367 218.46 161.581 219.183 161.581C221.035 161.581 223.056 160.599 225.246 158.634C227.437 156.669 229.628 153.722 231.818 149.793ZM246.29 169.135C246.132 166.132 245.872 163.365 245.511 160.836C245.172 158.284 244.811 156.06 244.427 154.163C244.065 152.266 243.738 150.73 243.444 149.556C243.173 148.381 243.038 147.647 243.038 147.354C243.038 146.925 243.196 146.507 243.512 146.1C243.851 145.694 244.269 145.344 244.765 145.05C245.262 144.734 245.793 144.486 246.358 144.305C246.945 144.124 247.475 144.034 247.95 144.034C248.334 144.034 248.661 144.102 248.932 144.237C249.226 144.373 249.429 144.598 249.542 144.915C249.655 145.299 249.756 145.705 249.847 146.134C249.96 146.541 250.073 147.037 250.185 147.625C250.321 148.46 250.502 148.878 250.727 148.878C250.976 148.878 251.258 148.505 251.574 147.76C252.026 146.721 252.512 145.863 253.031 145.186C253.55 144.508 254.104 143.977 254.691 143.593C255.301 143.187 255.922 142.905 256.554 142.747C257.209 142.589 257.886 142.509 258.587 142.509C260.709 142.509 262.505 143.345 263.973 145.016C265.463 146.687 266.626 149.104 267.462 152.266C267.575 152.627 267.676 152.864 267.767 152.977C267.857 153.067 267.959 153.112 268.072 153.112C268.185 153.112 268.297 153.067 268.41 152.977C268.546 152.864 268.67 152.649 268.783 152.333C269.325 150.865 269.957 149.623 270.68 148.607C271.403 147.568 272.148 146.733 272.916 146.1C273.706 145.445 274.508 144.971 275.321 144.678C276.134 144.384 276.913 144.237 277.658 144.237C279.036 144.237 280.278 144.745 281.385 145.762C282.514 146.755 283.507 148.302 284.366 150.402C285.246 152.48 286.003 155.122 286.635 158.329C287.29 161.514 287.832 165.296 288.261 169.677C288.261 170.897 287.889 171.744 287.143 172.218C286.398 172.715 285.382 172.963 284.095 172.963C283.259 172.963 282.604 172.783 282.13 172.421C281.656 172.06 281.385 171.586 281.317 170.999C281.023 167.859 280.696 165.07 280.334 162.631C279.996 160.17 279.623 158.103 279.217 156.432C278.81 154.738 278.358 153.451 277.862 152.57C277.387 151.69 276.857 151.249 276.269 151.249C275.976 151.249 275.603 151.464 275.152 151.893C274.722 152.322 274.259 153.112 273.763 154.264C273.266 155.393 272.746 156.952 272.204 158.939C271.662 160.904 271.143 163.422 270.646 166.493C270.511 167.351 270.093 168.006 269.393 168.458C268.715 168.91 267.88 169.135 266.886 169.135C265.734 169.135 264.932 168.955 264.481 168.593C264.052 168.232 263.815 167.622 263.769 166.764C263.679 165.274 263.521 163.794 263.295 162.327C263.092 160.836 262.832 159.425 262.516 158.092C262.2 156.737 261.85 155.495 261.466 154.366C261.082 153.214 260.675 152.22 260.246 151.385C259.817 150.527 259.377 149.86 258.925 149.386C258.474 148.912 258.033 148.675 257.604 148.675C257.04 148.675 256.486 149.07 255.944 149.86C255.425 150.651 254.951 151.769 254.521 153.214C254.115 154.659 253.788 156.398 253.539 158.431C253.291 160.463 253.166 162.733 253.166 165.24C253.166 165.669 253.178 166.098 253.2 166.527C253.223 166.934 253.234 167.363 253.234 167.814C253.234 168.492 253.121 169.045 252.895 169.474C252.692 169.903 252.387 170.242 251.981 170.49C251.597 170.739 251.145 170.908 250.626 170.999C250.106 171.089 249.542 171.134 248.932 171.134C248.367 171.134 247.916 171.089 247.577 170.999C247.238 170.931 246.979 170.818 246.798 170.66C246.617 170.502 246.493 170.287 246.425 170.016C246.358 169.768 246.312 169.474 246.29 169.135ZM288.607 169.135C288.449 166.132 288.189 163.365 287.828 160.836C287.489 158.284 287.128 156.06 286.744 154.163C286.382 152.266 286.055 150.73 285.761 149.556C285.49 148.381 285.355 147.647 285.355 147.354C285.355 146.925 285.513 146.507 285.829 146.1C286.168 145.694 286.586 145.344 287.082 145.05C287.579 144.734 288.11 144.486 288.675 144.305C289.262 144.124 289.792 144.034 290.267 144.034C290.651 144.034 290.978 144.102 291.249 144.237C291.543 144.373 291.746 144.598 291.859 144.915C291.972 145.299 292.073 145.705 292.164 146.134C292.277 146.541 292.39 147.037 292.502 147.625C292.638 148.46 292.819 148.878 293.044 148.878C293.293 148.878 293.575 148.505 293.891 147.76C294.343 146.721 294.829 145.863 295.348 145.186C295.867 144.508 296.421 143.977 297.008 143.593C297.618 143.187 298.239 142.905 298.871 142.747C299.526 142.589 300.203 142.509 300.903 142.509C303.026 142.509 304.822 143.345 306.29 145.016C307.78 146.687 308.943 149.104 309.779 152.266C309.892 152.627 309.993 152.864 310.084 152.977C310.174 153.067 310.276 153.112 310.389 153.112C310.501 153.112 310.614 153.067 310.727 152.977C310.863 152.864 310.987 152.649 311.1 152.333C311.642 150.865 312.274 149.623 312.997 148.607C313.72 147.568 314.465 146.733 315.233 146.1C316.023 145.445 316.825 144.971 317.638 144.678C318.451 144.384 319.23 144.237 319.975 144.237C321.353 144.237 322.595 144.745 323.702 145.762C324.831 146.755 325.824 148.302 326.683 150.402C327.563 152.48 328.32 155.122 328.952 158.329C329.607 161.514 330.149 165.296 330.578 169.677C330.578 170.897 330.206 171.744 329.46 172.218C328.715 172.715 327.699 172.963 326.412 172.963C325.576 172.963 324.921 172.783 324.447 172.421C323.973 172.06 323.702 171.586 323.634 170.999C323.34 167.859 323.013 165.07 322.651 162.631C322.313 160.17 321.94 158.103 321.534 156.432C321.127 154.738 320.675 153.451 320.179 152.57C319.704 151.69 319.174 151.249 318.586 151.249C318.293 151.249 317.92 151.464 317.468 151.893C317.039 152.322 316.576 153.112 316.08 154.264C315.583 155.393 315.063 156.952 314.521 158.939C313.979 160.904 313.46 163.422 312.963 166.493C312.828 167.351 312.41 168.006 311.71 168.458C311.032 168.91 310.197 169.135 309.203 169.135C308.051 169.135 307.249 168.955 306.798 168.593C306.369 168.232 306.132 167.622 306.086 166.764C305.996 165.274 305.838 163.794 305.612 162.327C305.409 160.836 305.149 159.425 304.833 158.092C304.517 156.737 304.167 155.495 303.783 154.366C303.399 153.214 302.992 152.22 302.563 151.385C302.134 150.527 301.694 149.86 301.242 149.386C300.791 148.912 300.35 148.675 299.921 148.675C299.357 148.675 298.803 149.07 298.261 149.86C297.742 150.651 297.268 151.769 296.838 153.214C296.432 154.659 296.104 156.398 295.856 158.431C295.608 160.463 295.483 162.733 295.483 165.24C295.483 165.669 295.495 166.098 295.517 166.527C295.54 166.934 295.551 167.363 295.551 167.814C295.551 168.492 295.438 169.045 295.212 169.474C295.009 169.903 294.704 170.242 294.298 170.49C293.914 170.739 293.462 170.908 292.943 170.999C292.423 171.089 291.859 171.134 291.249 171.134C290.684 171.134 290.233 171.089 289.894 170.999C289.555 170.931 289.296 170.818 289.115 170.66C288.934 170.502 288.81 170.287 288.742 170.016C288.675 169.768 288.629 169.474 288.607 169.135ZM332.99 133.126C332.335 133.126 331.714 133.036 331.127 132.855C330.562 132.652 330.066 132.381 329.636 132.042C329.23 131.681 328.903 131.263 328.654 130.789C328.406 130.314 328.281 129.795 328.281 129.23C328.281 128.282 328.654 127.514 329.399 126.927C330.167 126.34 331.183 126.046 332.448 126.046C333.035 126.046 333.6 126.159 334.142 126.385C334.684 126.588 335.158 126.87 335.565 127.232C335.994 127.593 336.332 128.022 336.581 128.519C336.829 128.993 336.954 129.49 336.954 130.01C336.954 130.981 336.592 131.748 335.87 132.313C335.169 132.855 334.21 133.126 332.99 133.126ZM328.349 143.458C328.349 142.668 328.688 142.024 329.365 141.527C330.066 141.008 330.98 140.748 332.109 140.748C334.142 140.748 335.226 141.448 335.361 142.848C335.452 143.819 335.542 144.915 335.632 146.134C335.745 147.354 335.847 148.652 335.937 150.03C336.05 151.385 336.141 152.796 336.208 154.264C336.299 155.71 336.378 157.144 336.445 158.566C336.513 159.967 336.57 161.322 336.615 162.631C336.66 163.941 336.683 165.138 336.683 166.222C336.683 167.351 336.276 168.198 335.463 168.763C334.673 169.327 333.51 169.61 331.974 169.61C331.274 169.61 330.72 169.44 330.314 169.102C329.93 168.785 329.738 168.311 329.738 167.679C329.738 164.562 329.659 161.649 329.501 158.939C329.365 156.206 329.207 153.779 329.027 151.656C328.869 149.533 328.711 147.771 328.552 146.371C328.417 144.949 328.349 143.977 328.349 143.458ZM336.588 140.341C336.588 140.003 336.734 139.675 337.028 139.359C337.322 139.02 337.706 138.727 338.18 138.478C338.654 138.207 339.185 137.993 339.772 137.835C340.382 137.654 340.991 137.564 341.601 137.564C341.94 137.564 342.222 137.654 342.448 137.835C342.697 138.015 342.911 138.365 343.092 138.885C343.272 139.382 343.43 140.093 343.566 141.019C343.724 141.922 343.871 143.108 344.006 144.576C344.097 145.028 344.176 145.378 344.243 145.626C344.334 145.852 344.447 145.965 344.582 145.965C344.785 145.965 344.989 145.615 345.192 144.915C346.841 140.15 349.223 137.767 352.34 137.767C353.785 137.767 355.095 138.219 356.269 139.122C357.466 140.025 358.573 141.505 359.589 143.56C360.628 145.592 361.61 148.28 362.536 151.622C363.462 154.942 364.388 159.041 365.314 163.919C365.359 164.167 365.393 164.393 365.416 164.596C365.438 164.799 365.449 164.991 365.449 165.172C365.449 165.691 365.325 166.143 365.077 166.527C364.851 166.888 364.546 167.193 364.162 167.442C363.778 167.668 363.349 167.837 362.875 167.95C362.401 168.085 361.926 168.153 361.452 168.153C360.504 168.153 359.815 168.051 359.386 167.848C358.979 167.645 358.72 167.261 358.607 166.696C357.952 163.264 357.308 160.215 356.676 157.55C356.066 154.885 355.456 152.649 354.846 150.843C354.259 149.014 353.672 147.625 353.085 146.676C352.498 145.728 351.911 145.253 351.323 145.253C350.736 145.253 350.183 145.626 349.664 146.371C349.167 147.094 348.681 148.234 348.207 149.793C347.733 151.351 347.27 153.327 346.818 155.721C346.389 158.115 345.971 160.972 345.565 164.291C345.452 165.195 345 165.917 344.21 166.459C343.419 167.001 342.414 167.272 341.195 167.272C340.382 167.272 339.761 167.103 339.332 166.764C338.902 166.425 338.665 165.962 338.62 165.375C338.417 160.678 338.191 156.816 337.943 153.79C337.717 150.741 337.502 148.302 337.299 146.473C337.096 144.621 336.926 143.243 336.791 142.34C336.655 141.437 336.588 140.771 336.588 140.341ZM379.989 141.256C381.073 141.256 382.1 141.346 383.071 141.527C384.042 141.685 384.923 141.866 385.714 142.069C386.504 142.25 387.182 142.43 387.746 142.611C388.311 142.769 388.717 142.848 388.966 142.848C389.169 142.848 389.361 142.747 389.541 142.543C389.722 142.318 389.948 142.08 390.219 141.832C390.49 141.584 390.851 141.358 391.303 141.154C391.755 140.929 392.353 140.816 393.098 140.816C393.957 140.816 394.634 141.042 395.131 141.493C395.628 141.922 395.876 142.464 395.876 143.119C395.876 151.385 395.594 158.408 395.029 164.19C394.465 169.948 393.55 174.635 392.285 178.248C391.021 181.861 389.383 184.481 387.373 186.107C385.364 187.733 382.925 188.546 380.056 188.546C378.747 188.546 377.38 188.252 375.958 187.665C374.557 187.078 373.27 186.321 372.096 185.396C370.921 184.492 369.95 183.487 369.182 182.381C368.437 181.274 368.065 180.213 368.065 179.196C368.065 178.858 368.245 178.462 368.607 178.011C368.968 177.559 369.408 177.119 369.928 176.69C370.447 176.261 370.989 175.899 371.554 175.606C372.118 175.312 372.604 175.165 373.01 175.165C373.439 175.165 373.801 175.335 374.094 175.673C374.388 176.035 374.659 176.475 374.907 176.994C375.178 177.514 375.449 178.079 375.72 178.688C375.991 179.321 376.33 179.896 376.737 180.416C377.143 180.935 377.64 181.364 378.227 181.703C378.814 182.064 379.548 182.245 380.429 182.245C385.352 182.245 388.243 174.725 389.101 159.684C389.101 159.007 388.909 158.668 388.525 158.668C388.209 158.668 387.961 158.826 387.78 159.142C385.657 162.01 383.173 164.167 380.327 165.612C377.504 167.035 374.365 167.747 370.91 167.747C369.307 167.747 367.827 167.509 366.472 167.035C365.117 166.538 363.943 165.861 362.949 165.003C361.978 164.122 361.222 163.083 360.68 161.886C360.138 160.667 359.867 159.334 359.867 157.889C359.867 156.466 360.115 155.066 360.612 153.688C361.131 152.288 361.843 150.978 362.746 149.759C363.672 148.517 364.767 147.376 366.032 146.337C367.297 145.299 368.674 144.407 370.165 143.661C371.655 142.893 373.225 142.306 374.873 141.9C376.545 141.471 378.25 141.256 379.989 141.256ZM371.96 161.514C375.054 161.514 377.888 160.542 380.463 158.6C383.037 156.635 385.239 153.79 387.069 150.064C387.114 149.928 387.148 149.827 387.17 149.759C387.193 149.668 387.204 149.578 387.204 149.488C387.204 149.262 386.967 149.025 386.493 148.776C386.018 148.528 385.397 148.313 384.63 148.133C383.862 147.952 382.981 147.805 381.987 147.692C381.016 147.557 380.034 147.489 379.04 147.489C377.437 147.489 375.89 147.76 374.399 148.302C372.909 148.844 371.588 149.567 370.436 150.47C369.284 151.374 368.358 152.401 367.658 153.553C366.958 154.705 366.608 155.902 366.608 157.144C366.608 158.476 367.093 159.537 368.065 160.328C369.058 161.118 370.357 161.514 371.96 161.514ZM410.93 153.79C410.93 155.145 411.258 156.41 411.913 157.584C412.59 158.736 413.471 159.752 414.555 160.633C415.639 161.491 416.881 162.168 418.281 162.665C419.681 163.14 421.115 163.377 422.583 163.377C423.035 163.377 423.498 163.343 423.972 163.275C424.447 163.185 424.876 163.038 425.26 162.835C425.643 162.631 425.96 162.372 426.208 162.056C426.456 161.717 426.581 161.299 426.581 160.802C426.581 159.854 426.242 158.916 425.564 157.99C424.909 157.065 424.04 156.15 422.956 155.247C421.872 154.321 420.63 153.406 419.23 152.503C417.83 151.577 416.407 150.662 414.961 149.759C413.516 148.855 412.093 147.952 410.693 147.049C409.293 146.123 408.051 145.208 406.967 144.305C405.883 143.379 405.002 142.453 404.325 141.527C403.67 140.579 403.342 139.63 403.342 138.682C403.342 137.778 403.568 136.943 404.02 136.175C404.494 135.384 405.115 134.673 405.883 134.041C406.651 133.408 407.543 132.844 408.559 132.347C409.575 131.85 410.637 131.432 411.743 131.094C412.85 130.755 413.956 130.506 415.063 130.348C416.192 130.168 417.265 130.077 418.281 130.077C419.026 130.077 419.84 130.1 420.72 130.145C421.624 130.168 422.459 130.269 423.227 130.45C424.017 130.608 424.672 130.856 425.192 131.195C425.711 131.534 425.971 132.019 425.971 132.652C425.971 132.855 425.937 133.115 425.869 133.431C425.802 133.725 425.61 134.221 425.293 134.921C424.977 135.576 424.605 136.073 424.176 136.412C423.769 136.728 423.238 136.886 422.583 136.886C421.657 136.886 420.675 136.785 419.636 136.581C418.62 136.355 417.592 136.243 416.554 136.243C415.989 136.243 415.413 136.276 414.826 136.344C414.261 136.389 413.742 136.491 413.268 136.649C412.793 136.785 412.41 136.999 412.116 137.293C411.822 137.564 411.676 137.914 411.676 138.343C411.676 138.772 411.98 139.257 412.59 139.799C413.223 140.341 414.047 140.94 415.063 141.595C416.102 142.25 417.276 142.972 418.586 143.763C419.896 144.531 421.228 145.366 422.583 146.27C423.961 147.15 425.305 148.099 426.615 149.115C427.924 150.109 429.087 151.17 430.104 152.299C431.143 153.406 431.967 154.58 432.577 155.822C433.209 157.065 433.525 158.352 433.525 159.684C433.525 161.31 433.152 162.744 432.407 163.986C431.662 165.228 430.702 166.267 429.528 167.103C428.353 167.939 427.055 168.56 425.632 168.966C424.209 169.395 422.821 169.61 421.466 169.61C420.088 169.61 418.688 169.44 417.265 169.102C415.865 168.785 414.51 168.322 413.2 167.713C411.89 167.126 410.659 166.414 409.508 165.579C408.378 164.72 407.396 163.772 406.56 162.733C405.725 161.672 405.059 160.531 404.562 159.312C404.088 158.092 403.85 156.816 403.85 155.484C403.85 154.919 403.884 154.355 403.952 153.79C404.042 153.203 404.189 152.695 404.392 152.266C404.596 151.814 404.878 151.453 405.239 151.182C405.601 150.888 406.064 150.741 406.628 150.741C406.809 150.741 407.012 150.764 407.238 150.809C407.464 150.832 407.859 150.933 408.424 151.114C409.078 151.317 409.654 151.645 410.151 152.096C410.671 152.525 410.93 153.09 410.93 153.79ZM458.227 160.26C458.882 159.696 459.526 159.413 460.158 159.413C460.519 159.413 460.847 159.504 461.14 159.684C461.434 159.865 461.761 160.147 462.123 160.531C462.461 161.051 462.698 161.48 462.834 161.818C462.992 162.135 463.071 162.451 463.071 162.767C463.071 163.444 462.732 164.088 462.055 164.698C460.971 165.601 459.797 166.414 458.532 167.137C457.267 167.837 455.946 168.435 454.568 168.932C453.191 169.429 451.768 169.802 450.3 170.05C448.832 170.321 447.376 170.457 445.93 170.457C444.101 170.457 442.385 170.219 440.781 169.745C439.178 169.294 437.744 168.639 436.479 167.78C435.237 166.922 434.187 165.895 433.329 164.698C432.47 163.478 431.861 162.112 431.499 160.599C431.296 159.967 431.104 159.56 430.923 159.379C430.765 159.176 430.494 159.074 430.11 159.074C429.275 159.074 428.631 158.871 428.18 158.465C427.728 158.058 427.502 157.471 427.502 156.703C427.502 156.387 427.525 156.184 427.57 156.093L427.638 155.416C427.751 154.603 427.965 154.016 428.281 153.654C428.62 153.293 429.139 153.112 429.839 153.112H430.348C431.296 153.112 431.962 152.672 432.346 151.791C433.046 150.233 433.938 148.81 435.022 147.523C436.106 146.236 437.326 145.14 438.681 144.237C440.036 143.311 441.481 142.6 443.017 142.103C444.575 141.584 446.156 141.324 447.759 141.324C449.431 141.324 450.989 141.572 452.434 142.069C453.902 142.543 455.178 143.21 456.262 144.068C457.346 144.926 458.193 145.931 458.803 147.083C459.435 148.234 459.751 149.476 459.751 150.809C459.751 151.735 459.571 152.582 459.209 153.35C458.848 154.117 458.329 154.795 457.651 155.382C456.974 155.947 456.149 156.41 455.178 156.771C454.23 157.132 453.146 157.369 451.926 157.482L440.171 158.668C439.72 158.668 439.347 158.781 439.054 159.007C438.783 159.233 438.647 159.537 438.647 159.921C438.647 160.509 438.862 161.073 439.291 161.615C439.742 162.157 440.33 162.643 441.052 163.072C441.797 163.478 442.644 163.806 443.593 164.054C444.564 164.303 445.558 164.427 446.574 164.427C447.545 164.427 448.539 164.336 449.555 164.156C450.594 163.953 451.61 163.67 452.604 163.309C453.62 162.948 454.602 162.518 455.551 162.022C456.499 161.502 457.391 160.915 458.227 160.26ZM450.673 151.52C451.012 151.453 451.305 151.294 451.554 151.046C451.802 150.775 451.926 150.448 451.926 150.064C451.926 149.725 451.802 149.409 451.554 149.115C451.305 148.822 450.966 148.562 450.537 148.336C450.108 148.088 449.611 147.896 449.047 147.76C448.482 147.625 447.884 147.557 447.251 147.557C446.325 147.557 445.377 147.692 444.406 147.963C443.435 148.234 442.554 148.596 441.764 149.047C440.973 149.476 440.33 149.962 439.833 150.504C439.336 151.023 439.087 151.543 439.087 152.062C439.087 152.582 439.404 152.841 440.036 152.841C440.42 152.841 441.041 152.796 441.899 152.706C442.757 152.616 443.706 152.514 444.745 152.401C445.783 152.266 446.834 152.119 447.895 151.961C448.956 151.803 449.882 151.656 450.673 151.52ZM466.736 138.275C468.25 138.275 469.808 138.478 471.411 138.885C473.015 139.269 474.483 139.777 475.815 140.409C477.147 141.019 478.243 141.708 479.101 142.476C479.959 143.243 480.388 143.989 480.388 144.711C480.388 145.073 480.23 145.479 479.914 145.931C479.598 146.36 479.214 146.778 478.762 147.184C478.31 147.568 477.814 147.896 477.272 148.167C476.752 148.415 476.289 148.539 475.883 148.539C475.341 148.539 474.731 148.313 474.053 147.862C473.399 147.41 472.665 146.913 471.852 146.371C471.061 145.807 470.192 145.299 469.243 144.847C468.295 144.395 467.267 144.169 466.161 144.169C465.438 144.169 464.839 144.35 464.365 144.711C463.913 145.05 463.688 145.536 463.688 146.168C463.688 146.733 463.959 147.308 464.501 147.896C465.043 148.46 465.754 149.047 466.635 149.657C467.538 150.267 468.554 150.911 469.684 151.588C470.813 152.266 471.965 152.988 473.139 153.756C474.336 154.524 475.499 155.36 476.628 156.263C477.757 157.166 478.762 158.149 479.643 159.21C480.546 160.271 481.269 161.434 481.811 162.699C482.353 163.941 482.624 165.296 482.624 166.764C482.624 168.029 482.398 169.181 481.946 170.219C481.495 171.258 480.851 172.15 480.016 172.896C479.18 173.641 478.186 174.217 477.034 174.623C475.883 175.03 474.618 175.233 473.24 175.233C471.502 175.233 469.898 174.962 468.43 174.42C466.962 173.901 465.698 173.178 464.636 172.252C463.575 171.326 462.739 170.219 462.129 168.932C461.542 167.645 461.249 166.233 461.249 164.698C461.249 162.71 461.599 161.265 462.299 160.362C463.021 159.458 464.151 159.007 465.686 159.007C466.635 159.007 467.391 159.187 467.956 159.549C468.521 159.91 468.803 160.35 468.803 160.87C468.803 161.141 468.758 161.423 468.667 161.717C468.577 161.988 468.475 162.281 468.362 162.598C468.272 162.891 468.182 163.207 468.091 163.546C468.024 163.885 467.99 164.224 467.99 164.562C467.99 165.149 468.125 165.714 468.396 166.256C468.667 166.798 469.029 167.272 469.48 167.679C469.955 168.108 470.497 168.447 471.106 168.695C471.716 168.943 472.36 169.068 473.037 169.068C474.844 169.068 475.747 168.322 475.747 166.832C475.747 165.658 475.284 164.551 474.358 163.512C473.432 162.451 472.269 161.423 470.869 160.429C469.469 159.413 467.956 158.397 466.33 157.381C464.726 156.364 463.225 155.303 461.825 154.196C460.424 153.09 459.261 151.916 458.335 150.673C457.409 149.409 456.946 148.042 456.946 146.575C456.946 145.355 457.195 144.237 457.692 143.221C458.211 142.205 458.911 141.335 459.792 140.612C460.673 139.867 461.7 139.291 462.875 138.885C464.072 138.478 465.359 138.275 466.736 138.275ZM485.341 138.275C486.854 138.275 488.412 138.478 490.015 138.885C491.619 139.269 493.087 139.777 494.419 140.409C495.752 141.019 496.847 141.708 497.705 142.476C498.563 143.243 498.992 143.989 498.992 144.711C498.992 145.073 498.834 145.479 498.518 145.931C498.202 146.36 497.818 146.778 497.366 147.184C496.915 147.568 496.418 147.896 495.876 148.167C495.356 148.415 494.894 148.539 494.487 148.539C493.945 148.539 493.335 148.313 492.658 147.862C492.003 147.41 491.269 146.913 490.456 146.371C489.665 145.807 488.796 145.299 487.847 144.847C486.899 144.395 485.871 144.169 484.765 144.169C484.042 144.169 483.444 144.35 482.969 144.711C482.518 145.05 482.292 145.536 482.292 146.168C482.292 146.733 482.563 147.308 483.105 147.896C483.647 148.46 484.358 149.047 485.239 149.657C486.142 150.267 487.159 150.911 488.288 151.588C489.417 152.266 490.569 152.988 491.743 153.756C492.94 154.524 494.103 155.36 495.232 156.263C496.361 157.166 497.366 158.149 498.247 159.21C499.151 160.271 499.873 161.434 500.415 162.699C500.957 163.941 501.228 165.296 501.228 166.764C501.228 168.029 501.002 169.181 500.551 170.219C500.099 171.258 499.455 172.15 498.62 172.896C497.784 173.641 496.791 174.217 495.639 174.623C494.487 175.03 493.222 175.233 491.845 175.233C490.106 175.233 488.502 174.962 487.034 174.42C485.567 173.901 484.302 173.178 483.24 172.252C482.179 171.326 481.343 170.219 480.734 168.932C480.146 167.645 479.853 166.233 479.853 164.698C479.853 162.71 480.203 161.265 480.903 160.362C481.626 159.458 482.755 159.007 484.291 159.007C485.239 159.007 485.996 159.187 486.56 159.549C487.125 159.91 487.407 160.35 487.407 160.87C487.407 161.141 487.362 161.423 487.272 161.717C487.181 161.988 487.08 162.281 486.967 162.598C486.876 162.891 486.786 163.207 486.696 163.546C486.628 163.885 486.594 164.224 486.594 164.562C486.594 165.149 486.73 165.714 487.001 166.256C487.272 166.798 487.633 167.272 488.085 167.679C488.559 168.108 489.101 168.447 489.711 168.695C490.32 168.943 490.964 169.068 491.641 169.068C493.448 169.068 494.352 168.322 494.352 166.832C494.352 165.658 493.889 164.551 492.963 163.512C492.037 162.451 490.874 161.423 489.473 160.429C488.073 159.413 486.56 158.397 484.934 157.381C483.331 156.364 481.829 155.303 480.429 154.196C479.029 153.09 477.866 151.916 476.94 150.673C476.014 149.409 475.551 148.042 475.551 146.575C475.551 145.355 475.799 144.237 476.296 143.221C476.815 142.205 477.516 141.335 478.396 140.612C479.277 139.867 480.305 139.291 481.479 138.885C482.676 138.478 483.963 138.275 485.341 138.275ZM500.591 133.126C499.936 133.126 499.315 133.036 498.728 132.855C498.164 132.652 497.667 132.381 497.238 132.042C496.831 131.681 496.504 131.263 496.255 130.789C496.007 130.314 495.883 129.795 495.883 129.23C495.883 128.282 496.255 127.514 497.001 126.927C497.768 126.34 498.785 126.046 500.049 126.046C500.636 126.046 501.201 126.159 501.743 126.385C502.285 126.588 502.759 126.87 503.166 127.232C503.595 127.593 503.934 128.022 504.182 128.519C504.431 128.993 504.555 129.49 504.555 130.01C504.555 130.981 504.193 131.748 503.471 132.313C502.771 132.855 501.811 133.126 500.591 133.126ZM495.95 143.458C495.95 142.668 496.289 142.024 496.967 141.527C497.667 141.008 498.581 140.748 499.711 140.748C501.743 140.748 502.827 141.448 502.963 142.848C503.053 143.819 503.143 144.915 503.234 146.134C503.347 147.354 503.448 148.652 503.538 150.03C503.651 151.385 503.742 152.796 503.809 154.264C503.9 155.71 503.979 157.144 504.047 158.566C504.114 159.967 504.171 161.322 504.216 162.631C504.261 163.941 504.284 165.138 504.284 166.222C504.284 167.351 503.877 168.198 503.064 168.763C502.274 169.327 501.111 169.61 499.575 169.61C498.875 169.61 498.322 169.44 497.915 169.102C497.531 168.785 497.339 168.311 497.339 167.679C497.339 164.562 497.26 161.649 497.102 158.939C496.967 156.206 496.809 153.779 496.628 151.656C496.47 149.533 496.312 147.771 496.154 146.371C496.018 144.949 495.95 143.977 495.95 143.458ZM504.053 156.432C504.053 156.048 504.099 155.619 504.189 155.145C504.279 154.671 504.324 154.151 504.324 153.587C504.324 153.203 504.155 152.909 503.816 152.706C503.5 152.503 503.139 152.277 502.732 152.028C502.326 151.78 501.953 151.464 501.614 151.08C501.298 150.696 501.14 150.143 501.14 149.42C501.14 148.901 501.276 148.381 501.547 147.862C501.84 147.342 502.258 146.868 502.8 146.439C504.132 145.445 505.51 144.553 506.933 143.763C508.378 142.972 509.812 142.306 511.235 141.764C512.68 141.222 514.103 140.804 515.503 140.511C516.903 140.217 518.247 140.07 519.534 140.07C521.702 140.07 523.735 140.477 525.632 141.29C527.552 142.08 529.211 143.176 530.612 144.576C532.034 145.953 533.152 147.579 533.965 149.454C534.801 151.306 535.219 153.293 535.219 155.416C535.219 157.494 534.778 159.47 533.897 161.344C533.039 163.196 531.876 164.822 530.408 166.222C528.94 167.622 527.213 168.729 525.225 169.542C523.261 170.378 521.183 170.795 518.992 170.795C516.847 170.795 514.86 170.434 513.03 169.711C511.201 168.989 509.62 167.995 508.288 166.73C506.955 165.443 505.917 163.93 505.171 162.191C504.426 160.429 504.053 158.51 504.053 156.432ZM519.738 164.698C520.686 164.698 521.669 164.506 522.685 164.122C523.701 163.738 524.627 163.185 525.463 162.462C526.321 161.717 527.021 160.813 527.563 159.752C528.127 158.691 528.41 157.494 528.41 156.161C528.41 154.806 528.161 153.542 527.664 152.367C527.168 151.193 526.479 150.177 525.598 149.318C524.74 148.438 523.712 147.749 522.515 147.252C521.341 146.755 520.065 146.507 518.687 146.507C516.181 146.507 514.261 147.162 512.929 148.472C511.596 149.759 510.93 151.746 510.93 154.434C510.93 155.902 511.145 157.268 511.574 158.532C512.025 159.775 512.646 160.859 513.437 161.785C514.227 162.688 515.153 163.399 516.215 163.919C517.299 164.438 518.473 164.698 519.738 164.698ZM533.295 140.341C533.295 140.003 533.441 139.675 533.735 139.359C534.028 139.02 534.412 138.727 534.887 138.478C535.361 138.207 535.892 137.993 536.479 137.835C537.089 137.654 537.698 137.564 538.308 137.564C538.647 137.564 538.929 137.654 539.155 137.835C539.403 138.015 539.618 138.365 539.799 138.885C539.979 139.382 540.137 140.093 540.273 141.019C540.431 141.922 540.578 143.108 540.713 144.576C540.804 145.028 540.883 145.378 540.95 145.626C541.041 145.852 541.154 145.965 541.289 145.965C541.492 145.965 541.696 145.615 541.899 144.915C543.547 140.15 545.93 137.767 549.047 137.767C550.492 137.767 551.802 138.219 552.976 139.122C554.173 140.025 555.28 141.505 556.296 143.56C557.335 145.592 558.317 148.28 559.243 151.622C560.169 154.942 561.095 159.041 562.021 163.919C562.066 164.167 562.1 164.393 562.122 164.596C562.145 164.799 562.156 164.991 562.156 165.172C562.156 165.691 562.032 166.143 561.784 166.527C561.558 166.888 561.253 167.193 560.869 167.442C560.485 167.668 560.056 167.837 559.582 167.95C559.107 168.085 558.633 168.153 558.159 168.153C557.21 168.153 556.522 168.051 556.093 167.848C555.686 167.645 555.426 167.261 555.313 166.696C554.659 163.264 554.015 160.215 553.383 157.55C552.773 154.885 552.163 152.649 551.553 150.843C550.966 149.014 550.379 147.625 549.792 146.676C549.205 145.728 548.617 145.253 548.03 145.253C547.443 145.253 546.89 145.626 546.37 146.371C545.874 147.094 545.388 148.234 544.914 149.793C544.439 151.351 543.977 153.327 543.525 155.721C543.096 158.115 542.678 160.972 542.271 164.291C542.159 165.195 541.707 165.917 540.916 166.459C540.126 167.001 539.121 167.272 537.902 167.272C537.089 167.272 536.467 167.103 536.038 166.764C535.609 166.425 535.372 165.962 535.327 165.375C535.124 160.678 534.898 156.816 534.65 153.79C534.424 150.741 534.209 148.302 534.006 146.473C533.803 144.621 533.633 143.243 533.498 142.34C533.362 141.437 533.295 140.771 533.295 140.341Z" fill="#F0F2F5"/>
</svg>
