<svg width="533" height="63" viewBox="0 0 533 63" fill="none" xmlns="http://www.w3.org/2000/svg">
<path fill-rule="evenodd" clip-rule="evenodd" d="M18.6287 55.9082H24.585V49.9504H18.6287V55.9082ZM13.0562 46.1122H19.0145V40.1542H13.0562V46.1122ZM9.41723 33.2657H15.3725V27.3097H9.41723V33.2657ZM17.865 38.0543H23.8196V32.0972H17.865V38.0543ZM29.7674 31.5281H35.7254V25.5721H29.7674V31.5281ZM20.9396 28.6527H26.8968V22.695H20.9396V28.6527ZM17.0965 20.7898H23.0537V14.8326H17.0965V20.7898ZM28.2298 15.4019H34.1867V9.45018H28.2298V15.4019ZM0 31.6587C0 29.7106 0.182867 27.8093 0.53093 25.9684H5.00607V20.0133H2.28795C3.28118 17.5837 4.58133 15.3058 6.13451 13.2401V16.6891H12.0897V10.7348H8.23416C13.8367 4.70909 21.8367 0.946777 30.7132 0.946777C47.6753 0.946777 61.4226 14.6946 61.4226 31.6587C61.4226 48.6191 47.6753 62.3644 30.7132 62.3644C13.7547 62.3644 0 48.6191 0 31.6587Z" fill="#F0F2F5"/>
<path fill-rule="evenodd" clip-rule="evenodd" d="M71.1554 18.0222V8.10896C71.1554 7.26761 71.3472 6.6334 71.7301 6.2123C72.1071 5.78836 72.6071 5.58008 73.2199 5.58008C73.8707 5.58008 74.3831 5.78836 74.7615 6.2123C75.1416 6.6334 75.3334 7.26761 75.3334 8.11351V18.2655C75.3334 19.4175 75.4614 20.3832 75.7172 21.156C75.9787 21.9299 76.4354 22.5303 77.0895 22.9596C77.7465 23.3836 78.6704 23.5995 79.8546 23.5995C81.4823 23.5995 82.6347 23.1636 83.3136 22.3001C83.9851 21.4274 84.3248 20.1101 84.3248 18.3468V8.11351C84.3248 7.25282 84.5151 6.6206 84.8887 6.20747C85.2603 5.78836 85.7639 5.58008 86.3916 5.58008C87.0184 5.58008 87.5254 5.78835 87.9167 6.20319C88.3056 6.6206 88.4985 7.25282 88.4985 8.11351V18.0296C88.4985 19.6432 88.3432 20.991 88.0291 22.0679C87.7164 23.1451 87.1237 24.0972 86.2519 24.914C85.5007 25.6012 84.6301 26.1082 83.6348 26.4206C82.6421 26.7367 81.4795 26.9012 80.1448 26.9012C78.5622 26.9012 77.1993 26.7268 76.0541 26.3816C74.9106 26.0396 73.9722 25.5115 73.2521 24.7971C72.5311 24.0798 72.0041 23.1545 71.6644 22.0414C71.3278 20.9158 71.1554 19.582 71.1554 18.0222Z" fill="#F0F2F5"/>
<path fill-rule="evenodd" clip-rule="evenodd" d="M99.6699 23.4371L96.3577 10.3002V24.5383C96.3577 25.3201 96.1852 25.9168 95.8361 26.3069C95.487 26.7055 95.0221 26.9018 94.4445 26.9018C93.8837 26.9018 93.4296 26.7055 93.0739 26.3151C92.7214 25.9251 92.5441 25.3329 92.5441 24.5383V8.22542C92.5441 7.32375 92.7755 6.71685 93.2486 6.40103C93.7118 6.09203 94.3412 5.93213 95.1399 5.93213H96.4282C97.2075 5.93213 97.7686 6.00809 98.1212 6.14609C98.4711 6.28921 98.7278 6.54159 98.9025 6.90436C99.0686 7.26884 99.2587 7.86378 99.4781 8.68948L102.474 19.9798L105.465 8.68948C105.684 7.86378 105.873 7.26884 106.043 6.90436C106.209 6.54159 106.471 6.28921 106.822 6.14609C107.175 6.00809 107.737 5.93213 108.518 5.93213H109.808C110.605 5.93213 111.233 6.09203 111.705 6.40103C112.176 6.71685 112.409 7.32375 112.409 8.22542V24.5383C112.409 25.3221 112.231 25.9168 111.878 26.3069C111.534 26.7055 111.063 26.9018 110.476 26.9018C109.925 26.9018 109.473 26.7055 109.122 26.3069C108.762 25.9168 108.592 25.3201 108.592 24.5383V10.3002L105.283 23.4371C105.063 24.2904 104.886 24.9227 104.753 25.3156C104.612 25.7168 104.361 26.0776 103.998 26.4053C103.633 26.7365 103.125 26.9018 102.474 26.9018C101.99 26.9018 101.573 26.7966 101.232 26.58C100.896 26.3701 100.636 26.1052 100.45 25.7751C100.26 25.4425 100.111 25.0826 100.001 24.6842C99.8921 24.2847 99.7859 23.871 99.6699 23.4371Z" fill="#F0F2F5"/>
<path fill-rule="evenodd" clip-rule="evenodd" d="M121.899 8.08165L129.934 20.2336V7.96926C129.934 7.17543 130.102 6.57593 130.444 6.16934C130.786 5.7784 131.243 5.58008 131.822 5.58008C132.419 5.58008 132.891 5.7784 133.234 6.16934C133.576 6.57593 133.749 7.17543 133.749 7.96926V24.1814C133.749 25.9932 133.001 26.9012 131.511 26.9012C131.136 26.9012 130.801 26.8457 130.502 26.7367C130.205 26.6266 129.919 26.4602 129.657 26.2234C129.399 25.9921 129.155 25.7164 128.933 25.402C128.709 25.0887 128.483 24.7672 128.259 24.4355L120.423 12.4364V24.5086C120.423 25.2979 120.236 25.89 119.87 26.2937C119.507 26.6977 119.037 26.9012 118.463 26.9012C117.877 26.9012 117.396 26.6895 117.042 26.2829C116.682 25.8826 116.508 25.287 116.508 24.5086V8.60176C116.508 7.92373 116.581 7.39622 116.733 7.01638C116.912 6.59414 117.207 6.24787 117.622 5.97756C118.034 5.71068 118.478 5.58008 118.955 5.58008C119.335 5.58008 119.653 5.63841 119.921 5.75991C120.191 5.88424 120.423 6.04784 120.625 6.25441C120.826 6.45898 121.036 6.72673 121.244 7.05109C121.454 7.3837 121.674 7.72513 121.899 8.08165Z" fill="#F0F2F5"/>
<path fill-rule="evenodd" clip-rule="evenodd" d="M71.1552 32.8672H71.9134V36.6972C71.9134 37.0856 72.0511 37.3781 72.3274 37.5798C72.6068 37.779 72.9101 37.8789 73.2399 37.8789C73.5762 37.8789 73.8824 37.779 74.1646 37.5798C74.4463 37.3835 74.584 37.0913 74.584 36.6972V32.8672H75.3451V36.6972C75.3451 37.2509 75.1323 37.6743 74.7029 37.9773C74.2705 38.2761 73.7993 38.4289 73.2794 38.4417H73.2592H73.237C72.7394 38.4417 72.285 38.3008 71.8676 38.024C71.4491 37.7463 71.2109 37.3058 71.1552 36.6972V32.8672Z" fill="#F0F2F5"/>
<path fill-rule="evenodd" clip-rule="evenodd" d="M77.98 32.8672H78.8526L81.5286 37.2244V32.8672H82.2248V38.2687H81.408L78.6742 33.9655V38.2687H77.98V32.8672Z" fill="#F0F2F5"/>
<path fill-rule="evenodd" clip-rule="evenodd" d="M84.9157 32.8672H85.6117V38.269H84.9157V32.8672Z" fill="#F0F2F5"/>
<path fill-rule="evenodd" clip-rule="evenodd" d="M87.91 32.8672H88.6609L90.2352 37.4L91.7438 32.8672H92.5066L90.5835 38.2687H89.8215L87.91 32.8672Z" fill="#F0F2F5"/>
<path fill-rule="evenodd" clip-rule="evenodd" d="M94.8438 32.8672H98.5642V33.4408H95.5425V35.1926H98.4564V35.8257H95.5425V37.6293H98.682V38.2687H94.8438V32.8672Z" fill="#F0F2F5"/>
<path fill-rule="evenodd" clip-rule="evenodd" d="M101.257 32.8672H103.999C104.38 32.8672 104.702 32.9907 104.969 33.2357C105.232 33.4803 105.392 33.8229 105.449 34.2577C105.449 34.3482 105.441 34.4432 105.431 34.5448C105.423 34.6472 105.402 34.7485 105.372 34.8518C105.328 34.9886 105.254 35.1249 105.151 35.2547C105.049 35.3833 104.897 35.4985 104.692 35.5972C104.962 35.727 105.137 35.9042 105.217 36.1162C105.29 36.3347 105.332 36.5518 105.336 36.7797V36.8281V36.8765V36.9678V37.0691C105.332 37.2785 105.341 37.4757 105.362 37.6629C105.384 37.8459 105.469 37.9876 105.625 38.0942V38.2687H104.752C104.716 38.1719 104.692 38.0732 104.675 37.9662C104.66 37.8669 104.644 37.7591 104.64 37.6521C104.637 37.602 104.631 37.5471 104.631 37.4942C104.627 37.441 104.627 37.3872 104.627 37.3368V37.3013V37.2574C104.617 36.9467 104.581 36.6599 104.5 36.4113C104.427 36.1583 104.179 36.0047 103.762 35.9426H101.962V38.2687H101.257V32.8672ZM103.821 35.2993C103.837 35.3079 103.85 35.3084 103.867 35.3084H103.913C104.137 35.3084 104.326 35.2145 104.479 35.0273C104.637 34.839 104.716 34.6298 104.723 34.4059V34.3988V34.3849V34.3758V34.363C104.716 34.1621 104.631 33.972 104.47 33.8002C104.306 33.6246 104.029 33.525 103.645 33.4994H101.962V35.2993H103.821Z" fill="#F0F2F5"/>
<path fill-rule="evenodd" clip-rule="evenodd" d="M108.436 36.5263C108.436 36.9676 108.582 37.2877 108.876 37.4994C109.165 37.7105 109.491 37.8212 109.846 37.8348H109.874H109.895C110.222 37.8348 110.506 37.7617 110.773 37.6183C111.035 37.4729 111.187 37.2629 111.226 36.9963C111.231 36.9741 111.234 36.9539 111.234 36.9394V36.8819C111.234 36.5357 111.089 36.3038 110.805 36.1837C110.515 36.0614 110.182 35.9689 109.816 35.896C109.771 35.8821 109.73 35.8761 109.693 35.8659C109.651 35.8605 109.612 35.8531 109.572 35.8403C109.134 35.7481 108.74 35.5998 108.378 35.3961C108.026 35.1953 107.866 34.7961 107.91 34.2028C107.938 33.823 108.116 33.4941 108.436 33.2161C108.756 32.9429 109.219 32.8032 109.831 32.8032C110.441 32.8032 110.929 32.9429 111.298 33.2243C111.663 33.5049 111.831 33.9115 111.803 34.4287H111.109V34.4134V34.3846V34.3673V34.3528C111.109 34.0449 110.983 33.813 110.722 33.6466C110.461 33.4875 110.18 33.3999 109.871 33.3891H109.85H109.831C109.522 33.3891 109.25 33.4639 108.999 33.6164C108.751 33.7652 108.62 33.9954 108.608 34.3189C108.645 34.5795 108.794 34.763 109.053 34.872C109.309 34.9767 109.612 35.0655 109.95 35.1386C110.013 35.1568 110.072 35.1679 110.134 35.1796C110.195 35.1981 110.262 35.2126 110.326 35.2271C110.723 35.3187 111.096 35.463 111.436 35.6513C111.78 35.8403 111.982 36.1737 112.037 36.648C112.067 37.2319 111.858 37.6741 111.402 37.9856C110.952 38.2906 110.448 38.4471 109.901 38.4579H109.886H109.874C109.331 38.4579 108.837 38.3006 108.386 37.9856C107.933 37.6741 107.719 37.1861 107.731 36.5263H108.436Z" fill="#F0F2F5"/>
<path fill-rule="evenodd" clip-rule="evenodd" d="M114.496 32.8672H115.195V38.269H114.496V32.8672Z" fill="#F0F2F5"/>
<path fill-rule="evenodd" clip-rule="evenodd" d="M119.236 33.4408H117.432V32.8672H121.682V33.4408H119.991V38.2687H119.236V33.4408Z" fill="#F0F2F5"/>
<path fill-rule="evenodd" clip-rule="evenodd" d="M124.841 32.8672H125.711L127.683 38.2687H126.873L126.289 36.6972H124.253L123.73 38.2687H122.92L124.841 32.8672ZM126.061 36.0596L125.306 33.7936L124.423 36.0596H126.061Z" fill="#F0F2F5"/>
<path fill-rule="evenodd" clip-rule="evenodd" d="M130.266 36.5263C130.266 36.9676 130.414 37.2877 130.705 37.4994C131 37.7105 131.323 37.8212 131.676 37.8348H131.695H131.727C132.049 37.8348 132.341 37.7617 132.604 37.6183C132.871 37.4729 133.02 37.2629 133.058 36.9963C133.063 36.9741 133.063 36.9539 133.063 36.9394V36.8819C133.063 36.5357 132.924 36.3038 132.632 36.1837C132.346 36.0614 132.017 35.9689 131.648 35.896C131.605 35.8821 131.559 35.8761 131.523 35.8659C131.48 35.8605 131.441 35.8531 131.401 35.8403C130.968 35.7481 130.568 35.5998 130.212 35.3961C129.855 35.1953 129.697 34.7961 129.744 34.2028C129.773 33.823 129.943 33.4941 130.266 33.2161C130.587 32.9429 131.051 32.8032 131.66 32.8032C132.273 32.8032 132.76 32.9429 133.133 33.2243C133.498 33.5049 133.667 33.9115 133.636 34.4287H132.94V34.4134V34.3846V34.3673V34.3528C132.94 34.0449 132.812 33.813 132.552 33.6466C132.294 33.4875 132.008 33.3999 131.701 33.3891H131.679H131.656C131.352 33.3891 131.08 33.4639 130.831 33.6164C130.583 33.7652 130.449 33.9954 130.435 34.3189C130.476 34.5795 130.625 34.763 130.885 34.872C131.139 34.9767 131.438 35.0655 131.779 35.1386C131.84 35.1568 131.899 35.1679 131.965 35.1796C132.03 35.1981 132.093 35.2126 132.154 35.2271C132.553 35.3187 132.924 35.463 133.27 35.6513C133.613 35.8403 133.813 36.1737 133.868 36.648C133.904 37.2319 133.687 37.6741 133.233 37.9856C132.782 38.2906 132.278 38.4471 131.727 38.4579H131.715H131.706C131.164 38.4579 130.666 38.3006 130.217 37.9856C129.767 37.6741 129.554 37.1861 129.564 36.5263H130.266Z" fill="#F0F2F5"/>
<path fill-rule="evenodd" clip-rule="evenodd" d="M71.1552 42.5024H72.1982L73.7162 47.0378L75.231 42.5024H76.2781V47.9076H75.515V43.6036L74.063 47.9076H73.3671L71.9134 43.6636V47.9076H71.1552V42.5024Z" fill="#F0F2F5"/>
<path fill-rule="evenodd" clip-rule="evenodd" d="M79.3192 42.5024H80.072V46.3342C80.072 46.7271 80.21 47.0168 80.486 47.2216C80.7609 47.418 81.0718 47.5212 81.3988 47.5212C81.7368 47.5212 82.0412 47.4234 82.3206 47.2233C82.6057 47.0279 82.7511 46.7283 82.7511 46.3342V42.5024H83.504V46.3342C83.504 46.8862 83.2929 47.3138 82.857 47.6154C82.4313 47.9179 81.9542 48.0692 81.436 48.0786H81.4181H81.3897C80.8991 48.0786 80.4467 47.9352 80.0236 47.6609C79.6054 47.3849 79.3712 46.9374 79.3192 46.3342V42.5024Z" fill="#F0F2F5"/>
<path fill-rule="evenodd" clip-rule="evenodd" d="M86.5938 42.5024H87.3478V47.2663H89.9737V47.9076H86.5938V42.5024Z" fill="#F0F2F5"/>
<path fill-rule="evenodd" clip-rule="evenodd" d="M93.589 43.0795H91.7845V42.502H96.0331V43.0795H94.3407V47.9074H93.589V43.0795Z" fill="#F0F2F5"/>
<path fill-rule="evenodd" clip-rule="evenodd" d="M98.8875 42.5024H99.5891V47.9079H98.8875V42.5024Z" fill="#F0F2F5"/>
<path fill-rule="evenodd" clip-rule="evenodd" d="M102.809 42.5024H103.85L105.362 47.0378L106.878 42.5024H107.929V47.9076H107.166V43.6036L105.712 47.9076H105.019L103.563 43.6636V47.9076H102.809V42.5024Z" fill="#F0F2F5"/>
<path fill-rule="evenodd" clip-rule="evenodd" d="M111.077 42.5024H114.804V43.0798H111.781V44.8305H114.687V45.4664H111.781V47.2663H114.922V47.9076H111.077V42.5024Z" fill="#F0F2F5"/>
<path fill-rule="evenodd" clip-rule="evenodd" d="M120.168 42.5024C120.233 42.5024 120.294 42.5061 120.359 42.517C120.422 42.5207 120.485 42.5309 120.55 42.5397C120.994 42.6342 121.401 42.886 121.766 43.3017C122.135 43.7148 122.317 44.3015 122.317 45.0606C122.317 45.1813 122.308 45.3056 122.306 45.4288C122.291 45.5577 122.277 45.6829 122.256 45.8109C122.173 46.3373 121.974 46.8159 121.659 47.2572C121.337 47.6902 120.84 47.9076 120.168 47.9076H118.009V42.5024H120.168ZM120.34 47.2122C120.725 47.2122 121.025 47.0096 121.23 46.6011C121.432 46.1854 121.533 45.7304 121.533 45.2242V45.2123V45.1574C121.523 44.6532 121.401 44.1863 121.175 43.7689C120.942 43.3466 120.583 43.1372 120.109 43.1372H118.714V47.2122H120.34Z" fill="#F0F2F5"/>
<path fill-rule="evenodd" clip-rule="evenodd" d="M125.347 42.5024H126.052V47.9079H125.347V42.5024Z" fill="#F0F2F5"/>
<path fill-rule="evenodd" clip-rule="evenodd" d="M130.726 42.5024H131.593L133.567 47.9076H132.755L132.172 46.3342H130.139L129.615 47.9076H128.806L130.726 42.5024ZM131.943 45.6994L131.191 43.4326L130.31 45.6994H131.943Z" fill="#F0F2F5"/>
<path fill-rule="evenodd" clip-rule="evenodd" d="M71.1552 52.1392H72.0312L74.7064 56.4984V52.1392H75.4043V57.5509H74.584L71.854 53.2391V57.5509H71.1552V52.1392Z" fill="#F0F2F5"/>
<path fill-rule="evenodd" clip-rule="evenodd" d="M78.7922 52.1392H79.5442V55.9757C79.5442 56.365 79.6847 56.6572 79.9644 56.8546C80.2396 57.0555 80.5463 57.1562 80.8763 57.1562C81.2107 57.1562 81.5165 57.0592 81.7974 56.8592C82.0796 56.6629 82.2202 56.3675 82.2202 55.9757V52.1392H82.9816V55.9757C82.9816 56.5257 82.7648 56.9551 82.3326 57.253C81.9024 57.5534 81.428 57.7134 80.9136 57.719H80.8843H80.8681C80.3747 57.719 79.9215 57.5762 79.5021 57.2996C79.0827 57.0208 78.8442 56.5795 78.7922 55.9757V52.1392Z" fill="#F0F2F5"/>
<path fill-rule="evenodd" clip-rule="evenodd" d="M86.893 55.807C86.893 56.2426 87.0353 56.5698 87.3323 56.7735C87.6265 56.9855 87.9472 57.0953 88.3054 57.1144H88.3239H88.3649C88.6793 57.1144 88.9681 57.0404 89.2293 56.8962C89.4942 56.7491 89.6475 56.5442 89.6834 56.2719C89.6905 56.2545 89.6922 56.2346 89.6922 56.2133V56.1612C89.6922 55.8132 89.5488 55.5811 89.2574 55.4633C88.9715 55.3389 88.6397 55.2459 88.2707 55.1708C88.2294 55.16 88.1865 55.1517 88.15 55.1409C88.1099 55.1381 88.0687 55.1261 88.0285 55.1198C87.5972 55.0265 87.196 54.874 86.8372 54.6768C86.479 54.4711 86.3217 54.0745 86.3658 53.4795C86.3948 53.1006 86.5695 52.7725 86.893 52.4948C87.2128 52.2208 87.6757 52.0791 88.2863 52.0791C88.9003 52.0791 89.3863 52.2208 89.7545 52.5067C90.1227 52.7827 90.2908 53.1836 90.2627 53.7063H89.5653V53.6935V53.6614V53.646V53.6266C89.5653 53.3211 89.4375 53.0906 89.1815 52.9224C88.9177 52.7617 88.636 52.6775 88.3245 52.6658H88.3054H88.2863C87.9782 52.6658 87.7079 52.7423 87.4566 52.8923C87.21 53.0431 87.0765 53.2761 87.0609 53.5968C87.1021 53.8546 87.2529 54.0406 87.5076 54.1505C87.7665 54.25 88.0687 54.3414 88.4053 54.4154C88.4662 54.431 88.5256 54.4464 88.5896 54.4592C88.6528 54.474 88.7194 54.493 88.7825 54.505C89.1843 54.598 89.5499 54.7426 89.8933 54.9269C90.2351 55.1199 90.4368 55.4488 90.4954 55.9248C90.5321 56.5115 90.3164 56.9553 89.8595 57.2604C89.4082 57.562 88.9046 57.7227 88.3504 57.731H88.3438H88.3347C87.793 57.731 87.2947 57.5773 86.8426 57.2604C86.3931 56.9553 86.1794 56.4674 86.1902 55.807H86.893Z" fill="#F0F2F5"/>
<path fill-rule="evenodd" clip-rule="evenodd" d="M95.1083 52.1392H95.9801L97.9545 57.5509H97.143L96.5603 55.9757H94.5253L94.0018 57.5509H93.1898L95.1083 52.1392ZM96.3281 55.3395L95.5778 53.0701L94.6963 55.3395H96.3281Z" fill="#F0F2F5"/>
<path fill-rule="evenodd" clip-rule="evenodd" d="M100.88 52.1392H101.756L104.427 56.4984V52.1392H105.129V57.5509H104.309L101.574 53.2391V57.5509H100.88V52.1392Z" fill="#F0F2F5"/>
<path fill-rule="evenodd" clip-rule="evenodd" d="M109.854 52.715H108.049V52.1392H112.298V52.715H110.606V57.5509H109.854V52.715Z" fill="#F0F2F5"/>
<path fill-rule="evenodd" clip-rule="evenodd" d="M116.268 52.1392H117.144L119.111 57.5509H118.295L117.715 55.9757H115.685L115.16 57.5509H114.347L116.268 52.1392ZM117.489 55.3395L116.734 53.0701L115.856 55.3395H117.489Z" fill="#F0F2F5"/>
<path fill-rule="evenodd" clip-rule="evenodd" d="M122.154 52.1392H124.89C125.275 52.1392 125.595 52.2672 125.861 52.5108C126.127 52.7529 126.284 53.1012 126.338 53.5379C126.338 53.6272 126.334 53.7197 126.323 53.8204C126.317 53.9226 126.296 54.0279 126.268 54.1263C126.222 54.266 126.148 54.3995 126.046 54.532C125.942 54.6635 125.791 54.7796 125.589 54.8738C125.857 55.0081 126.033 55.1833 126.108 55.3944C126.182 55.6101 126.225 55.8292 126.23 56.056V56.1035V56.151V56.2423V56.3476C126.225 56.5565 126.236 56.7539 126.255 56.9386C126.277 57.1215 126.365 57.2675 126.518 57.3728V57.5509H125.644C125.615 57.4476 125.587 57.3506 125.57 57.241C125.551 57.1377 125.537 57.0345 125.534 56.9278C125.532 56.8774 125.525 56.8279 125.525 56.7713C125.523 56.7192 125.523 56.6688 125.523 56.6162V56.5732V56.5348C125.511 56.2196 125.469 55.9382 125.393 55.6869C125.323 55.4374 125.074 55.2795 124.657 55.2209H122.855V57.5509H122.154V52.1392ZM124.713 54.5813C124.73 54.5813 124.746 54.5858 124.761 54.5858H124.8C125.031 54.5858 125.215 54.4919 125.375 54.3036C125.532 54.1152 125.615 53.9126 125.617 53.685V53.6759V53.6659V53.656V53.6429C125.615 53.4358 125.525 53.2474 125.361 53.0758C125.196 52.9011 124.919 52.805 124.538 52.7779H122.855V54.5813H124.713Z" fill="#F0F2F5"/>
<path fill-rule="evenodd" clip-rule="evenodd" d="M131.128 52.1392H132.003L133.974 57.5509H133.163L132.578 55.9757H130.544L130.018 57.5509H129.209L131.128 52.1392ZM132.349 55.3395L131.593 53.0701L130.718 55.3395H132.349Z" fill="#F0F2F5"/>
<path d="M240.679 42.5034V20.3583H247.143V28.6112H254.777V20.3583H261.242V42.5034H254.777V34.2506H247.143V42.5034H240.679ZM262.634 42.5034V20.3583H268.927L274.429 31.6028L279.896 20.3583H286.154V42.5034H279.69V31.4309L276.148 38.7209H272.675L269.099 31.4309V42.5034H262.634ZM287.544 42.5034V20.3583H294.009V42.5034H287.544ZM295.395 42.5034V20.3583H312.039V25.1725H301.86V28.9894H310.732V33.8723H301.86V42.5034H295.395Z" fill="#F0F2F5"/>
<path d="M248.162 61.7344C245.807 61.7344 243.939 61.1677 242.558 60.0345C241.194 58.8835 240.512 57.219 240.512 55.0411V44.3637H244.098V54.7755C244.098 56.0858 244.452 57.0685 245.161 57.7237C245.869 58.3612 246.869 58.6799 248.162 58.6799C249.455 58.6799 250.446 58.3612 251.137 57.7237C251.845 57.0685 252.199 56.0858 252.199 54.7755V44.3637H255.785V55.0411C255.785 57.219 255.103 58.8835 253.74 60.0345C252.376 61.1677 250.517 61.7344 248.162 61.7344ZM257.344 61.4688V44.3637H260.956L265.976 54.6427L270.996 44.3637H274.582V61.4688H270.996V50.3398L267.012 58.5205H264.941L260.93 50.3398V61.4688H257.344ZM276.274 61.4688V44.3637H279.381L287.482 55.7582V44.3637H291.068V61.4688H287.961L279.86 50.0742V61.4688H276.274Z" fill="#F0F2F5"/>
<path d="M224.833 5.85793V4.51025H204.855V4.55911C201.874 4.77797 198.989 5.70897 196.444 7.27364C193.899 8.83832 191.767 10.9908 190.23 13.5498C189.093 1.19159 170.297 2.0002 170.297 14.4831C170.275 20.1989 175.198 24.8181 180.91 24.434C177.943 25.85 175.403 28.0237 173.548 30.735C171.692 33.4462 170.588 36.5988 170.346 39.8734H170.297V59.819C177.417 60.2335 184.12 56.6486 187.576 50.8553V59.819C197.832 60.4558 206.812 52.7218 207.506 42.5687H207.554V42.5199C217.724 41.8359 225.475 32.8621 224.833 22.6231H214.265C217.429 21.1045 220.098 18.7256 221.968 15.7599C223.837 12.7942 224.831 9.36205 224.833 5.85793ZM190.41 39.2029C191.219 31.9473 197.565 25.8693 204.863 25.3757V39.8734H190.333C190.351 39.6493 190.377 39.4253 190.402 39.2029H190.41ZM204.855 7.26289V21.7606H190.333C190.656 18.0238 192.29 14.5207 194.946 11.8686C197.603 9.21644 201.112 7.58542 204.855 7.26289ZM172.996 14.4831C173.165 4.91961 187.405 4.91961 187.576 14.4831C187.403 24.0516 173.165 24.0516 172.996 14.4831ZM188.926 25.3184H196.531C191.448 28.381 188.001 33.9486 187.623 39.8734H173.054C173.397 35.9051 175.217 32.2092 178.155 29.5148C181.093 26.8203 184.936 25.3231 188.926 25.3184ZM172.996 57.0698V42.5687H187.518C187.195 46.3058 185.561 49.8091 182.905 52.4617C180.248 55.1143 176.74 56.7462 172.996 57.0698ZM190.275 57.0698V42.5687H204.797C204.474 46.3059 202.841 49.8094 200.184 52.4621C197.528 55.1148 194.019 56.7465 190.275 57.0698ZM207.554 39.8195V25.3184H222.076C221.753 29.0554 220.12 32.5587 217.463 35.2111C214.807 37.8635 211.298 39.4949 207.554 39.8178V39.8195ZM207.554 21.705V7.20561H222.076C221.753 10.9424 220.119 14.4455 217.463 17.0976C214.806 19.7497 211.297 21.3807 207.554 21.7033V21.705Z" fill="#F0F2F5"/>
<g clip-path="url(#clip0_20_5528)">
<path d="M394.454 55.2139H394.29V55.3786H394.454V55.2139Z" fill="#E0E4EB"/>
<path d="M400.379 52.333C400.379 53.5284 399.904 54.6748 399.059 55.52C398.214 56.3653 397.067 56.8402 395.872 56.8402H393.651L396.255 52.333H400.379Z" fill="#E0E4EB"/>
<path d="M373.611 23.0802L366.766 18.3098C366.687 18.252 366.608 18.1967 366.529 18.139L365.768 17.5854L373.611 23.0802Z" fill="#F0F2F5"/>
<path d="M383.315 18.2662L383.3 18.2775L383.266 18.2314L383.315 18.2662Z" fill="#F0F2F5"/>
<path d="M390.312 23.3275H390.042L390.134 23.1992L390.222 23.2626L390.312 23.3275Z" fill="#F0F2F5"/>
<path d="M408.789 23.3288H408.755L408.777 23.3125L408.789 23.3288Z" fill="#F0F2F5"/>
<path d="M390.46 47.5693L390.479 47.6206L390.496 47.5897C390.484 47.5832 390.473 47.5758 390.46 47.5693Z" fill="#F0F2F5"/>
<path d="M421.025 30.2268L411.9 17.3142H406.334L399.864 8.15918H373.504L373.388 8.24616L369.066 11.5024L368.759 11.7396L368.259 12.116L366.844 13.1795H366.837L366.771 13.2277L366.635 13.3305L364.48 14.9586L364.356 15.0551L363.328 15.8245L365.384 17.3142L365.765 17.5894L373.606 23.0802L373.861 23.2629L373.952 23.3277H390.042L390.134 23.1996L390.221 23.2629L390.312 23.3277H398.335L397.374 24.0069L398.463 23.2629H408.786V23.3277L413.727 30.3201L408.629 37.3679H376.248L372.037 44.6592C371.24 46.0407 371.025 47.6822 371.438 49.2227C371.851 50.7632 372.859 52.0766 374.24 52.874L379.72 43.3853H411.703L413.68 40.651L421.151 30.3209L421.025 30.2268ZM383.266 18.2315L383.314 18.2655L383.299 18.2765L383.266 18.2315ZM374.957 14.9824L376.104 14.1727H396.75L398.969 17.3142H375.863L375.207 16.8034L373.998 15.8624L373.863 15.7565L374.957 14.9824Z" fill="#F0F2F5"/>
<path d="M383.315 18.2662L383.3 18.2775L383.266 18.2314L383.315 18.2662Z" fill="#E0E4EB"/>
<path d="M390.312 23.3275H390.042L390.134 23.1992L390.222 23.2626L390.312 23.3275Z" fill="#E0E4EB"/>
<path d="M394.454 55.2139H394.29V55.3786H394.454V55.2139Z" fill="#E0E4EB"/>
<path d="M393.001 46.9819L384.591 61.5503C385.275 61.9458 386.03 62.2026 386.813 62.3059C387.597 62.4093 388.393 62.3572 389.156 62.1527C389.919 61.9482 390.634 61.5952 391.261 61.1139C391.887 60.6327 392.413 60.0326 392.807 59.3481L394.254 56.8407L396.858 52.3336L397.344 51.4907H397.849C399.044 51.4907 400.19 51.0158 401.036 50.1705C401.881 49.3253 402.356 48.1789 402.356 46.9835L393.001 46.9819ZM394.452 55.3787H394.294V55.2142H394.452V55.3787Z" fill="#E0E4EB"/>
<path d="M394.454 55.2139H394.29V55.3786H394.454V55.2139Z" fill="#E0E4EB"/>
<path d="M406.334 17.3136H398.969L396.749 14.172H376.104L374.957 14.9817L373.863 15.7558L373.998 15.8618L375.207 16.8027L375.862 17.3136H365.389L363.331 15.8238L364.352 15.0544L364.48 14.958L366.635 13.333L366.771 13.2302L366.837 13.182L366.844 13.178L368.259 12.1114L368.758 11.735L369.065 11.5017L373.388 8.24549L373.504 8.15771H399.864L406.334 17.3136Z" fill="url(#paint0_linear_20_5528)"/>
<path d="M408.786 23.2622V23.327L408.775 23.312L408.754 23.327L399.599 29.7984L396.436 32.033L396.428 31.976L394.245 33.5211H372.043L359.229 55.7121H378.861L382.279 49.7895C383.072 48.4131 384.378 47.4067 385.911 46.9903C387.444 46.5739 389.08 46.7815 390.46 47.5676L390.478 47.6174L383.935 58.9533V58.9928L382.354 61.7272H348.812L352.285 55.7121L367.028 30.1795L368.57 27.5092H392.421L397.374 24.0094L398.463 23.2654L408.786 23.2622Z" fill="#F0F2F5"/>
<path d="M390.312 23.3275H390.042L390.134 23.1992L390.222 23.2626L390.312 23.3275Z" fill="#F0F2F5"/>
</g>
<path d="M442.546 24.1197C443.793 24.1197 444.859 24.333 445.746 24.7596C446.632 25.1699 447.313 25.7688 447.788 26.5564C448.281 27.3277 448.527 28.263 448.527 29.3624C448.527 30.4618 448.281 31.4054 447.788 32.193C447.313 32.9642 446.632 33.5632 445.746 33.9898C444.859 34.4 443.793 34.6051 442.546 34.6051H439.124V40.3647H435.728V24.1197H442.546ZM442.029 31.9222C443.046 31.9222 443.809 31.7089 444.318 31.2823C444.827 30.8392 445.081 30.1993 445.081 29.3624C445.081 28.5091 444.827 27.8692 444.318 27.4425C443.809 27.0159 443.046 26.8026 442.029 26.8026H439.124V31.9222H442.029ZM463.047 40.3647H459.527L458.173 36.4019H451.946L450.592 40.3647H447.122L453.054 24.1197H457.115L463.047 40.3647ZM452.709 33.8913H457.41L455.047 26.8026L452.709 33.8913ZM470.502 24.1197C473.046 24.1197 475.015 24.8253 476.41 26.2365C477.804 27.6312 478.502 29.6332 478.502 32.2422C478.502 34.8349 477.804 36.8368 476.41 38.248C475.015 39.6592 473.046 40.3647 470.502 40.3647H464.226V24.1197H470.502ZM470.33 37.6572C471.872 37.6572 473.029 37.1978 473.801 36.2789C474.588 35.3435 474.982 33.998 474.982 32.2422C474.982 30.4864 474.588 29.1491 473.801 28.2302C473.029 27.2949 471.872 26.8272 470.33 26.8272H467.623V37.6572H470.33ZM484.083 24.1197V40.3647H480.686V24.1197H484.083ZM496.765 24.1197V40.3647H493.368V24.1197H496.765ZM511.916 26.8518H503.154V30.9869H510.07V33.719H503.154V40.3647H499.757V24.1197H511.916V26.8518ZM446.544 45.4404V54.1748C446.544 55.961 446.073 57.3113 445.13 58.2255C444.188 59.1256 442.838 59.5757 441.079 59.5757C439.335 59.5757 437.985 59.1256 437.029 58.2255C436.086 57.3113 435.615 55.961 435.615 54.1748V45.4404H437.303V53.7528C437.303 55.2015 437.605 56.2704 438.21 56.9596C438.829 57.6488 439.785 57.9934 441.079 57.9934C442.373 57.9934 443.323 57.6488 443.928 56.9596C444.546 56.2704 444.856 55.2015 444.856 53.7528V45.4404H446.544ZM463.232 45.4404V59.3647H461.629V50.6093L461.818 46.9383H461.797L457.219 59.3647H455.785L451.206 46.9383H451.185L451.375 50.6093V59.3647H449.772V45.4404H452.367L455.426 53.9005L456.481 57.3816H456.523L457.599 53.9216L460.637 45.4404H463.232ZM477.652 45.4404V59.3647H475.564L469.741 50.0397L468.264 47.4236H468.243L468.327 49.5333V59.3647H466.724V45.4404H468.813L474.614 54.7233L476.112 57.4027H476.133L476.049 55.2718V45.4404H477.652ZM486.581 59.3647V57.9934C487.973 56.9667 489.134 56.0665 490.062 55.2929C491.004 54.5194 491.757 53.8161 492.319 53.1832C492.882 52.5503 493.283 51.9525 493.522 51.3899C493.761 50.8132 493.881 50.2155 493.881 49.5966C493.881 48.7668 493.613 48.0987 493.079 47.5924C492.558 47.0719 491.841 46.8117 490.927 46.8117C489.97 46.8117 489.204 47.1282 488.627 47.7611C488.051 48.38 487.713 49.2098 487.615 50.2506L486.138 49.3645C486.264 48.5488 486.525 47.8315 486.918 47.2126C487.326 46.5937 487.868 46.1085 488.543 45.7569C489.232 45.4052 490.048 45.2294 490.99 45.2294C491.707 45.2294 492.347 45.3349 492.91 45.5459C493.487 45.7569 493.979 46.0593 494.387 46.4531C494.795 46.8328 495.104 47.29 495.315 47.8244C495.54 48.3589 495.653 48.9496 495.653 49.5966C495.653 50.4686 495.442 51.3266 495.02 52.1705C494.598 53.0003 493.902 53.8724 492.931 54.7866C491.961 55.7008 490.646 56.7135 488.986 57.8246V57.8457C489.141 57.8317 489.352 57.8246 489.619 57.8246C489.9 57.8106 490.174 57.8035 490.442 57.8035C490.723 57.7895 490.934 57.7824 491.075 57.7824H495.948V59.3647H486.581ZM502.826 59.5757C501.251 59.5757 499.992 58.9639 499.05 57.7402C498.107 56.5166 497.636 54.7374 497.636 52.4026C497.636 50.0678 498.107 48.2886 499.05 47.0649C499.992 45.8413 501.251 45.2294 502.826 45.2294C504.415 45.2294 505.674 45.8413 506.602 47.0649C507.545 48.2886 508.016 50.0678 508.016 52.4026C508.016 54.7374 507.545 56.5166 506.602 57.7402C505.674 58.9639 504.415 59.5757 502.826 59.5757ZM502.826 58.0567C503.571 58.0567 504.197 57.8457 504.704 57.4238C505.224 56.9878 505.611 56.3478 505.864 55.5039C506.131 54.66 506.265 53.6262 506.265 52.4026C506.265 51.1789 506.131 50.1451 505.864 49.3012C505.611 48.4574 505.224 47.8244 504.704 47.4025C504.197 46.9665 503.571 46.7485 502.826 46.7485C502.081 46.7485 501.448 46.9665 500.927 47.4025C500.421 47.8244 500.034 48.4574 499.767 49.3012C499.514 50.1451 499.387 51.1789 499.387 52.4026C499.387 53.6262 499.514 54.66 499.767 55.5039C500.034 56.3478 500.421 56.9878 500.927 57.4238C501.448 57.8457 502.081 58.0567 502.826 58.0567ZM509.895 59.3647V57.9934C511.288 56.9667 512.448 56.0665 513.376 55.2929C514.319 54.5194 515.071 53.8161 515.634 53.1832C516.196 52.5503 516.597 51.9525 516.836 51.3899C517.075 50.8132 517.195 50.2155 517.195 49.5966C517.195 48.7668 516.928 48.0987 516.393 47.5924C515.873 47.0719 515.155 46.8117 514.241 46.8117C513.285 46.8117 512.518 47.1282 511.942 47.7611C511.365 48.38 511.027 49.2098 510.929 50.2506L509.452 49.3645C509.579 48.5488 509.839 47.8315 510.233 47.2126C510.641 46.5937 511.182 46.1085 511.857 45.7569C512.546 45.4052 513.362 45.2294 514.305 45.2294C515.022 45.2294 515.662 45.3349 516.224 45.5459C516.801 45.7569 517.293 46.0593 517.701 46.4531C518.109 46.8328 518.419 47.29 518.63 47.8244C518.855 48.3589 518.967 48.9496 518.967 49.5966C518.967 50.4686 518.756 51.3266 518.334 52.1705C517.912 53.0003 517.216 53.8724 516.245 54.7866C515.275 55.7008 513.96 56.7135 512.3 57.8246V57.8457C512.455 57.8317 512.666 57.8246 512.933 57.8246C513.214 57.8106 513.489 57.8035 513.756 57.8035C514.037 57.7895 514.248 57.7824 514.389 57.7824H519.262V59.3647H509.895ZM525.697 59.5757C524.46 59.5757 523.363 59.2874 522.406 58.7107C521.464 58.12 520.824 57.3113 520.486 56.2845L522.174 55.4195C522.343 55.9399 522.575 56.397 522.87 56.7909C523.166 57.1706 523.552 57.466 524.031 57.6769C524.523 57.8879 525.135 57.9934 525.866 57.9934C526.485 57.9934 527.005 57.8809 527.427 57.6559C527.849 57.4308 528.173 57.1284 528.398 56.7487C528.623 56.3548 528.735 55.9048 528.735 55.3984C528.735 54.8921 528.637 54.4701 528.44 54.1326C528.257 53.795 527.962 53.5489 527.554 53.3942C527.146 53.2254 526.612 53.141 525.951 53.141C525.796 53.141 525.627 53.148 525.444 53.1621C525.261 53.1621 525.071 53.1762 524.875 53.2043V51.5165C525.001 51.5305 525.121 51.5376 525.233 51.5376C525.36 51.5376 525.472 51.5376 525.571 51.5376C526.597 51.5376 527.329 51.3407 527.765 50.9469C528.201 50.539 528.419 49.906 528.419 49.0481C528.419 48.3167 528.194 47.7611 527.744 47.3814C527.294 47.0016 526.654 46.8117 525.824 46.8117C524.938 46.8117 524.263 47.0087 523.799 47.4025C523.334 47.7822 522.969 48.3026 522.701 48.9637L521.098 48.2042C521.323 47.6135 521.661 47.093 522.111 46.643C522.561 46.1929 523.102 45.8413 523.735 45.5881C524.382 45.3349 525.093 45.2083 525.866 45.2083C526.837 45.2083 527.638 45.3771 528.271 45.7147C528.904 46.0382 529.375 46.4742 529.685 47.0227C530.008 47.5713 530.17 48.1761 530.17 48.8371C530.17 49.3434 530.1 49.8006 529.959 50.2084C529.818 50.6023 529.621 50.9469 529.368 51.2422C529.129 51.5376 528.855 51.7767 528.545 51.9595C528.236 52.1283 527.906 52.2408 527.554 52.2971V52.3393C528.018 52.3534 528.426 52.4448 528.778 52.6136C529.143 52.7823 529.453 53.0074 529.706 53.2887C529.959 53.57 530.149 53.8935 530.275 54.2592C530.416 54.6108 530.486 54.9835 530.486 55.3773C530.486 56.1931 530.283 56.9174 529.875 57.5504C529.481 58.1833 528.925 58.6826 528.208 59.0483C527.491 59.3999 526.654 59.5757 525.697 59.5757Z" fill="white"/>
<defs>
<linearGradient id="paint0_linear_20_5528" x1="374.381" y1="4.77419" x2="396.627" y2="27.0205" gradientUnits="userSpaceOnUse">
<stop stop-color="#F0F2F5"/>
</linearGradient>
<clipPath id="clip0_20_5528">
<rect width="76.1594" height="54.5062" fill="white" transform="translate(346.252 7.8584)"/>
</clipPath>
</defs>
</svg>
