<svg width="173" height="41" viewBox="0 0 173 41" fill="none" xmlns="http://www.w3.org/2000/svg">
<path d="M89.4996 40.1694L104.118 20.1461L90.0524 0.614197H103.811L111.058 10.9944L118.368 0.614197H132.126L118.06 20.1461L132.679 40.1694H118.736L111.058 29.4207L103.442 40.1694H89.4996Z" fill="#FAFAFF"/>
<path d="M132.703 40.1694V0.614197H144.25V40.1694H132.703Z" fill="#FAFAFF"/>
<path d="M146.727 40.1694V0.614197H158.274V40.1694H146.727Z" fill="#FAFAFF"/>
<path d="M160.751 40.1694V0.614197H172.298V40.1694H160.751Z" fill="#FAFAFF"/>
<path d="M97.7177 26.4057V21.4974C97.7177 17.7302 96.8373 14.9458 95.0765 13.1441C93.3158 11.3424 90.5109 10.4416 86.6618 10.4416C84.6554 10.4416 82.7309 10.7896 80.8883 11.4858C79.0866 12.1409 77.592 12.9189 76.4045 13.8198L76.0974 11.0558H68.4198V40.1694H76.7116V19.5319C77.5715 18.672 78.6361 17.9555 79.9055 17.3822C81.2158 16.8089 82.5057 16.5223 83.775 16.5223C85.9453 16.5223 87.4194 16.9318 88.1974 17.7507C89.0163 18.5697 89.4258 19.9619 89.4258 21.9274V37.7635L97.7177 26.4057Z" fill="#FAFAFF"/>
<path d="M20.7848 40.7836C14.1513 40.7836 9.11477 39.0434 5.67518 35.5628C2.2356 32.0823 0.515808 27.2505 0.515808 21.0675C0.515808 14.5159 2.25607 9.37696 5.73661 5.65075C9.21714 1.88358 14.397 0 21.2762 0C23.6511 0 25.8008 0.143317 27.7254 0.42995C29.6499 0.675634 31.4721 1.08511 33.1919 1.65837V8.78322C31.4721 8.16901 29.6499 7.73907 27.7254 7.49338C25.8418 7.20675 23.8968 7.06343 21.8904 7.06343C17.1814 7.06343 13.8442 8.23043 11.8787 10.5644C9.91324 12.8575 8.93051 16.3585 8.93051 21.0675C8.93051 29.5436 12.9229 33.7816 20.9076 33.7816C22.2998 33.7816 23.6511 33.6793 24.9614 33.4745C26.3127 33.2288 27.5002 32.9217 28.5239 32.5532V23.34H19.3107V18.0578H35.5259V37.4055C34.1746 38.2654 32.291 39.0434 29.8751 39.7395C27.4592 40.4356 24.4291 40.7836 20.7848 40.7836Z" fill="#FAFAFF"/>
<path fill-rule="evenodd" clip-rule="evenodd" d="M53.3721 40.7836C48.3355 40.7836 44.3432 39.5347 41.3949 37.037C38.4467 34.4982 36.9726 30.6696 36.9726 25.5512C36.9726 20.9241 38.201 17.2593 40.6579 14.5568C43.1557 11.8133 46.8614 10.4416 51.7751 10.4416C56.2793 10.4416 59.7189 11.6291 62.0939 14.004C64.5098 16.338 65.7177 19.4091 65.7177 23.2172V28.4994H44.6503C45.1007 30.8334 46.1653 32.4304 47.8442 33.2903C49.5639 34.1502 51.9798 34.5801 55.0919 34.5801C56.6479 34.5801 58.2243 34.4368 59.8213 34.1502C61.4592 33.8635 62.8514 33.495 63.9979 33.0446V38.941C62.6467 39.5552 61.0702 40.0056 59.2685 40.2923C57.4668 40.6199 55.5013 40.7836 53.3721 40.7836ZM44.6503 23.4015H58.47V21.8045C58.47 20.1257 57.9786 18.8153 56.9959 17.8736C56.0132 16.8908 54.3548 16.3994 52.0208 16.3994C49.2773 16.3994 47.3528 16.9522 46.2472 18.0578C45.1826 19.1634 44.6503 20.9446 44.6503 23.4015Z" fill="#FAFAFF"/>
</svg>
