<svg width="512" height="512" viewBox="0 0 512 512" fill="none" xmlns="http://www.w3.org/2000/svg">
<rect width="512" height="512" fill="#F0F2F5"/>
<path d="M121.901 417.775V376.259H134.021V391.731H148.332V376.259H160.452V417.775H148.332V402.303H134.021V417.775H121.901ZM163.062 417.775V376.259H174.859L185.174 397.34L195.424 376.259H207.157V417.775H195.037V397.017L188.397 410.684H181.886L175.181 397.017V417.775H163.062ZM209.762 417.775V376.259H221.882V417.775H209.762ZM224.481 417.775V376.259H255.683V385.284H236.601V392.44H253.233V401.594H236.601V417.775H224.481ZM284.71 418.42C278.994 418.42 274.46 417.045 271.107 414.294C267.798 411.501 266.143 407.461 266.143 402.175V376.259H274.846V401.53C274.846 404.71 275.706 407.095 277.425 408.686C279.144 410.233 281.573 411.006 284.71 411.006C287.847 411.006 290.254 410.233 291.93 408.686C293.649 407.095 294.509 404.71 294.509 401.53V376.259H303.212V402.175C303.212 407.461 301.557 411.501 298.248 414.294C294.939 417.045 290.426 418.42 284.71 418.42ZM306.997 417.775V376.259H315.764L327.948 401.208L340.133 376.259H348.836V417.775H340.133V390.764L330.463 410.62H325.434L315.7 390.764V417.775H306.997ZM352.942 417.775V376.259H360.485L380.147 403.915V376.259H388.85V417.775H381.307L361.645 390.119V417.775H352.942Z" fill="#095797"/>
<path d="M132.237 457.86C128.41 457.86 125.546 456.859 123.645 454.858C121.744 452.832 120.793 449.705 120.793 445.478C120.793 441.075 121.744 437.886 123.645 435.909C125.546 433.933 128.41 432.945 132.237 432.945C136.09 432.945 138.954 433.933 140.83 435.909C142.731 437.886 143.682 441.075 143.682 445.478C143.682 449.705 142.731 452.832 140.83 454.858C138.954 456.859 136.09 457.86 132.237 457.86ZM132.237 454.408C134.764 454.408 136.615 453.72 137.791 452.344C138.991 450.943 139.592 448.654 139.592 445.478C139.592 442.126 138.991 439.787 137.791 438.461C136.615 437.11 134.764 436.435 132.237 436.435C129.736 436.435 127.885 437.11 126.684 438.461C125.508 439.787 124.92 442.126 124.92 445.478C124.92 448.654 125.508 450.943 126.684 452.344C127.885 453.72 129.736 454.408 132.237 454.408ZM150.634 457.485V442.889H148.045V439.699H150.634V437.523C150.634 435.747 151.122 434.321 152.097 433.245C153.098 432.145 154.574 431.594 156.525 431.594C157.25 431.594 157.913 431.657 158.514 431.782C159.114 431.882 159.664 432.032 160.165 432.232V435.159C159.389 434.884 158.601 434.746 157.801 434.746C156.625 434.746 155.812 434.959 155.362 435.384C154.911 435.809 154.686 436.535 154.686 437.56V439.699H159.339L159.151 442.889H154.686V457.485H150.634ZM164.529 457.485V442.889H161.94V439.699H164.529V437.861C164.529 436.635 164.816 435.559 165.392 434.634C165.992 433.683 166.818 432.945 167.868 432.42C168.944 431.87 170.195 431.594 171.62 431.594C172.496 431.594 173.321 431.657 174.097 431.782C174.872 431.882 175.51 432.032 176.011 432.232V435.272C175.685 435.122 175.21 435.009 174.585 434.934C173.959 434.859 173.371 434.821 172.821 434.821C171.37 434.821 170.295 435.072 169.594 435.572C168.919 436.072 168.581 436.86 168.581 437.936V439.699H178.6V457.485H174.51V442.889H168.581V457.485H164.529ZM193.956 457.86C190.829 457.86 188.466 457.072 186.865 455.496C185.264 453.895 184.463 451.594 184.463 448.592C184.463 445.465 185.339 443.139 187.09 441.613C188.866 440.087 191.23 439.324 194.181 439.324C195.407 439.324 196.433 439.412 197.258 439.587C198.109 439.762 198.922 440.037 199.697 440.412V443.451C198.396 442.801 196.82 442.476 194.969 442.476C192.918 442.476 191.342 442.939 190.242 443.864C189.141 444.765 188.591 446.341 188.591 448.592C188.591 450.718 189.078 452.282 190.054 453.282C191.03 454.258 192.643 454.746 194.894 454.746C196.67 454.746 198.284 454.408 199.735 453.732V456.847C198.909 457.172 198.021 457.422 197.071 457.597C196.145 457.772 195.107 457.86 193.956 457.86ZM206.362 435.985V432.608H210.827V435.985H206.362ZM206.7 457.485V442.814H203.998L204.374 439.699H210.79V457.485H206.7ZM222.99 457.86C221.865 457.86 220.814 457.66 219.839 457.26C218.888 456.859 218.125 456.259 217.55 455.458C216.974 454.633 216.687 453.62 216.687 452.419C216.687 450.718 217.262 449.355 218.413 448.329C219.588 447.279 221.389 446.753 223.816 446.753H229.519V445.965C229.519 445.115 229.382 444.439 229.107 443.939C228.856 443.439 228.381 443.076 227.681 442.851C227.005 442.626 226.005 442.513 224.679 442.513C222.578 442.513 220.614 442.826 218.788 443.451V440.412C219.588 440.087 220.564 439.824 221.715 439.624C222.865 439.424 224.104 439.324 225.429 439.324C228.031 439.324 230.007 439.849 231.358 440.9C232.734 441.951 233.422 443.664 233.422 446.04V457.485H229.932L229.669 455.684C228.944 456.384 228.043 456.922 226.968 457.297C225.917 457.672 224.591 457.86 222.99 457.86ZM224.079 454.933C225.304 454.933 226.367 454.733 227.268 454.333C228.193 453.908 228.944 453.345 229.519 452.644V449.53H223.891C222.69 449.53 221.815 449.768 221.264 450.243C220.739 450.693 220.476 451.394 220.476 452.344C220.476 453.27 220.789 453.933 221.415 454.333C222.04 454.733 222.928 454.933 224.079 454.933ZM244.261 457.86C242.81 457.86 241.709 457.51 240.959 456.809C240.208 456.084 239.833 454.896 239.833 453.245V432.195H243.923V452.869C243.923 453.57 244.048 454.045 244.298 454.295C244.548 454.545 244.924 454.67 245.424 454.67C246.024 454.67 246.6 454.595 247.15 454.445V457.41C246.675 457.585 246.212 457.697 245.762 457.747C245.336 457.822 244.836 457.86 244.261 457.86ZM258.154 457.86C256.928 457.86 255.753 457.772 254.627 457.597C253.526 457.422 252.613 457.209 251.888 456.959V453.507C252.738 453.833 253.676 454.083 254.702 454.258C255.728 454.433 256.703 454.52 257.629 454.52C259.03 454.52 260.03 454.395 260.631 454.145C261.231 453.895 261.531 453.407 261.531 452.682C261.531 452.157 261.343 451.744 260.968 451.444C260.618 451.143 260.08 450.868 259.355 450.618C258.654 450.368 257.754 450.068 256.653 449.718C255.603 449.367 254.69 448.992 253.914 448.592C253.139 448.167 252.538 447.629 252.113 446.978C251.688 446.328 251.475 445.478 251.475 444.427C251.475 442.801 252.063 441.55 253.239 440.675C254.414 439.774 256.303 439.324 258.905 439.324C259.93 439.324 260.906 439.399 261.831 439.549C262.757 439.699 263.545 439.887 264.195 440.112V443.526C263.495 443.251 262.719 443.039 261.869 442.889C261.043 442.738 260.268 442.663 259.542 442.663C258.242 442.663 257.254 442.776 256.578 443.001C255.928 443.226 255.603 443.677 255.603 444.352C255.603 445.052 255.94 445.553 256.616 445.853C257.316 446.128 258.429 446.516 259.955 447.016C261.356 447.441 262.469 447.892 263.295 448.367C264.12 448.842 264.708 449.417 265.058 450.093C265.433 450.743 265.621 451.594 265.621 452.644C265.621 454.395 264.983 455.709 263.707 456.584C262.432 457.435 260.581 457.86 258.154 457.86Z" fill="#095797"/>
<g clip-path="url(#clip0_218_909)">
<path d="M212.296 167.328C188.381 167.33 165.445 176.796 148.534 193.643C131.623 210.49 122.121 233.339 122.119 257.164H212.296C236.213 257.164 259.15 247.699 276.061 230.852C292.973 214.004 302.474 191.154 302.474 167.328H212.296Z" fill="#005696"/>
<path d="M122.119 347L122.119 257.164H212.296C212.296 280.99 202.796 303.84 185.884 320.688C168.973 337.535 146.036 347 122.119 347Z" fill="#149ED8"/>
<path d="M212.296 347V257.164H302.474C302.474 280.99 292.973 303.84 276.061 320.688C259.15 337.535 236.213 347 212.296 347Z" fill="#149ED8"/>
<path d="M302.474 167.328V257.164H212.296C212.296 233.338 221.797 210.488 238.709 193.64C255.62 176.793 278.557 167.328 302.474 167.328Z" fill="#BF1E2D"/>
<path d="M302.474 257.164V167.328H392.651C392.651 191.154 383.15 214.004 366.238 230.852C349.327 247.699 326.39 257.164 302.474 257.164Z" fill="#E46225"/>
<path d="M302.474 73V162.836H212.296C212.296 139.01 221.797 116.16 238.709 99.3124C255.62 82.4648 278.557 73 302.474 73Z" fill="#005696"/>
<path d="M302.474 162.836V73H392.651C392.651 96.826 383.15 119.676 366.238 136.524C349.327 153.371 326.39 162.836 302.474 162.836Z" fill="#149ED8"/>
<path d="M167.208 162.836C192.109 162.836 212.296 142.726 212.296 117.918C212.296 93.1105 192.109 73 167.208 73C142.306 73 122.119 93.1105 122.119 117.918C122.119 142.726 142.306 162.836 167.208 162.836Z" fill="#005696"/>
</g>
<defs>
<clipPath id="clip0_218_909">
<rect width="270.532" height="274" fill="white" transform="translate(122.119 73)"/>
</clipPath>
</defs>
</svg>
