<svg width="512" height="512" viewBox="0 0 512 512" fill="none" xmlns="http://www.w3.org/2000/svg">
<rect width="512" height="512" fill="url(#paint0_linear_218_916)"/>
<path d="M123.664 401.775V361.943H135.292V376.787H149.023V361.943H160.652V401.775H149.023V386.931H135.292V401.775H123.664ZM163.155 401.775V361.943H174.474L184.37 382.168L194.205 361.943H205.462V401.775H193.834V381.859L187.463 394.972H181.216L174.783 381.859V401.775H163.155ZM207.961 401.775V361.943H219.59V401.775H207.961ZM222.083 401.775V361.943H252.02V370.602H233.712V377.468H249.669V386.251H233.712V401.775H222.083ZM279.869 402.394C274.385 402.394 270.035 401.074 266.818 398.435C263.643 395.755 262.056 391.879 262.056 386.807V361.943H270.406V386.189C270.406 389.24 271.23 391.529 272.88 393.054C274.529 394.539 276.859 395.281 279.869 395.281C282.879 395.281 285.188 394.539 286.796 393.054C288.446 391.529 289.271 389.24 289.271 386.189V361.943H297.621V386.807C297.621 391.879 296.033 395.755 292.858 398.435C289.683 401.074 285.353 402.394 279.869 402.394ZM301.252 401.775V361.943H309.664L321.354 385.88L333.044 361.943H341.394V401.775H333.044V375.86L323.766 394.91H318.942L309.602 375.86V401.775H301.252ZM345.333 401.775V361.943H352.57L371.435 388.477V361.943H379.785V401.775H372.548L353.683 375.241V401.775H345.333Z" fill="white"/>
<path d="M134.193 440.423C130.377 440.423 127.485 439.379 125.517 437.291C123.573 435.203 122.601 432.383 122.601 428.831C122.601 426.287 123.009 424.103 123.825 422.279C124.665 420.431 125.937 419.015 127.641 418.031C129.345 417.023 131.517 416.519 134.157 416.519C135.501 416.519 136.725 416.627 137.829 416.843C138.957 417.035 140.001 417.299 140.961 417.635V421.055C140.001 420.671 138.969 420.383 137.865 420.191C136.785 419.975 135.645 419.867 134.445 419.867C131.565 419.867 129.525 420.635 128.325 422.171C127.149 423.707 126.561 425.927 126.561 428.831C126.561 431.543 127.209 433.607 128.505 435.023C129.801 436.415 131.805 437.111 134.517 437.111C135.621 437.111 136.725 437.027 137.829 436.859C138.957 436.667 140.013 436.379 140.997 435.995V439.451C140.037 439.763 138.993 440.003 137.865 440.171C136.761 440.339 135.537 440.423 134.193 440.423ZM154.668 440.423C151.596 440.423 149.34 439.655 147.9 438.119C146.484 436.583 145.776 434.387 145.776 431.531C145.776 428.675 146.496 426.479 147.936 424.943C149.376 423.407 151.62 422.639 154.668 422.639C157.74 422.639 159.996 423.407 161.436 424.943C162.876 426.479 163.596 428.675 163.596 431.531C163.596 434.387 162.876 436.583 161.436 438.119C160.02 439.655 157.764 440.423 154.668 440.423ZM154.668 437.111C156.468 437.111 157.74 436.679 158.484 435.815C159.252 434.927 159.636 433.499 159.636 431.531C159.636 429.563 159.252 428.147 158.484 427.283C157.74 426.419 156.468 425.987 154.668 425.987C152.892 425.987 151.62 426.419 150.852 427.283C150.108 428.147 149.736 429.563 149.736 431.531C149.736 433.499 150.108 434.927 150.852 435.815C151.62 436.679 152.892 437.111 154.668 437.111ZM169.214 440.063V422.999H172.814L172.994 424.799C173.834 424.127 174.758 423.599 175.766 423.215C176.774 422.831 177.854 422.639 179.006 422.639C180.23 422.639 181.178 422.843 181.85 423.251C182.546 423.635 183.074 424.175 183.434 424.871C184.226 424.223 185.138 423.695 186.17 423.287C187.202 422.855 188.438 422.639 189.878 422.639C191.846 422.639 193.298 423.143 194.234 424.151C195.17 425.159 195.638 426.707 195.638 428.795V440.063H191.786V429.191C191.786 427.871 191.51 426.947 190.958 426.419C190.406 425.891 189.506 425.627 188.258 425.627C187.442 425.627 186.662 425.771 185.918 426.059C185.198 426.347 184.574 426.779 184.046 427.355C184.118 427.619 184.166 427.895 184.19 428.183C184.214 428.471 184.226 428.783 184.226 429.119V440.063H180.59V429.227C180.59 427.979 180.374 427.067 179.942 426.491C179.51 425.915 178.694 425.627 177.494 425.627C176.654 425.627 175.85 425.831 175.082 426.239C174.338 426.623 173.666 427.091 173.066 427.643V440.063H169.214ZM201.846 440.063V422.999H205.446L205.626 424.799C206.466 424.127 207.39 423.599 208.398 423.215C209.406 422.831 210.486 422.639 211.638 422.639C212.862 422.639 213.81 422.843 214.482 423.251C215.178 423.635 215.706 424.175 216.066 424.871C216.858 424.223 217.77 423.695 218.802 423.287C219.834 422.855 221.07 422.639 222.51 422.639C224.478 422.639 225.93 423.143 226.866 424.151C227.802 425.159 228.27 426.707 228.27 428.795V440.063H224.418V429.191C224.418 427.871 224.142 426.947 223.59 426.419C223.038 425.891 222.138 425.627 220.89 425.627C220.074 425.627 219.294 425.771 218.55 426.059C217.83 426.347 217.206 426.779 216.678 427.355C216.75 427.619 216.798 427.895 216.822 428.183C216.846 428.471 216.858 428.783 216.858 429.119V440.063H213.222V429.227C213.222 427.979 213.006 427.067 212.574 426.491C212.142 425.915 211.326 425.627 210.126 425.627C209.286 425.627 208.482 425.831 207.714 426.239C206.97 426.623 206.298 427.091 205.698 427.643V440.063H201.846ZM240.634 440.423C238.594 440.423 237.022 439.859 235.918 438.731C234.838 437.603 234.298 435.947 234.298 433.763V422.999H238.222V433.763C238.222 435.035 238.534 435.971 239.158 436.571C239.782 437.171 240.742 437.471 242.038 437.471C242.998 437.471 243.886 437.291 244.702 436.931C245.518 436.571 246.226 436.091 246.826 435.491V422.999H250.714V440.063H247.15L246.97 438.299C246.202 438.899 245.29 439.403 244.234 439.811C243.178 440.219 241.978 440.423 240.634 440.423ZM257.091 440.063V422.999H260.691L260.871 424.799C261.639 424.199 262.551 423.695 263.607 423.287C264.687 422.855 265.875 422.639 267.171 422.639C269.379 422.639 270.987 423.155 271.995 424.187C273.003 425.219 273.507 426.827 273.507 429.011V440.063H269.619V429.191C269.619 427.871 269.343 426.947 268.791 426.419C268.263 425.891 267.255 425.627 265.767 425.627C264.879 425.627 264.003 425.807 263.139 426.167C262.299 426.527 261.591 426.995 261.015 427.571V440.063H257.091ZM281.143 419.435V416.195H285.427V419.435H281.143ZM281.467 440.063V425.987H278.875L279.235 422.999H285.391V440.063H281.467ZM298.285 440.423C296.461 440.423 295.093 439.943 294.181 438.983C293.293 437.999 292.849 436.667 292.849 434.987V426.059H290.329V422.999H292.849V419.075L296.737 417.887V422.999H301.273L301.021 426.059H296.737V434.771C296.737 435.755 296.965 436.451 297.421 436.859C297.877 437.243 298.621 437.435 299.653 437.435C300.301 437.435 300.985 437.315 301.705 437.075V439.847C300.769 440.231 299.629 440.423 298.285 440.423ZM308.741 446.399C307.445 446.399 306.341 446.231 305.429 445.895V442.979C305.837 443.123 306.209 443.219 306.545 443.267C306.905 443.315 307.265 443.339 307.625 443.339C308.369 443.339 308.969 443.219 309.425 442.979C309.881 442.739 310.277 442.355 310.613 441.827C310.973 441.323 311.357 440.663 311.765 439.847L304.169 422.999H308.237L313.709 435.671L319.253 422.999H323.285L316.337 439.091C315.737 440.531 315.089 441.791 314.393 442.871C313.721 443.975 312.929 444.839 312.017 445.463C311.129 446.087 310.037 446.399 308.741 446.399ZM133.581 467.423C129.909 467.423 127.161 466.463 125.337 464.543C123.513 462.599 122.601 459.599 122.601 455.543C122.601 451.319 123.513 448.259 125.337 446.363C127.161 444.467 129.909 443.519 133.581 443.519C137.277 443.519 140.025 444.467 141.825 446.363C143.649 448.259 144.561 451.319 144.561 455.543C144.561 459.599 143.649 462.599 141.825 464.543C140.025 466.463 137.277 467.423 133.581 467.423ZM133.581 464.111C136.005 464.111 137.781 463.451 138.909 462.131C140.061 460.787 140.637 458.591 140.637 455.543C140.637 452.327 140.061 450.083 138.909 448.811C137.781 447.515 136.005 446.867 133.581 446.867C131.181 446.867 129.405 447.515 128.253 448.811C127.125 450.083 126.561 452.327 126.561 455.543C126.561 458.591 127.125 460.787 128.253 462.131C129.405 463.451 131.181 464.111 133.581 464.111ZM156.344 467.423C154.304 467.423 152.732 466.859 151.628 465.731C150.548 464.603 150.008 462.947 150.008 460.763V449.999H153.932V460.763C153.932 462.035 154.244 462.971 154.868 463.571C155.492 464.171 156.452 464.471 157.748 464.471C158.708 464.471 159.596 464.291 160.412 463.931C161.228 463.571 161.936 463.091 162.536 462.491V449.999H166.424V467.063H162.86L162.68 465.299C161.912 465.899 161 466.403 159.944 466.811C158.888 467.219 157.688 467.423 156.344 467.423ZM179.316 467.423C177.492 467.423 176.124 466.943 175.212 465.983C174.324 464.999 173.88 463.667 173.88 461.987V453.059H171.36V449.999H173.88V446.075L177.768 444.887V449.999H182.304L182.052 453.059H177.768V461.771C177.768 462.755 177.996 463.451 178.452 463.859C178.908 464.243 179.652 464.435 180.684 464.435C181.332 464.435 182.016 464.315 182.736 464.075V466.847C181.8 467.231 180.66 467.423 179.316 467.423ZM187.538 467.063V449.999H191.138L191.354 451.979C192.17 451.451 193.142 450.971 194.27 450.539C195.398 450.107 196.514 449.807 197.618 449.639V452.627C196.946 452.747 196.214 452.927 195.422 453.167C194.654 453.383 193.922 453.635 193.226 453.923C192.53 454.187 191.942 454.463 191.462 454.751V467.063H187.538ZM210.212 467.423C207.236 467.423 204.932 466.691 203.3 465.227C201.668 463.763 200.852 461.519 200.852 458.495C200.852 455.759 201.548 453.599 202.94 452.015C204.332 450.431 206.444 449.639 209.276 449.639C211.868 449.639 213.812 450.323 215.108 451.691C216.428 453.035 217.088 454.775 217.088 456.911V460.079H204.596C204.788 461.735 205.388 462.875 206.396 463.499C207.404 464.123 208.94 464.435 211.004 464.435C211.868 464.435 212.756 464.351 213.668 464.183C214.58 464.015 215.372 463.799 216.044 463.535V466.415C215.276 466.751 214.388 467.003 213.38 467.171C212.396 467.339 211.34 467.423 210.212 467.423ZM204.596 457.523H213.632V456.335C213.632 455.159 213.308 454.247 212.66 453.599C212.012 452.927 210.92 452.591 209.384 452.591C207.56 452.591 206.3 452.987 205.604 453.779C204.932 454.571 204.596 455.819 204.596 457.523ZM228.036 467.423C226.956 467.423 225.948 467.231 225.012 466.847C224.1 466.463 223.368 465.887 222.816 465.119C222.264 464.327 221.988 463.355 221.988 462.203C221.988 460.571 222.54 459.263 223.644 458.279C224.772 457.271 226.5 456.767 228.828 456.767H234.3V456.011C234.3 455.195 234.168 454.547 233.904 454.067C233.664 453.587 233.208 453.239 232.536 453.023C231.888 452.807 230.928 452.699 229.656 452.699C227.64 452.699 225.756 452.999 224.004 453.599V450.683C224.772 450.371 225.708 450.119 226.812 449.927C227.916 449.735 229.104 449.639 230.376 449.639C232.872 449.639 234.768 450.143 236.064 451.151C237.384 452.159 238.044 453.803 238.044 456.083V467.063H234.696L234.444 465.335C233.748 466.007 232.884 466.523 231.852 466.883C230.844 467.243 229.572 467.423 228.036 467.423ZM229.08 464.615C230.256 464.615 231.276 464.423 232.14 464.039C233.028 463.631 233.748 463.091 234.3 462.419V459.431H228.9C227.748 459.431 226.908 459.659 226.38 460.115C225.876 460.547 225.624 461.219 225.624 462.131C225.624 463.019 225.924 463.655 226.524 464.039C227.124 464.423 227.976 464.615 229.08 464.615ZM252.583 467.423C249.583 467.423 247.315 466.667 245.779 465.155C244.243 463.619 243.475 461.411 243.475 458.531C243.475 455.531 244.315 453.299 245.995 451.835C247.699 450.371 249.967 449.639 252.799 449.639C253.975 449.639 254.959 449.723 255.751 449.891C256.567 450.059 257.347 450.323 258.091 450.683V453.599C256.843 452.975 255.331 452.663 253.555 452.663C251.587 452.663 250.075 453.107 249.019 453.995C247.963 454.859 247.435 456.371 247.435 458.531C247.435 460.571 247.903 462.071 248.839 463.031C249.775 463.967 251.323 464.435 253.483 464.435C255.187 464.435 256.735 464.111 258.127 463.463V466.451C257.335 466.763 256.483 467.003 255.571 467.171C254.683 467.339 253.687 467.423 252.583 467.423ZM263.046 467.063V442.799H266.97V451.655C267.714 451.055 268.602 450.575 269.634 450.215C270.666 449.831 271.83 449.639 273.126 449.639C275.286 449.639 276.882 450.155 277.914 451.187C278.946 452.219 279.462 453.827 279.462 456.011V467.063H275.574V456.191C275.574 454.871 275.286 453.947 274.71 453.419C274.158 452.891 273.186 452.627 271.794 452.627C270.93 452.627 270.054 452.819 269.166 453.203C268.278 453.563 267.546 454.043 266.97 454.643V467.063H263.046Z" fill="white"/>
<path d="M386.541 77.4089V70.9726H290.763V71.206C276.473 72.2512 262.644 76.6975 250.442 84.1701C238.241 91.6427 228.024 101.923 220.653 114.144C215.201 55.1233 125.094 58.9851 125.094 118.601C124.989 145.899 148.593 167.959 175.976 166.125C161.75 172.887 149.574 183.268 140.68 196.217C131.786 209.165 126.49 224.221 125.329 239.86H125.094V335.117C159.231 337.096 191.362 319.975 207.929 292.308V335.117C257.096 338.158 300.147 301.222 303.472 252.733H303.706V252.499C352.461 249.233 389.615 206.375 386.541 157.476H335.878C351.042 150.224 363.841 138.863 372.803 124.699C381.765 110.535 386.527 94.1439 386.541 77.4089ZM221.519 236.658C225.394 202.007 255.817 172.979 290.804 170.622V239.86H221.147C221.236 238.79 221.357 237.72 221.478 236.658H221.519ZM290.763 84.1187V153.357H221.147C222.695 135.511 230.527 118.781 243.263 106.115C255.998 93.4485 272.82 85.6591 290.763 84.1187ZM138.037 118.601C138.846 72.9277 207.112 72.9277 207.929 118.601C207.104 164.298 138.846 164.298 138.037 118.601ZM214.4 170.349H250.859C226.494 184.975 209.967 211.565 208.155 239.86H138.312C139.955 220.908 148.68 203.257 162.765 190.389C176.851 177.521 195.274 170.371 214.4 170.349ZM138.037 321.987V252.733H207.654C206.104 270.58 198.272 287.311 185.537 299.98C172.802 312.648 155.982 320.441 138.037 321.987ZM220.872 321.987V252.733H290.488C288.94 270.581 281.109 287.313 268.374 299.981C255.638 312.65 238.817 320.443 220.872 321.987ZM303.706 239.603V170.349H373.323C371.774 188.196 363.943 204.927 351.208 217.594C338.472 230.261 321.651 238.052 303.706 239.595V239.603ZM303.706 153.091V83.8452H373.323C371.774 101.691 363.942 118.421 351.207 131.087C338.472 143.753 321.65 151.543 303.706 153.083V153.091Z" fill="#F0F2F5"/>
<defs>
<linearGradient id="paint0_linear_218_916" x1="4.74509e-06" y1="518" x2="512" y2="32" gradientUnits="userSpaceOnUse">
<stop offset="0.0001" stop-color="#0B6FC1"/>
<stop offset="1" stop-color="#6FB9F6"/>
</linearGradient>
</defs>
</svg>
