<svg width="512" height="512" viewBox="0 0 512 512" fill="none" xmlns="http://www.w3.org/2000/svg">
<rect width="512" height="512" fill="url(#paint0_linear_218_881)"/>
<path d="M124.664 412.775V372.943H136.292V387.787H150.023V372.943H161.652V412.775H150.023V397.931H136.292V412.775H124.664ZM164.155 412.775V372.943H175.474L185.37 393.168L195.205 372.943H206.462V412.775H194.834V392.859L188.463 405.972H182.216L175.783 392.859V412.775H164.155ZM208.961 412.775V372.943H220.59V412.775H208.961ZM223.083 412.775V372.943H253.02V381.602H234.712V388.468H250.669V397.251H234.712V412.775H223.083ZM280.869 413.394C275.385 413.394 271.035 412.074 267.818 409.435C264.643 406.755 263.056 402.879 263.056 397.807V372.943H271.406V397.189C271.406 400.24 272.23 402.529 273.88 404.054C275.529 405.539 277.859 406.281 280.869 406.281C283.879 406.281 286.188 405.539 287.796 404.054C289.446 402.529 290.271 400.24 290.271 397.189V372.943H298.621V397.807C298.621 402.879 297.033 406.755 293.858 409.435C290.683 412.074 286.353 413.394 280.869 413.394ZM302.252 412.775V372.943H310.664L322.354 396.88L334.044 372.943H342.394V412.775H334.044V386.86L324.766 405.91H319.942L310.602 386.86V412.775H302.252ZM346.333 412.775V372.943H353.57L372.435 399.477V372.943H380.785V412.775H373.548L354.683 386.241V412.775H346.333Z" fill="white"/>
<path d="M137.383 456.483C132.931 456.483 129.557 455.265 127.261 452.829C124.993 450.393 123.859 447.103 123.859 442.959C123.859 439.991 124.335 437.443 125.287 435.315C126.267 433.159 127.751 431.507 129.739 430.359C131.727 429.183 134.261 428.595 137.341 428.595C138.909 428.595 140.337 428.721 141.625 428.973C142.941 429.197 144.159 429.505 145.279 429.897V433.887C144.159 433.439 142.955 433.103 141.667 432.879C140.407 432.627 139.077 432.501 137.677 432.501C134.317 432.501 131.937 433.397 130.537 435.189C129.165 436.981 128.479 439.571 128.479 442.959C128.479 446.123 129.235 448.531 130.747 450.183C132.259 451.807 134.597 452.619 137.761 452.619C139.049 452.619 140.337 452.521 141.625 452.325C142.941 452.101 144.173 451.765 145.321 451.317V455.349C144.201 455.713 142.983 455.993 141.667 456.189C140.379 456.385 138.951 456.483 137.383 456.483ZM151.86 456.063V436.155H156.06L156.312 438.465C157.264 437.849 158.398 437.289 159.714 436.785C161.03 436.281 162.332 435.931 163.62 435.735V439.221C162.836 439.361 161.982 439.571 161.058 439.851C160.162 440.103 159.308 440.397 158.496 440.733C157.684 441.041 156.998 441.363 156.438 441.699V456.063H151.86ZM178.313 456.483C174.841 456.483 172.153 455.629 170.249 453.921C168.345 452.213 167.393 449.595 167.393 446.067C167.393 442.875 168.205 440.355 169.829 438.507C171.453 436.659 173.917 435.735 177.221 435.735C180.245 435.735 182.513 436.533 184.025 438.129C185.565 439.697 186.335 441.727 186.335 444.219V447.915H171.761C171.985 449.847 172.685 451.177 173.861 451.905C175.037 452.633 176.829 452.997 179.237 452.997C180.245 452.997 181.281 452.899 182.345 452.703C183.409 452.507 184.333 452.255 185.117 451.947V455.307C184.221 455.699 183.185 455.993 182.009 456.189C180.861 456.385 179.629 456.483 178.313 456.483ZM171.761 444.933H182.303V443.547C182.303 442.175 181.925 441.111 181.169 440.355C180.413 439.571 179.139 439.179 177.347 439.179C175.219 439.179 173.749 439.641 172.937 440.565C172.153 441.489 171.761 442.945 171.761 444.933ZM199.108 456.483C197.848 456.483 196.672 456.259 195.58 455.811C194.516 455.363 193.662 454.691 193.018 453.795C192.374 452.871 192.052 451.737 192.052 450.393C192.052 448.489 192.696 446.963 193.984 445.815C195.3 444.639 197.316 444.051 200.032 444.051H206.416V443.169C206.416 442.217 206.262 441.461 205.954 440.901C205.674 440.341 205.142 439.935 204.358 439.683C203.602 439.431 202.482 439.305 200.998 439.305C198.646 439.305 196.448 439.655 194.404 440.355V436.953C195.3 436.589 196.392 436.295 197.68 436.071C198.968 435.847 200.354 435.735 201.838 435.735C204.75 435.735 206.962 436.323 208.474 437.499C210.014 438.675 210.784 440.593 210.784 443.253V456.063H206.878L206.584 454.047C205.772 454.831 204.764 455.433 203.56 455.853C202.384 456.273 200.9 456.483 199.108 456.483ZM200.326 453.207C201.698 453.207 202.888 452.983 203.896 452.535C204.932 452.059 205.772 451.429 206.416 450.645V447.159H200.116C198.772 447.159 197.792 447.425 197.176 447.957C196.588 448.461 196.294 449.245 196.294 450.309C196.294 451.345 196.644 452.087 197.344 452.535C198.044 452.983 199.038 453.207 200.326 453.207ZM225.563 456.483C223.435 456.483 221.839 455.923 220.775 454.803C219.739 453.655 219.221 452.101 219.221 450.141V439.725H216.281V436.155H219.221V431.577L223.757 430.191V436.155H229.049L228.755 439.725H223.757V449.889C223.757 451.037 224.023 451.849 224.555 452.325C225.087 452.773 225.955 452.997 227.159 452.997C227.915 452.997 228.713 452.857 229.553 452.577V455.811C228.461 456.259 227.131 456.483 225.563 456.483ZM236.834 431.997V428.217H241.832V431.997H236.834ZM237.212 456.063V439.641H234.188L234.608 436.155H241.79V456.063H237.212ZM255.425 456.063L247.571 436.155H252.317L257.903 451.611L263.489 436.155H268.193L260.381 456.063H255.425ZM282.575 456.483C279.103 456.483 276.415 455.629 274.511 453.921C272.607 452.213 271.655 449.595 271.655 446.067C271.655 442.875 272.467 440.355 274.091 438.507C275.715 436.659 278.179 435.735 281.483 435.735C284.507 435.735 286.775 436.533 288.287 438.129C289.827 439.697 290.597 441.727 290.597 444.219V447.915H276.023C276.247 449.847 276.947 451.177 278.123 451.905C279.299 452.633 281.091 452.997 283.499 452.997C284.507 452.997 285.543 452.899 286.607 452.703C287.671 452.507 288.595 452.255 289.379 451.947V455.307C288.483 455.699 287.447 455.993 286.271 456.189C285.123 456.385 283.891 456.483 282.575 456.483ZM276.023 444.933H286.565V443.547C286.565 442.175 286.187 441.111 285.431 440.355C284.675 439.571 283.401 439.179 281.609 439.179C279.481 439.179 278.011 439.641 277.199 440.565C276.415 441.489 276.023 442.945 276.023 444.933Z" fill="white"/>
<path d="M386.541 88.4089V81.9727H290.763V82.206C276.473 83.2512 262.644 87.6975 250.442 95.1701C238.241 102.643 228.024 112.923 220.653 125.144C215.201 66.1234 125.094 69.9851 125.094 129.601C124.989 156.899 148.593 178.959 175.976 177.125C161.75 183.887 149.574 194.268 140.68 207.217C131.786 220.165 126.49 235.221 125.329 250.86H125.094V346.117C159.231 348.096 191.362 330.975 207.929 303.308V346.117C257.096 349.158 300.147 312.222 303.472 263.733H303.706V263.499C352.461 260.233 389.615 217.376 386.541 168.476H335.878C351.042 161.224 363.841 149.863 372.803 135.699C381.765 121.535 386.527 105.144 386.541 88.4089ZM221.519 247.658C225.394 213.007 255.818 183.979 290.804 181.622V250.86H221.147C221.236 249.79 221.357 248.72 221.478 247.658H221.519ZM290.763 95.1187V164.357H221.147C222.695 146.511 230.527 129.781 243.263 117.115C255.998 104.449 272.82 96.6591 290.763 95.1187ZM138.037 129.601C138.846 83.9277 207.112 83.9277 207.929 129.601C207.104 175.298 138.846 175.298 138.037 129.601ZM214.4 181.349H250.859C226.494 195.975 209.967 222.565 208.155 250.86H138.312C139.955 231.908 148.68 214.257 162.766 201.389C176.851 188.521 195.274 181.371 214.4 181.349ZM138.037 332.987V263.733H207.654C206.104 281.58 198.272 298.311 185.537 310.98C172.802 323.648 155.982 331.441 138.037 332.987ZM220.872 332.987V263.733H290.488C288.94 281.581 281.109 298.313 268.374 310.981C255.638 323.65 238.817 331.443 220.872 332.987ZM303.706 250.603V181.349H373.323C371.774 199.196 363.943 215.927 351.208 228.594C338.472 241.261 321.651 249.052 303.706 250.595V250.603ZM303.706 164.091V94.8452H373.323C371.774 112.691 363.942 129.421 351.207 142.087C338.472 154.753 321.65 162.543 303.706 164.083V164.091Z" fill="#F0F2F5"/>
<defs>
<linearGradient id="paint0_linear_218_881" x1="4.74509e-06" y1="518" x2="512" y2="32" gradientUnits="userSpaceOnUse">
<stop stop-color="#893610"/>
<stop offset="0.0001" stop-color="#580E15"/>
<stop offset="1" stop-color="#BF1E2E"/>
</linearGradient>
</defs>
</svg>
