<svg width="512" height="512" viewBox="0 0 512 512" fill="none" xmlns="http://www.w3.org/2000/svg">
<rect width="512" height="512" fill="url(#paint0_linear_218_895)"/>
<path d="M124.664 401.775V361.943H136.292V376.787H150.023V361.943H161.652V401.775H150.023V386.931H136.292V401.775H124.664ZM164.155 401.775V361.943H175.474L185.37 382.168L195.205 361.943H206.462V401.775H194.834V381.859L188.463 394.972H182.216L175.783 381.859V401.775H164.155ZM208.961 401.775V361.943H220.59V401.775H208.961ZM223.083 401.775V361.943H253.02V370.602H234.712V377.468H250.669V386.251H234.712V401.775H223.083ZM280.869 402.394C275.385 402.394 271.035 401.074 267.818 398.435C264.643 395.755 263.056 391.879 263.056 386.807V361.943H271.406V386.189C271.406 389.24 272.23 391.529 273.88 393.054C275.529 394.539 277.859 395.281 280.869 395.281C283.879 395.281 286.188 394.539 287.796 393.054C289.446 391.529 290.271 389.24 290.271 386.189V361.943H298.621V386.807C298.621 391.879 297.033 395.755 293.858 398.435C290.683 401.074 286.353 402.394 280.869 402.394ZM302.252 401.775V361.943H310.664L322.354 385.88L334.044 361.943H342.394V401.775H334.044V375.86L324.766 394.91H319.942L310.602 375.86V401.775H302.252ZM346.333 401.775V361.943H353.57L372.435 388.477V361.943H380.785V401.775H373.548L354.683 375.241V401.775H346.333Z" fill="white"/>
<path d="M124.321 440.063V416.879H134.653C136.429 416.879 137.893 417.215 139.045 417.887C140.197 418.559 141.049 419.483 141.601 420.659C142.153 421.811 142.429 423.131 142.429 424.619C142.429 426.923 141.709 428.771 140.269 430.163C138.853 431.555 136.933 432.251 134.509 432.251H128.245V440.063H124.321ZM128.245 429.155H133.789C135.349 429.155 136.525 428.747 137.317 427.931C138.109 427.115 138.505 426.011 138.505 424.619C138.505 423.131 138.121 421.979 137.353 421.163C136.609 420.347 135.481 419.939 133.969 419.939H128.245V429.155ZM153.512 440.423C151.472 440.423 149.9 439.859 148.796 438.731C147.716 437.603 147.176 435.947 147.176 433.763V422.999H151.1V433.763C151.1 435.035 151.412 435.971 152.036 436.571C152.66 437.171 153.62 437.471 154.916 437.471C155.876 437.471 156.764 437.291 157.58 436.931C158.396 436.571 159.104 436.091 159.704 435.491V422.999H163.592V440.063H160.028L159.848 438.299C159.08 438.899 158.168 439.403 157.112 439.811C156.056 440.219 154.856 440.423 153.512 440.423ZM179.328 440.423C178.08 440.423 177 440.255 176.088 439.919C175.176 439.583 174.336 439.067 173.568 438.371L173.352 440.063H169.968V415.799H173.892V424.115C175.38 423.131 177.168 422.639 179.256 422.639C181.68 422.639 183.588 423.335 184.98 424.727C186.396 426.095 187.104 428.315 187.104 431.387C187.104 434.483 186.408 436.763 185.016 438.227C183.624 439.691 181.728 440.423 179.328 440.423ZM178.284 437.471C180.06 437.471 181.308 436.967 182.028 435.959C182.772 434.951 183.144 433.427 183.144 431.387C183.144 429.275 182.748 427.787 181.956 426.923C181.164 426.059 179.916 425.627 178.212 425.627C176.436 425.627 174.996 426.119 173.892 427.103V435.671C175.02 436.871 176.484 437.471 178.284 437.471ZM196.969 440.423C195.577 440.423 194.521 440.087 193.801 439.415C193.081 438.719 192.721 437.579 192.721 435.995V415.799H196.645V435.635C196.645 436.307 196.765 436.763 197.005 437.003C197.245 437.243 197.605 437.363 198.085 437.363C198.661 437.363 199.213 437.291 199.741 437.147V439.991C199.285 440.159 198.841 440.267 198.409 440.315C198.001 440.387 197.521 440.423 196.969 440.423ZM204.785 419.435V416.195H209.069V419.435H204.785ZM205.109 440.063V425.987H202.517L202.877 422.999H209.033V440.063H205.109ZM223.799 440.423C220.799 440.423 218.531 439.667 216.995 438.155C215.459 436.619 214.691 434.411 214.691 431.531C214.691 428.531 215.531 426.299 217.211 424.835C218.915 423.371 221.183 422.639 224.015 422.639C225.191 422.639 226.175 422.723 226.967 422.891C227.783 423.059 228.563 423.323 229.307 423.683V426.599C228.059 425.975 226.547 425.663 224.771 425.663C222.803 425.663 221.291 426.107 220.235 426.995C219.179 427.859 218.651 429.371 218.651 431.531C218.651 433.571 219.119 435.071 220.055 436.031C220.991 436.967 222.539 437.435 224.699 437.435C226.403 437.435 227.951 437.111 229.343 436.463V439.451C228.551 439.763 227.699 440.003 226.787 440.171C225.899 440.339 224.903 440.423 223.799 440.423ZM124.321 467.063V443.879H134.977C137.569 443.879 139.453 444.551 140.629 445.895C141.829 447.215 142.429 449.015 142.429 451.295C142.429 452.927 142.021 454.319 141.205 455.471C140.389 456.623 139.213 457.427 137.677 457.883C138.109 458.195 138.445 458.531 138.685 458.891C138.925 459.251 139.165 459.731 139.405 460.331L142.321 467.063H138.289L135.445 460.583C135.181 459.959 134.857 459.515 134.473 459.251C134.113 458.987 133.489 458.855 132.601 458.855H128.245V467.063H124.321ZM128.245 455.687H133.933C135.349 455.687 136.465 455.339 137.281 454.643C138.097 453.947 138.505 452.831 138.505 451.295C138.505 448.391 137.101 446.939 134.293 446.939H128.245V455.687ZM156.207 467.423C153.231 467.423 150.927 466.691 149.295 465.227C147.663 463.763 146.847 461.519 146.847 458.495C146.847 455.759 147.543 453.599 148.935 452.015C150.327 450.431 152.439 449.639 155.271 449.639C157.863 449.639 159.807 450.323 161.103 451.691C162.423 453.035 163.083 454.775 163.083 456.911V460.079H150.591C150.783 461.735 151.383 462.875 152.391 463.499C153.399 464.123 154.935 464.435 156.999 464.435C157.863 464.435 158.751 464.351 159.663 464.183C160.575 464.015 161.367 463.799 162.039 463.535V466.415C161.271 466.751 160.383 467.003 159.375 467.171C158.391 467.339 157.335 467.423 156.207 467.423ZM150.591 457.523H159.627V456.335C159.627 455.159 159.303 454.247 158.655 453.599C158.007 452.927 156.915 452.591 155.379 452.591C153.555 452.591 152.295 452.987 151.599 453.779C150.927 454.571 150.591 455.819 150.591 457.523ZM172.95 467.423C171.558 467.423 170.502 467.087 169.782 466.415C169.062 465.719 168.702 464.579 168.702 462.995V442.799H172.626V462.635C172.626 463.307 172.746 463.763 172.986 464.003C173.226 464.243 173.586 464.363 174.066 464.363C174.642 464.363 175.194 464.291 175.722 464.147V466.991C175.266 467.159 174.822 467.267 174.39 467.315C173.982 467.387 173.502 467.423 172.95 467.423ZM185.92 467.423C184.84 467.423 183.832 467.231 182.896 466.847C181.984 466.463 181.252 465.887 180.7 465.119C180.148 464.327 179.872 463.355 179.872 462.203C179.872 460.571 180.424 459.263 181.528 458.279C182.656 457.271 184.384 456.767 186.712 456.767H192.184V456.011C192.184 455.195 192.052 454.547 191.788 454.067C191.548 453.587 191.092 453.239 190.42 453.023C189.772 452.807 188.812 452.699 187.54 452.699C185.524 452.699 183.64 452.999 181.888 453.599V450.683C182.656 450.371 183.592 450.119 184.696 449.927C185.8 449.735 186.988 449.639 188.26 449.639C190.756 449.639 192.652 450.143 193.948 451.151C195.268 452.159 195.928 453.803 195.928 456.083V467.063H192.58L192.328 465.335C191.632 466.007 190.768 466.523 189.736 466.883C188.728 467.243 187.456 467.423 185.92 467.423ZM186.964 464.615C188.14 464.615 189.16 464.423 190.024 464.039C190.912 463.631 191.632 463.091 192.184 462.419V459.431H186.784C185.632 459.431 184.792 459.659 184.264 460.115C183.76 460.547 183.508 461.219 183.508 462.131C183.508 463.019 183.808 463.655 184.408 464.039C185.008 464.423 185.86 464.615 186.964 464.615ZM208.596 467.423C206.772 467.423 205.404 466.943 204.492 465.983C203.604 464.999 203.16 463.667 203.16 461.987V453.059H200.64V449.999H203.16V446.075L207.048 444.887V449.999H211.584L211.332 453.059H207.048V461.771C207.048 462.755 207.276 463.451 207.732 463.859C208.188 464.243 208.932 464.435 209.964 464.435C210.612 464.435 211.296 464.315 212.016 464.075V466.847C211.08 467.231 209.94 467.423 208.596 467.423ZM218.257 446.435V443.195H222.541V446.435H218.257ZM218.581 467.063V452.987H215.989L216.349 449.999H222.505V467.063H218.581ZM237.055 467.423C233.983 467.423 231.727 466.655 230.287 465.119C228.871 463.583 228.163 461.387 228.163 458.531C228.163 455.675 228.883 453.479 230.323 451.943C231.763 450.407 234.007 449.639 237.055 449.639C240.127 449.639 242.383 450.407 243.823 451.943C245.263 453.479 245.983 455.675 245.983 458.531C245.983 461.387 245.263 463.583 243.823 465.119C242.407 466.655 240.151 467.423 237.055 467.423ZM237.055 464.111C238.855 464.111 240.127 463.679 240.871 462.815C241.639 461.927 242.023 460.499 242.023 458.531C242.023 456.563 241.639 455.147 240.871 454.283C240.127 453.419 238.855 452.987 237.055 452.987C235.279 452.987 234.007 453.419 233.239 454.283C232.495 455.147 232.123 456.563 232.123 458.531C232.123 460.499 232.495 461.927 233.239 462.815C234.007 463.679 235.279 464.111 237.055 464.111ZM251.601 467.063V449.999H255.201L255.381 451.799C256.149 451.199 257.061 450.695 258.117 450.287C259.197 449.855 260.385 449.639 261.681 449.639C263.889 449.639 265.497 450.155 266.505 451.187C267.513 452.219 268.017 453.827 268.017 456.011V467.063H264.129V456.191C264.129 454.871 263.853 453.947 263.301 453.419C262.773 452.891 261.765 452.627 260.277 452.627C259.389 452.627 258.513 452.807 257.649 453.167C256.809 453.527 256.101 453.995 255.525 454.571V467.063H251.601ZM279.901 467.423C278.725 467.423 277.597 467.339 276.517 467.171C275.461 467.003 274.585 466.799 273.889 466.559V463.247C274.705 463.559 275.605 463.799 276.589 463.967C277.573 464.135 278.509 464.219 279.397 464.219C280.741 464.219 281.701 464.099 282.277 463.859C282.853 463.619 283.141 463.151 283.141 462.455C283.141 461.951 282.961 461.555 282.601 461.267C282.265 460.979 281.749 460.715 281.053 460.475C280.381 460.235 279.517 459.947 278.461 459.611C277.453 459.275 276.577 458.915 275.833 458.531C275.089 458.123 274.513 457.607 274.105 456.983C273.697 456.359 273.493 455.543 273.493 454.535C273.493 452.975 274.057 451.775 275.185 450.935C276.313 450.071 278.125 449.639 280.621 449.639C281.605 449.639 282.541 449.711 283.429 449.855C284.317 449.999 285.073 450.179 285.697 450.395V453.671C285.025 453.407 284.281 453.203 283.465 453.059C282.673 452.915 281.929 452.843 281.233 452.843C279.985 452.843 279.037 452.951 278.389 453.167C277.765 453.383 277.453 453.815 277.453 454.463C277.453 455.135 277.777 455.615 278.425 455.903C279.097 456.167 280.165 456.539 281.629 457.019C282.973 457.427 284.041 457.859 284.833 458.315C285.625 458.771 286.189 459.323 286.525 459.971C286.885 460.595 287.065 461.411 287.065 462.419C287.065 464.099 286.453 465.359 285.229 466.199C284.005 467.015 282.229 467.423 279.901 467.423Z" fill="white"/>
<path d="M386.541 77.4089V70.9727H290.763V71.206C276.473 72.2512 262.644 76.6975 250.442 84.1701C238.241 91.6427 228.024 101.923 220.653 114.144C215.201 55.1234 125.094 58.9851 125.094 118.601C124.989 145.899 148.593 167.959 175.976 166.125C161.75 172.887 149.574 183.268 140.68 196.217C131.786 209.165 126.49 224.221 125.329 239.86H125.094V335.117C159.231 337.096 191.362 319.975 207.929 292.308V335.117C257.096 338.158 300.147 301.222 303.472 252.733H303.706V252.499C352.461 249.233 389.615 206.376 386.541 157.476H335.878C351.042 150.224 363.841 138.863 372.803 124.699C381.765 110.535 386.527 94.1439 386.541 77.4089ZM221.519 236.658C225.394 202.007 255.817 172.979 290.804 170.622V239.86H221.147C221.236 238.79 221.357 237.72 221.478 236.658H221.519ZM290.763 84.1187V153.357H221.147C222.695 135.511 230.527 118.781 243.263 106.115C255.998 93.4485 272.82 85.6591 290.763 84.1187ZM138.037 118.601C138.846 72.9277 207.112 72.9277 207.929 118.601C207.104 164.298 138.846 164.298 138.037 118.601ZM214.4 170.349H250.859C226.494 184.975 209.967 211.565 208.155 239.86H138.312C139.955 220.908 148.68 203.257 162.765 190.389C176.851 177.521 195.274 170.371 214.4 170.349ZM138.037 321.987V252.733H207.654C206.104 270.58 198.272 287.311 185.537 299.98C172.802 312.648 155.982 320.441 138.037 321.987ZM220.872 321.987V252.733H290.488C288.94 270.581 281.109 287.313 268.374 299.981C255.638 312.65 238.817 320.443 220.872 321.987ZM303.706 239.603V170.349H373.323C371.774 188.196 363.943 204.927 351.208 217.594C338.472 230.261 321.651 238.052 303.706 239.595V239.603ZM303.706 153.091V83.8452H373.323C371.774 101.691 363.942 118.421 351.207 131.087C338.472 143.753 321.65 151.543 303.706 153.083V153.091Z" fill="#F0F2F5"/>
<defs>
<linearGradient id="paint0_linear_218_895" x1="4.74509e-06" y1="518" x2="512" y2="32" gradientUnits="userSpaceOnUse">
<stop offset="0.0001" stop-color="#893610"/>
<stop offset="1" stop-color="#E66225"/>
</linearGradient>
</defs>
</svg>
