<svg width="512" height="512" viewBox="0 0 512 512" fill="none" xmlns="http://www.w3.org/2000/svg">
<rect width="512" height="512" fill="url(#paint0_linear_218_888)"/>
<path d="M123.664 404.775V364.943H135.292V379.787H149.023V364.943H160.652V404.775H149.023V389.931H135.292V404.775H123.664ZM163.155 404.775V364.943H174.474L184.37 385.168L194.205 364.943H205.462V404.775H193.834V384.859L187.463 397.972H181.216L174.783 384.859V404.775H163.155ZM207.961 404.775V364.943H219.59V404.775H207.961ZM222.083 404.775V364.943H252.02V373.602H233.712V380.468H249.669V389.251H233.712V404.775H222.083ZM279.869 405.394C274.385 405.394 270.035 404.074 266.818 401.435C263.643 398.755 262.056 394.879 262.056 389.807V364.943H270.406V389.189C270.406 392.24 271.23 394.529 272.88 396.054C274.529 397.539 276.859 398.281 279.869 398.281C282.879 398.281 285.188 397.539 286.796 396.054C288.446 394.529 289.271 392.24 289.271 389.189V364.943H297.621V389.807C297.621 394.879 296.033 398.755 292.858 401.435C289.683 404.074 285.353 405.394 279.869 405.394ZM301.252 404.775V364.943H309.664L321.354 388.88L333.044 364.943H341.394V404.775H333.044V378.86L323.766 397.91H318.942L309.602 378.86V404.775H301.252ZM345.333 404.775V364.943H352.57L371.435 391.477V364.943H379.785V404.775H372.548L353.683 378.241V404.775H345.333Z" fill="white"/>
<path d="M123.069 440.063V419.455H132.541C134.845 419.455 136.52 420.052 137.565 421.247C138.632 422.42 139.165 424.02 139.165 426.047C139.165 427.497 138.803 428.735 138.077 429.759C137.352 430.783 136.307 431.497 134.941 431.903C135.325 432.18 135.624 432.479 135.837 432.799C136.051 433.119 136.264 433.545 136.477 434.079L139.069 440.063H135.485L132.957 434.303C132.723 433.748 132.435 433.353 132.093 433.119C131.773 432.884 131.219 432.767 130.429 432.767H126.557V440.063H123.069ZM126.557 429.951H131.613C132.872 429.951 133.864 429.641 134.589 429.023C135.315 428.404 135.677 427.412 135.677 426.047C135.677 423.465 134.429 422.175 131.933 422.175H126.557V429.951ZM151.412 440.383C148.766 440.383 146.718 439.732 145.268 438.431C143.817 437.129 143.092 435.135 143.092 432.447C143.092 430.015 143.71 428.095 144.948 426.687C146.185 425.279 148.062 424.575 150.58 424.575C152.884 424.575 154.612 425.183 155.764 426.399C156.937 427.593 157.524 429.14 157.524 431.039V433.855H146.42C146.59 435.327 147.124 436.34 148.02 436.895C148.916 437.449 150.281 437.727 152.116 437.727C152.884 437.727 153.673 437.652 154.484 437.503C155.294 437.353 155.998 437.161 156.596 436.927V439.487C155.913 439.785 155.124 440.009 154.228 440.159C153.353 440.308 152.414 440.383 151.412 440.383ZM146.42 431.583H154.452V430.527C154.452 429.481 154.164 428.671 153.588 428.095C153.012 427.497 152.041 427.199 150.676 427.199C149.054 427.199 147.934 427.551 147.316 428.255C146.718 428.959 146.42 430.068 146.42 431.583ZM167.419 440.383C166.374 440.383 165.371 440.308 164.411 440.159C163.472 440.009 162.694 439.828 162.075 439.615V436.671C162.8 436.948 163.6 437.161 164.475 437.311C165.35 437.46 166.182 437.535 166.971 437.535C168.166 437.535 169.019 437.428 169.531 437.215C170.043 437.001 170.299 436.585 170.299 435.967C170.299 435.519 170.139 435.167 169.819 434.911C169.52 434.655 169.062 434.42 168.443 434.207C167.846 433.993 167.078 433.737 166.139 433.439C165.243 433.14 164.464 432.82 163.803 432.479C163.142 432.116 162.63 431.657 162.267 431.103C161.904 430.548 161.723 429.823 161.723 428.927C161.723 427.54 162.224 426.473 163.227 425.727C164.23 424.959 165.84 424.575 168.059 424.575C168.934 424.575 169.766 424.639 170.555 424.767C171.344 424.895 172.016 425.055 172.571 425.247V428.159C171.974 427.924 171.312 427.743 170.587 427.615C169.883 427.487 169.222 427.423 168.603 427.423C167.494 427.423 166.651 427.519 166.075 427.711C165.52 427.903 165.243 428.287 165.243 428.863C165.243 429.46 165.531 429.887 166.107 430.143C166.704 430.377 167.654 430.708 168.955 431.135C170.15 431.497 171.099 431.881 171.803 432.287C172.507 432.692 173.008 433.183 173.307 433.759C173.627 434.313 173.787 435.039 173.787 435.935C173.787 437.428 173.243 438.548 172.155 439.295C171.067 440.02 169.488 440.383 167.419 440.383ZM186.018 440.383C183.373 440.383 181.325 439.732 179.874 438.431C178.423 437.129 177.698 435.135 177.698 432.447C177.698 430.015 178.317 428.095 179.554 426.687C180.791 425.279 182.669 424.575 185.186 424.575C187.49 424.575 189.218 425.183 190.37 426.399C191.543 427.593 192.13 429.14 192.13 431.039V433.855H181.026C181.197 435.327 181.73 436.34 182.626 436.895C183.522 437.449 184.887 437.727 186.722 437.727C187.49 437.727 188.279 437.652 189.09 437.503C189.901 437.353 190.605 437.161 191.202 436.927V439.487C190.519 439.785 189.73 440.009 188.834 440.159C187.959 440.308 187.021 440.383 186.018 440.383ZM181.026 431.583H189.058V430.527C189.058 429.481 188.77 428.671 188.194 428.095C187.618 427.497 186.647 427.199 185.282 427.199C183.661 427.199 182.541 427.551 181.922 428.255C181.325 428.959 181.026 430.068 181.026 431.583ZM201.861 440.383C200.901 440.383 200.005 440.212 199.173 439.871C198.363 439.529 197.712 439.017 197.221 438.335C196.731 437.631 196.485 436.767 196.485 435.743C196.485 434.292 196.976 433.129 197.957 432.255C198.96 431.359 200.496 430.911 202.565 430.911H207.429V430.239C207.429 429.513 207.312 428.937 207.077 428.511C206.864 428.084 206.459 427.775 205.861 427.583C205.285 427.391 204.432 427.295 203.301 427.295C201.509 427.295 199.835 427.561 198.277 428.095V425.503C198.96 425.225 199.792 425.001 200.773 424.831C201.755 424.66 202.811 424.575 203.941 424.575C206.16 424.575 207.845 425.023 208.997 425.919C210.171 426.815 210.757 428.276 210.757 430.303V440.063H207.781L207.557 438.527C206.939 439.124 206.171 439.583 205.253 439.903C204.357 440.223 203.227 440.383 201.861 440.383ZM202.789 437.887C203.835 437.887 204.741 437.716 205.509 437.375C206.299 437.012 206.939 436.532 207.429 435.935V433.279H202.629C201.605 433.279 200.859 433.481 200.389 433.887C199.941 434.271 199.717 434.868 199.717 435.679C199.717 436.468 199.984 437.033 200.517 437.375C201.051 437.716 201.808 437.887 202.789 437.887ZM216.225 440.063V424.895H219.425L219.617 426.655C220.343 426.185 221.207 425.759 222.209 425.375C223.212 424.991 224.204 424.724 225.185 424.575V427.231C224.588 427.337 223.937 427.497 223.233 427.711C222.551 427.903 221.9 428.127 221.281 428.383C220.663 428.617 220.14 428.863 219.713 429.119V440.063H216.225ZM236.156 440.383C233.49 440.383 231.474 439.711 230.108 438.367C228.743 437.001 228.06 435.039 228.06 432.479C228.06 429.812 228.807 427.828 230.3 426.527C231.815 425.225 233.831 424.575 236.348 424.575C237.394 424.575 238.268 424.649 238.972 424.799C239.698 424.948 240.391 425.183 241.052 425.503V428.095C239.943 427.54 238.599 427.263 237.02 427.263C235.271 427.263 233.927 427.657 232.988 428.447C232.05 429.215 231.58 430.559 231.58 432.479C231.58 434.292 231.996 435.625 232.828 436.479C233.66 437.311 235.036 437.727 236.956 437.727C238.471 437.727 239.847 437.439 241.084 436.863V439.519C240.38 439.796 239.623 440.009 238.812 440.159C238.023 440.308 237.138 440.383 236.156 440.383ZM245.457 440.063V418.495H248.945V426.367C249.606 425.833 250.395 425.407 251.313 425.087C252.23 424.745 253.265 424.575 254.417 424.575C256.337 424.575 257.755 425.033 258.673 425.951C259.59 426.868 260.049 428.297 260.049 430.239V440.063H256.593V430.399C256.593 429.225 256.337 428.404 255.825 427.935C255.334 427.465 254.47 427.231 253.233 427.231C252.465 427.231 251.686 427.401 250.897 427.743C250.107 428.063 249.457 428.489 248.945 429.023V440.063H245.457ZM281.252 440.383C279.033 440.383 277.252 439.903 275.908 438.943C274.564 437.961 273.892 436.66 273.892 435.039C273.892 433.588 274.318 432.361 275.172 431.359C276.046 430.356 277.23 429.449 278.724 428.639C277.892 427.892 277.22 427.156 276.708 426.431C276.217 425.705 275.972 424.852 275.972 423.871C275.972 422.527 276.452 421.407 277.412 420.511C278.372 419.593 279.694 419.135 281.38 419.135C283.044 419.135 284.345 419.572 285.284 420.447C286.244 421.3 286.724 422.441 286.724 423.871C286.724 424.98 286.457 425.929 285.924 426.719C285.39 427.508 284.537 428.287 283.364 429.055L288.1 433.887C288.441 433.161 288.612 432.308 288.612 431.327V430.783H291.268V431.391C291.268 432.201 291.161 433.001 290.948 433.791C290.734 434.559 290.446 435.231 290.084 435.807L292.676 438.431L290.564 440.351L288.26 438.047C287.47 438.857 286.478 439.455 285.284 439.839C284.089 440.201 282.745 440.383 281.252 440.383ZM281.188 427.551C282.105 426.953 282.788 426.42 283.236 425.951C283.684 425.481 283.908 424.841 283.908 424.031C283.908 423.284 283.705 422.697 283.3 422.271C282.916 421.823 282.276 421.599 281.38 421.599C280.462 421.599 279.801 421.833 279.396 422.303C278.99 422.772 278.788 423.348 278.788 424.031C278.788 424.692 278.98 425.289 279.364 425.823C279.769 426.335 280.377 426.911 281.188 427.551ZM281.252 437.951C283.385 437.951 285.017 437.343 286.148 436.127L280.804 430.719C279.609 431.209 278.713 431.796 278.116 432.479C277.54 433.14 277.252 433.972 277.252 434.975C277.252 435.956 277.625 436.703 278.372 437.215C279.118 437.705 280.078 437.951 281.252 437.951ZM123.069 464.063V443.455H131.421C134.472 443.455 136.733 444.265 138.205 445.887C139.677 447.487 140.413 450.153 140.413 453.887C140.413 457.407 139.688 459.988 138.237 461.631C136.787 463.252 134.515 464.063 131.421 464.063H123.069ZM126.557 461.375H130.877C132.221 461.375 133.341 461.183 134.237 460.799C135.133 460.393 135.805 459.647 136.253 458.559C136.701 457.471 136.925 455.913 136.925 453.887C136.925 451.86 136.723 450.292 136.317 449.183C135.912 448.073 135.261 447.295 134.365 446.847C133.491 446.399 132.328 446.175 130.877 446.175H126.557V461.375ZM153.13 464.383C150.485 464.383 148.437 463.732 146.986 462.431C145.536 461.129 144.81 459.135 144.81 456.447C144.81 454.015 145.429 452.095 146.666 450.687C147.904 449.279 149.781 448.575 152.298 448.575C154.602 448.575 156.33 449.183 157.482 450.399C158.656 451.593 159.242 453.14 159.242 455.039V457.855H148.138C148.309 459.327 148.842 460.34 149.738 460.895C150.634 461.449 152 461.727 153.834 461.727C154.602 461.727 155.392 461.652 156.202 461.503C157.013 461.353 157.717 461.161 158.314 460.927V463.487C157.632 463.785 156.842 464.009 155.946 464.159C155.072 464.308 154.133 464.383 153.13 464.383ZM148.138 455.583H156.17V454.527C156.17 453.481 155.882 452.671 155.306 452.095C154.73 451.497 153.76 451.199 152.394 451.199C150.773 451.199 149.653 451.551 149.034 452.255C148.437 452.959 148.138 454.068 148.138 455.583ZM167.832 464.063L161.848 448.895H165.464L169.72 460.671L173.976 448.895H177.56L171.608 464.063H167.832ZM188.518 464.383C185.873 464.383 183.825 463.732 182.374 462.431C180.923 461.129 180.198 459.135 180.198 456.447C180.198 454.015 180.817 452.095 182.054 450.687C183.291 449.279 185.169 448.575 187.686 448.575C189.99 448.575 191.718 449.183 192.87 450.399C194.043 451.593 194.63 453.14 194.63 455.039V457.855H183.526C183.697 459.327 184.23 460.34 185.126 460.895C186.022 461.449 187.387 461.727 189.222 461.727C189.99 461.727 190.779 461.652 191.59 461.503C192.401 461.353 193.105 461.161 193.702 460.927V463.487C193.019 463.785 192.23 464.009 191.334 464.159C190.459 464.308 189.521 464.383 188.518 464.383ZM183.526 455.583H191.558V454.527C191.558 453.481 191.27 452.671 190.694 452.095C190.118 451.497 189.147 451.199 187.782 451.199C186.161 451.199 185.041 451.551 184.422 452.255C183.825 452.959 183.526 454.068 183.526 455.583ZM203.401 464.383C202.164 464.383 201.225 464.084 200.585 463.487C199.945 462.868 199.625 461.855 199.625 460.447V442.495H203.113V460.127C203.113 460.724 203.22 461.129 203.433 461.343C203.647 461.556 203.967 461.663 204.393 461.663C204.905 461.663 205.396 461.599 205.865 461.471V463.999C205.46 464.148 205.065 464.244 204.681 464.287C204.319 464.351 203.892 464.383 203.401 464.383ZM217.458 464.383C214.728 464.383 212.722 463.7 211.442 462.335C210.184 460.969 209.554 459.017 209.554 456.479C209.554 453.94 210.194 451.988 211.474 450.623C212.754 449.257 214.749 448.575 217.458 448.575C220.189 448.575 222.194 449.257 223.474 450.623C224.754 451.988 225.394 453.94 225.394 456.479C225.394 459.017 224.754 460.969 223.474 462.335C222.216 463.7 220.21 464.383 217.458 464.383ZM217.458 461.439C219.058 461.439 220.189 461.055 220.85 460.287C221.533 459.497 221.874 458.228 221.874 456.479C221.874 454.729 221.533 453.471 220.85 452.703C220.189 451.935 219.058 451.551 217.458 451.551C215.88 451.551 214.749 451.935 214.066 452.703C213.405 453.471 213.074 454.729 213.074 456.479C213.074 458.228 213.405 459.497 214.066 460.287C214.749 461.055 215.88 461.439 217.458 461.439ZM230.388 470.975V448.895H233.396L233.588 450.399C234.271 449.78 235.017 449.321 235.828 449.023C236.639 448.724 237.599 448.575 238.708 448.575C240.884 448.575 242.58 449.172 243.796 450.367C245.012 451.54 245.62 453.492 245.62 456.223C245.62 458.953 244.991 461.001 243.732 462.367C242.473 463.711 240.756 464.383 238.58 464.383C236.745 464.383 235.177 463.956 233.876 463.103V470.975H230.388ZM237.684 461.759C240.628 461.759 242.1 459.903 242.1 456.191C242.1 454.399 241.769 453.129 241.108 452.383C240.447 451.615 239.337 451.231 237.78 451.231C236.223 451.231 234.921 451.764 233.876 452.831V460.415C234.367 460.82 234.911 461.151 235.508 461.407C236.127 461.641 236.852 461.759 237.684 461.759ZM250.613 464.063V448.895H253.813L253.973 450.495C254.72 449.897 255.541 449.428 256.437 449.087C257.333 448.745 258.293 448.575 259.317 448.575C260.405 448.575 261.248 448.756 261.845 449.119C262.464 449.46 262.933 449.94 263.253 450.559C263.957 449.983 264.768 449.513 265.685 449.151C266.602 448.767 267.701 448.575 268.981 448.575C270.73 448.575 272.021 449.023 272.853 449.919C273.685 450.815 274.101 452.191 274.101 454.047V464.063H270.677V454.399C270.677 453.225 270.432 452.404 269.941 451.935C269.45 451.465 268.65 451.231 267.541 451.231C266.816 451.231 266.122 451.359 265.461 451.615C264.821 451.871 264.266 452.255 263.797 452.767C263.861 453.001 263.904 453.247 263.925 453.503C263.946 453.759 263.957 454.036 263.957 454.335V464.063H260.725V454.431C260.725 453.321 260.533 452.511 260.149 451.999C259.765 451.487 259.04 451.231 257.973 451.231C257.226 451.231 256.512 451.412 255.829 451.775C255.168 452.116 254.57 452.532 254.037 453.023V464.063H250.613ZM286.987 464.383C284.341 464.383 282.293 463.732 280.843 462.431C279.392 461.129 278.667 459.135 278.667 456.447C278.667 454.015 279.285 452.095 280.523 450.687C281.76 449.279 283.637 448.575 286.155 448.575C288.459 448.575 290.187 449.183 291.339 450.399C292.512 451.593 293.099 453.14 293.099 455.039V457.855H281.995C282.165 459.327 282.699 460.34 283.595 460.895C284.491 461.449 285.856 461.727 287.691 461.727C288.459 461.727 289.248 461.652 290.059 461.503C290.869 461.353 291.573 461.161 292.171 460.927V463.487C291.488 463.785 290.699 464.009 289.803 464.159C288.928 464.308 287.989 464.383 286.987 464.383ZM281.995 455.583H290.027V454.527C290.027 453.481 289.739 452.671 289.163 452.095C288.587 451.497 287.616 451.199 286.251 451.199C284.629 451.199 283.509 451.551 282.891 452.255C282.293 452.959 281.995 454.068 281.995 455.583ZM298.094 464.063V448.895H301.294L301.454 450.495C302.137 449.961 302.948 449.513 303.886 449.151C304.846 448.767 305.902 448.575 307.054 448.575C309.017 448.575 310.446 449.033 311.342 449.951C312.238 450.868 312.686 452.297 312.686 454.239V464.063H309.23V454.399C309.23 453.225 308.985 452.404 308.494 451.935C308.025 451.465 307.129 451.231 305.806 451.231C305.017 451.231 304.238 451.391 303.47 451.711C302.724 452.031 302.094 452.447 301.582 452.959V464.063H298.094ZM323.986 464.383C322.365 464.383 321.149 463.956 320.338 463.103C319.549 462.228 319.154 461.044 319.154 459.551V451.615H316.914V448.895H319.154V445.407L322.61 444.351V448.895H326.642L326.418 451.615H322.61V459.359C322.61 460.233 322.813 460.852 323.218 461.215C323.624 461.556 324.285 461.727 325.202 461.727C325.778 461.727 326.386 461.62 327.026 461.407V463.871C326.194 464.212 325.181 464.383 323.986 464.383Z" fill="white"/>
<path d="M386.541 80.4089V73.9726H290.763V74.206C276.473 75.2512 262.644 79.6975 250.442 87.1701C238.241 94.6427 228.024 104.923 220.653 117.144C215.201 58.1233 125.094 61.9851 125.094 121.601C124.989 148.899 148.593 170.959 175.976 169.125C161.75 175.887 149.574 186.268 140.68 199.217C131.786 212.165 126.49 227.221 125.329 242.86H125.094V338.117C159.231 340.096 191.362 322.975 207.929 295.308V338.117C257.096 341.158 300.147 304.222 303.472 255.733H303.706V255.499C352.461 252.233 389.615 209.375 386.541 160.476H335.878C351.042 153.224 363.841 141.863 372.803 127.699C381.765 113.535 386.527 97.1439 386.541 80.4089ZM221.519 239.658C225.394 205.007 255.818 175.979 290.804 173.622V242.86H221.147C221.236 241.79 221.357 240.72 221.478 239.658H221.519ZM290.763 87.1187V156.357H221.147C222.695 138.511 230.527 121.781 243.263 109.115C255.998 96.4485 272.82 88.6591 290.763 87.1187ZM138.037 121.601C138.846 75.9277 207.112 75.9277 207.929 121.601C207.104 167.298 138.846 167.298 138.037 121.601ZM214.4 173.349H250.859C226.494 187.975 209.967 214.565 208.155 242.86H138.312C139.955 223.908 148.68 206.257 162.766 193.389C176.851 180.521 195.274 173.371 214.4 173.349ZM138.037 324.987V255.733H207.654C206.104 273.58 198.272 290.311 185.537 302.98C172.802 315.648 155.982 323.441 138.037 324.987ZM220.872 324.987V255.733H290.488C288.94 273.581 281.109 290.313 268.374 302.981C255.638 315.65 238.817 323.443 220.872 324.987ZM303.706 242.603V173.349H373.323C371.774 191.196 363.943 207.927 351.208 220.594C338.472 233.261 321.651 241.052 303.706 242.595V242.603ZM303.706 156.091V86.8452H373.323C371.774 104.691 363.942 121.421 351.207 134.087C338.472 146.753 321.65 154.543 303.706 156.083V156.091Z" fill="#F0F2F5"/>
<defs>
<linearGradient id="paint0_linear_218_888" x1="4.74509e-06" y1="518" x2="512" y2="32" gradientUnits="userSpaceOnUse">
<stop offset="0.0001" stop-color="#063860"/>
<stop offset="1" stop-color="#0B6FC1"/>
</linearGradient>
</defs>
</svg>
