<svg width="512" height="512" viewBox="0 0 512 512" fill="none" xmlns="http://www.w3.org/2000/svg">
<rect width="512" height="512" fill="url(#paint0_linear_218_902)"/>
<path d="M123.664 415.775V375.943H135.292V390.787H149.023V375.943H160.652V415.775H149.023V400.931H135.292V415.775H123.664ZM163.155 415.775V375.943H174.474L184.37 396.168L194.205 375.943H205.462V415.775H193.834V395.859L187.463 408.972H181.216L174.783 395.859V415.775H163.155ZM207.961 415.775V375.943H219.59V415.775H207.961ZM222.083 415.775V375.943H252.02V384.602H233.712V391.468H249.669V400.251H233.712V415.775H222.083ZM279.869 416.394C274.385 416.394 270.035 415.074 266.818 412.435C263.643 409.755 262.056 405.879 262.056 400.807V375.943H270.406V400.189C270.406 403.24 271.23 405.529 272.88 407.054C274.529 408.539 276.859 409.281 279.869 409.281C282.879 409.281 285.188 408.539 286.796 407.054C288.446 405.529 289.271 403.24 289.271 400.189V375.943H297.621V400.807C297.621 405.879 296.033 409.755 292.858 412.435C289.683 415.074 285.353 416.394 279.869 416.394ZM301.252 415.775V375.943H309.664L321.354 399.88L333.044 375.943H341.394V415.775H333.044V389.86L323.766 408.91H318.942L309.602 389.86V415.775H301.252ZM345.333 415.775V375.943H352.57L371.435 402.477V375.943H379.785V415.775H372.548L353.683 389.241V415.775H345.333Z" fill="white"/>
<path d="M129.333 454.063V433.939H121.917V430.879H140.637V433.939H133.257V454.063H129.333ZM147.5 454.423C146.42 454.423 145.412 454.231 144.476 453.847C143.564 453.463 142.832 452.887 142.28 452.119C141.728 451.327 141.452 450.355 141.452 449.203C141.452 447.571 142.004 446.263 143.108 445.279C144.236 444.271 145.964 443.767 148.292 443.767H153.764V443.011C153.764 442.195 153.632 441.547 153.368 441.067C153.128 440.587 152.672 440.239 152 440.023C151.352 439.807 150.392 439.699 149.12 439.699C147.104 439.699 145.22 439.999 143.468 440.599V437.683C144.236 437.371 145.172 437.119 146.276 436.927C147.38 436.735 148.568 436.639 149.84 436.639C152.336 436.639 154.232 437.143 155.528 438.151C156.848 439.159 157.508 440.803 157.508 443.083V454.063H154.16L153.908 452.335C153.212 453.007 152.348 453.523 151.316 453.883C150.308 454.243 149.036 454.423 147.5 454.423ZM148.544 451.615C149.72 451.615 150.74 451.423 151.604 451.039C152.492 450.631 153.212 450.091 153.764 449.419V446.431H148.364C147.212 446.431 146.372 446.659 145.844 447.115C145.34 447.547 145.088 448.219 145.088 449.131C145.088 450.019 145.388 450.655 145.988 451.039C146.588 451.423 147.44 451.615 148.544 451.615ZM169.348 454.423C168.172 454.423 167.044 454.339 165.964 454.171C164.908 454.003 164.032 453.799 163.336 453.559V450.247C164.152 450.559 165.052 450.799 166.036 450.967C167.02 451.135 167.956 451.219 168.844 451.219C170.188 451.219 171.148 451.099 171.724 450.859C172.3 450.619 172.588 450.151 172.588 449.455C172.588 448.951 172.408 448.555 172.048 448.267C171.712 447.979 171.196 447.715 170.5 447.475C169.828 447.235 168.964 446.947 167.908 446.611C166.9 446.275 166.024 445.915 165.28 445.531C164.536 445.123 163.96 444.607 163.552 443.983C163.144 443.359 162.94 442.543 162.94 441.535C162.94 439.975 163.504 438.775 164.632 437.935C165.76 437.071 167.572 436.639 170.068 436.639C171.052 436.639 171.988 436.711 172.876 436.855C173.764 436.999 174.52 437.179 175.144 437.395V440.671C174.472 440.407 173.728 440.203 172.912 440.059C172.12 439.915 171.376 439.843 170.68 439.843C169.432 439.843 168.484 439.951 167.836 440.167C167.212 440.383 166.9 440.815 166.9 441.463C166.9 442.135 167.224 442.615 167.872 442.903C168.544 443.167 169.612 443.539 171.076 444.019C172.42 444.427 173.488 444.859 174.28 445.315C175.072 445.771 175.636 446.323 175.972 446.971C176.332 447.595 176.512 448.411 176.512 449.419C176.512 451.099 175.9 452.359 174.676 453.199C173.452 454.015 171.676 454.423 169.348 454.423ZM182.159 454.063V429.799H186.083V443.839L193.247 436.999H197.747L190.799 443.875L198.143 454.063H194.003L188.351 445.963L186.083 448.123V454.063H182.159ZM213.392 454.063V430.879H229.16V433.939H217.316V440.959H227.828V443.983H217.316V454.063H213.392ZM240.801 454.423C237.729 454.423 235.473 453.655 234.033 452.119C232.617 450.583 231.909 448.387 231.909 445.531C231.909 442.675 232.629 440.479 234.069 438.943C235.509 437.407 237.753 436.639 240.801 436.639C243.873 436.639 246.129 437.407 247.569 438.943C249.009 440.479 249.729 442.675 249.729 445.531C249.729 448.387 249.009 450.583 247.569 452.119C246.153 453.655 243.897 454.423 240.801 454.423ZM240.801 451.111C242.601 451.111 243.873 450.679 244.617 449.815C245.385 448.927 245.769 447.499 245.769 445.531C245.769 443.563 245.385 442.147 244.617 441.283C243.873 440.419 242.601 439.987 240.801 439.987C239.025 439.987 237.753 440.419 236.985 441.283C236.241 442.147 235.869 443.563 235.869 445.531C235.869 447.499 236.241 448.927 236.985 449.815C237.753 450.679 239.025 451.111 240.801 451.111ZM255.347 454.063V436.999H258.947L259.163 438.979C259.979 438.451 260.951 437.971 262.079 437.539C263.207 437.107 264.323 436.807 265.427 436.639V439.627C264.755 439.747 264.023 439.927 263.231 440.167C262.463 440.383 261.731 440.635 261.035 440.923C260.339 441.187 259.751 441.463 259.271 441.751V454.063H255.347ZM277.769 454.423C274.769 454.423 272.501 453.667 270.965 452.155C269.429 450.619 268.661 448.411 268.661 445.531C268.661 442.531 269.501 440.299 271.181 438.835C272.885 437.371 275.153 436.639 277.985 436.639C279.161 436.639 280.145 436.723 280.937 436.891C281.753 437.059 282.533 437.323 283.277 437.683V440.599C282.029 439.975 280.517 439.663 278.741 439.663C276.773 439.663 275.261 440.107 274.205 440.995C273.149 441.859 272.621 443.371 272.621 445.531C272.621 447.571 273.089 449.071 274.025 450.031C274.961 450.967 276.509 451.435 278.669 451.435C280.373 451.435 281.921 451.111 283.313 450.463V453.451C282.521 453.763 281.669 454.003 280.757 454.171C279.869 454.339 278.873 454.423 277.769 454.423ZM296.872 454.423C293.896 454.423 291.592 453.691 289.96 452.227C288.328 450.763 287.512 448.519 287.512 445.495C287.512 442.759 288.208 440.599 289.6 439.015C290.992 437.431 293.104 436.639 295.936 436.639C298.528 436.639 300.472 437.323 301.768 438.691C303.088 440.035 303.748 441.775 303.748 443.911V447.079H291.256C291.448 448.735 292.048 449.875 293.056 450.499C294.064 451.123 295.6 451.435 297.664 451.435C298.528 451.435 299.416 451.351 300.328 451.183C301.24 451.015 302.032 450.799 302.704 450.535V453.415C301.936 453.751 301.048 454.003 300.04 454.171C299.056 454.339 298 454.423 296.872 454.423ZM291.256 444.523H300.292V443.335C300.292 442.159 299.968 441.247 299.32 440.599C298.672 439.927 297.58 439.591 296.044 439.591C294.22 439.591 292.96 439.987 292.264 440.779C291.592 441.571 291.256 442.819 291.256 444.523Z" fill="white"/>
<path d="M386.541 91.4089V84.9727H290.763V85.206C276.473 86.2512 262.644 90.6975 250.442 98.1701C238.241 105.643 228.024 115.923 220.653 128.144C215.201 69.1234 125.094 72.9851 125.094 132.601C124.989 159.899 148.593 181.959 175.976 180.125C161.75 186.887 149.574 197.268 140.68 210.217C131.786 223.165 126.49 238.221 125.329 253.86H125.094V349.117C159.231 351.096 191.362 333.975 207.929 306.308V349.117C257.096 352.158 300.147 315.222 303.472 266.733H303.706V266.499C352.461 263.233 389.615 220.376 386.541 171.476H335.878C351.042 164.224 363.841 152.863 372.803 138.699C381.765 124.535 386.527 108.144 386.541 91.4089ZM221.519 250.658C225.394 216.007 255.817 186.979 290.804 184.622V253.86H221.147C221.236 252.79 221.357 251.72 221.478 250.658H221.519ZM290.763 98.1187V167.357H221.147C222.695 149.511 230.527 132.781 243.263 120.115C255.998 107.449 272.82 99.6591 290.763 98.1187ZM138.037 132.601C138.846 86.9277 207.112 86.9277 207.929 132.601C207.104 178.298 138.846 178.298 138.037 132.601ZM214.4 184.349H250.859C226.494 198.975 209.967 225.565 208.155 253.86H138.312C139.955 234.908 148.68 217.257 162.765 204.389C176.851 191.521 195.274 184.371 214.4 184.349ZM138.037 335.987V266.733H207.654C206.104 284.58 198.272 301.311 185.537 313.98C172.802 326.648 155.981 334.441 138.037 335.987ZM220.872 335.987V266.733H290.488C288.94 284.581 281.109 301.313 268.374 313.981C255.638 326.65 238.817 334.443 220.872 335.987ZM303.706 253.603V184.349H373.323C371.774 202.196 363.943 218.927 351.208 231.594C338.472 244.261 321.651 252.052 303.706 253.595V253.603ZM303.706 167.091V97.8452H373.323C371.774 115.691 363.942 132.421 351.207 145.087C338.471 157.753 321.65 165.543 303.706 167.083V167.091Z" fill="#F0F2F5"/>
<defs>
<linearGradient id="paint0_linear_218_902" x1="4.74509e-06" y1="518" x2="512" y2="32" gradientUnits="userSpaceOnUse">
<stop offset="0.0001" stop-color="#14181F"/>
<stop offset="1" stop-color="#29313D"/>
</linearGradient>
</defs>
</svg>
