<svg width="1500" height="252" viewBox="0 0 1500 252" fill="none" xmlns="http://www.w3.org/2000/svg">
<g clip-path="url(#clip0_79_1396)">
<path d="M1500 252H1400V152C1426.52 152 1451.96 162.536 1470.71 181.289C1489.46 200.043 1500 225.478 1500 252Z" fill="#005696"/>
<path d="M1400 152V52L1500 52C1500 78.5216 1489.46 103.957 1470.71 122.711C1451.96 141.464 1426.52 152 1400 152Z" fill="#E46225"/>
<path d="M1400 -48H1500V52C1473.48 52 1448.04 41.4643 1429.29 22.7107C1410.54 3.95704 1400 -21.4784 1400 -48Z" fill="#BF1E2D"/>
<path d="M1400 252H1300V152C1326.52 152 1351.96 162.536 1370.71 181.289C1389.46 200.043 1400 225.478 1400 252Z" fill="#005696"/>
<path d="M1300 52H1400V152C1373.48 152 1348.04 141.464 1329.29 122.711C1310.54 103.957 1300 78.5216 1300 52Z" fill="#E46225"/>
<path d="M1400 -48V52H1300C1300 25.4784 1310.54 0.0429573 1329.29 -18.7107C1348.04 -37.4643 1373.48 -48 1400 -48Z" fill="#149ED8"/>
<path d="M1200 152H1300V252C1273.48 252 1248.04 241.464 1229.29 222.711C1210.54 203.957 1200 178.522 1200 152Z" fill="#005696"/>
<path d="M1200 52H1300V152C1273.48 152 1248.04 141.464 1229.29 122.711C1210.54 103.957 1200 78.5216 1200 52Z" fill="#149ED8"/>
<path d="M1200 -48H1300V52C1273.48 52 1248.04 41.4643 1229.29 22.7107C1210.54 3.95704 1200 -21.4784 1200 -48Z" fill="#149ED8"/>
<path d="M1100 252V152H1200C1200 178.522 1189.46 203.957 1170.71 222.711C1151.96 241.464 1126.52 252 1100 252Z" fill="#E46225"/>
<path d="M1100 152V52L1200 52C1200 78.5216 1189.46 103.957 1170.71 122.711C1151.96 141.464 1126.52 152 1100 152Z" fill="#BF1E2D"/>
<path d="M1100 -48H1200V52C1173.48 52 1148.04 41.4643 1129.29 22.7107C1110.54 3.95704 1100 -21.4784 1100 -48Z" fill="#149ED8"/>
<path d="M1000 252V152H1100C1100 178.522 1089.46 203.957 1070.71 222.711C1051.96 241.464 1026.52 252 1000 252Z" fill="#E46225"/>
<path d="M1000 152V52L1100 52C1100 78.5216 1089.46 103.957 1070.71 122.711C1051.96 141.464 1026.52 152 1000 152Z" fill="#BF1E2D"/>
<path d="M1000 52V-48L1100 -48C1100 -21.4784 1089.46 3.95704 1070.71 22.7107C1051.96 41.4643 1026.52 52 1000 52Z" fill="#BF1E2D"/>
<path d="M950 152C922.386 152 900 174.386 900 202C900 229.614 922.386 252 950 252C977.614 252 1000 229.614 1000 202C1000 174.386 977.614 152 950 152Z" fill="#BF1E2D"/>
<path d="M900 102C900 129.614 922.386 152 950 152C977.614 152 1000 129.614 1000 102C1000 74.3858 977.614 52 950 52C922.386 52 900 74.3858 900 102Z" fill="#BF1E2D"/>
<path d="M900 -48H1000V52C973.478 52 948.043 41.4643 929.289 22.7107C910.536 3.95704 900 -21.4784 900 -48Z" fill="#E46225"/>
<path d="M900 252H800V152C826.522 152 851.957 162.536 870.711 181.289C889.464 200.043 900 225.478 900 252Z" fill="#E46225"/>
<path d="M800 102C800 129.614 822.386 152 850 152C877.614 152 900 129.614 900 102C900 74.3858 877.614 52 850 52C822.386 52 800 74.3858 800 102Z" fill="#BF1E2D"/>
<path d="M900 2C900 -25.6142 877.614 -48 850 -48C822.386 -48 800 -25.6142 800 2C800 29.6142 822.386 52 850 52C877.614 52 900 29.6142 900 2Z" fill="#BF1E2D"/>
<path d="M800 202C800 174.386 777.614 152 750 152C722.386 152 700 174.386 700 202C700 229.614 722.386 252 750 252C777.614 252 800 229.614 800 202Z" fill="#E46225"/>
<path d="M700 52H800V152C773.478 152 748.043 141.464 729.289 122.711C710.536 103.957 700 78.5216 700 52Z" fill="#E46225"/>
<path d="M800 -48V52H700C700 25.4784 710.536 0.0429573 729.289 -18.7107C748.043 -37.4643 773.478 -48 800 -48Z" fill="#149ED8"/>
<path d="M700 152V252H600C600 225.478 610.536 200.043 629.289 181.289C648.043 162.536 673.478 152 700 152Z" fill="#149ED8"/>
<path d="M650 52C622.386 52 600 74.3858 600 102C600 129.614 622.386 152 650 152C677.614 152 700 129.614 700 102C700 74.3858 677.614 52 650 52Z" fill="#149ED8"/>
<path d="M700 -48V52L600 52C600 25.4784 610.536 0.0429573 629.289 -18.7107C648.043 -37.4643 673.478 -48 700 -48Z" fill="#005696"/>
<path d="M500 252V152H600C600 178.522 589.464 203.957 570.711 222.711C551.957 241.464 526.522 252 500 252Z" fill="#BF1E2D"/>
<path d="M500 52H600V152C573.478 152 548.043 141.464 529.289 122.711C510.536 103.957 500 78.5216 500 52Z" fill="#BF1E2D"/>
<path d="M500 52V-48L600 -48C600 -21.4784 589.464 3.95704 570.711 22.7107C551.957 41.4643 526.522 52 500 52Z" fill="#149ED8"/>
<path d="M450 252C477.614 252 500 229.614 500 202C500 174.386 477.614 152 450 152C422.386 152 400 174.386 400 202C400 229.614 422.386 252 450 252Z" fill="#BF1E2D"/>
<path d="M400 52H500V152C473.478 152 448.043 141.464 429.289 122.711C410.536 103.957 400 78.5216 400 52Z" fill="#149ED8"/>
<path d="M500 -48V52H400C400 25.4784 410.536 0.0429611 429.289 -18.7107C448.043 -37.4643 473.478 -48 500 -48Z" fill="#005696"/>
<path d="M300 252V152H400C400 178.522 389.464 203.957 370.711 222.711C351.957 241.464 326.522 252 300 252Z" fill="#149ED8"/>
<path d="M400 152H300V52C326.522 52 351.957 62.5357 370.711 81.2893C389.464 100.043 400 125.478 400 152Z" fill="#E46225"/>
<path d="M300 52V-48L400 -48C400 -21.4784 389.464 3.95704 370.711 22.7107C351.957 41.4643 326.522 52 300 52Z" fill="#149ED8"/>
<path d="M300 252H200V152C226.522 152 251.957 162.536 270.711 181.289C289.464 200.043 300 225.478 300 252Z" fill="#149ED8"/>
<path d="M200 152V52L300 52C300 78.5216 289.464 103.957 270.711 122.711C251.957 141.464 226.522 152 200 152Z" fill="#149ED8"/>
<path d="M300 52L200 52V-48C226.522 -48 251.957 -37.4643 270.711 -18.7107C289.464 0.0429573 300 25.4784 300 52Z" fill="#E46225"/>
<path d="M100 252L100 152H200C200 178.522 189.464 203.957 170.711 222.711C151.957 241.464 126.522 252 100 252Z" fill="#005696"/>
<path d="M100 52H200V152C173.478 152 148.043 141.464 129.289 122.711C110.536 103.957 100 78.5216 100 52Z" fill="#149ED8"/>
<path d="M200 -48L200 52L100 52C100 25.4784 110.536 0.0429573 129.289 -18.7107C148.043 -37.4643 173.478 -48 200 -48Z" fill="#E46225"/>
<path d="M100 152L100 252H0C0 225.478 10.5357 200.043 29.2893 181.289C48.043 162.536 73.4784 152 100 152Z" fill="#005696"/>
<path d="M100 52V152H0C0 125.478 10.5357 100.043 29.2893 81.2893C48.043 62.5357 73.4784 52 100 52Z" fill="#149ED8"/>
<path d="M0 -48H100V52C73.4784 52 48.043 41.4643 29.2893 22.7107C10.5357 3.95704 0 -21.4784 0 -48Z" fill="#149ED8"/>
</g>
<defs>
<clipPath id="clip0_79_1396">
<rect width="1500" height="252" fill="white" transform="matrix(-1 0 0 -1 1500 252)"/>
</clipPath>
</defs>
</svg>
