<svg width="43" height="40" viewBox="0 0 43 40" fill="none" xmlns="http://www.w3.org/2000/svg">
<path d="M40.2573 24.3409C40.2484 28.8459 36.6068 32.5056 32.1352 32.5056C29.8682 32.5056 27.7082 31.5435 26.1641 29.853C25.7179 29.7091 25.3073 29.5562 24.9681 29.4303L24.9146 29.4124C23.9417 29.0437 23.2455 28.7739 21.9514 28.7739C20.6482 28.7739 19.9521 29.0437 18.9881 29.4124L18.9435 29.4303C18.6043 29.5562 18.1938 29.7091 17.7386 29.853C16.1945 31.5435 14.0256 32.5056 11.7675 32.5056C7.28694 32.5056 3.64539 28.8369 3.64539 24.3229C3.64539 23.9272 3.9667 23.6035 4.35942 23.6035C4.75213 23.6035 5.07345 23.9272 5.07345 24.3229C5.07345 28.0456 8.07238 31.0669 11.7675 31.0669C13.6864 31.0669 15.5251 30.2216 16.8014 28.7469C16.8907 28.648 17.0067 28.5671 17.1316 28.5311C17.6225 28.3873 18.0599 28.2164 18.4437 28.0725L18.4794 28.0546C19.4969 27.6679 20.3805 27.3262 21.9424 27.3262C23.5044 27.3262 24.388 27.6679 25.4055 28.0546L25.4501 28.0725C25.8339 28.2164 26.2712 28.3783 26.7532 28.5221C26.8782 28.5581 26.9942 28.639 27.0835 28.738C28.3598 30.2126 30.1984 31.0579 32.1174 31.0579C35.8125 31.0579 38.8114 28.0366 38.8114 24.3139C38.8114 24.3049 38.8114 24.2959 38.8114 24.2869C38.8293 23.8373 38.7489 22.9111 38.7132 22.5605C38.1777 19.5302 36.7586 14.027 36.223 11.9589C36.1249 11.5902 36.0535 11.3205 36.0178 11.1676C35.9196 10.8888 34.8842 8.2452 31.1891 8.2452C27.3601 8.2452 26.3962 11.0687 26.3605 11.1856L25.1288 15.0072C25.0485 15.2679 24.8253 15.4568 24.5576 15.4927C23.6561 15.6366 22.7993 15.7086 21.9246 15.7086C21.0588 15.7086 20.2109 15.6366 19.3184 15.4927C19.0595 15.4478 18.8364 15.2679 18.7561 15.0072L17.4976 11.1856C17.4619 11.0687 16.4801 8.2452 12.669 8.2452C11.0713 8.2452 9.77713 8.73076 8.82211 9.69291C8.07238 10.4572 7.82247 11.2395 7.82247 11.2395C7.70644 11.6172 7.30479 11.833 6.92993 11.7161C6.55506 11.5992 6.34085 11.2036 6.45688 10.8169C6.49258 10.7 6.82282 9.68392 7.79569 8.6858C8.6436 7.82257 10.1698 6.79749 12.669 6.79749C17.4976 6.79749 18.8007 10.5651 18.8542 10.718L19.9788 14.126C21.3087 14.3058 22.5761 14.3058 23.906 14.126L25.0038 10.736C25.0128 10.709 26.2802 6.79749 31.1891 6.79749C36.0267 6.79749 37.3209 10.5651 37.3744 10.727C37.3744 10.736 37.3833 10.745 37.3833 10.754C37.3833 10.763 37.3923 10.7719 37.3923 10.7809C37.428 10.9248 37.4994 11.2036 37.5976 11.5902C38.142 13.6854 39.579 19.2514 40.1145 22.3357C40.1145 22.3536 40.1234 22.3716 40.1234 22.3806C40.1502 22.4436 40.2752 23.6755 40.2573 24.3409ZM11.7586 29.2055C9.08987 29.2055 6.91208 27.0205 6.91208 24.3229C6.91208 23.9272 6.59076 23.6035 6.19805 23.6035C5.80533 23.6035 5.48402 23.9272 5.48402 24.3229C5.48402 27.8028 8.29551 30.6443 11.7586 30.6443C15.2216 30.6443 18.0331 27.8118 18.0331 24.3229C18.0331 20.843 15.2216 18.0015 11.7586 18.0015C11.3658 18.0015 11.0445 18.3252 11.0445 18.7209C11.0445 19.1165 11.3658 19.4402 11.7586 19.4402C14.4273 19.4402 16.605 21.6253 16.605 24.3229C16.605 27.0115 14.4273 29.2055 11.7586 29.2055ZM4.46652 23.1629C4.51115 23.1719 4.54685 23.1719 4.59148 23.1719C4.93064 23.1719 5.2341 22.9291 5.29658 22.5784C5.725 20.1506 6.45688 17.0034 6.96563 14.8543C7.05488 14.4677 6.82282 14.081 6.43903 13.9911C6.05524 13.9012 5.67145 14.135 5.58219 14.5216C5.06452 16.6977 4.32372 19.8629 3.8953 22.3357C3.81497 22.7223 4.08273 23.1 4.46652 23.1629ZM24.8343 16.365C22.951 16.0592 20.9339 16.0592 19.0506 16.365C18.6579 16.4279 18.399 16.7966 18.4615 17.1922C18.524 17.5879 18.8899 17.8486 19.2827 17.7857C21.0231 17.507 22.8796 17.507 24.6111 17.7857C24.6468 17.7947 24.6825 17.7947 24.7271 17.7947C25.0752 17.7947 25.3787 17.5429 25.4323 17.1922C25.4947 16.7966 25.227 16.4279 24.8343 16.365ZM11.7586 16.1402C10.0003 16.1402 8.32229 16.7067 6.89423 17.7767C6.58184 18.0105 6.51044 18.4691 6.75142 18.7838C6.98348 19.0985 7.43867 19.1705 7.75106 18.9277C8.92921 18.0465 10.3126 17.5789 11.7586 17.5789C14.1327 17.5789 16.3462 18.8737 17.5511 20.9509C17.685 21.1847 17.926 21.3106 18.167 21.3106C18.2919 21.3106 18.4169 21.2836 18.524 21.2117C18.8632 21.0138 18.9792 20.5732 18.7828 20.2315C17.328 17.7048 14.6325 16.1402 11.7586 16.1402ZM36.9906 17.7767C35.5715 16.7067 33.8846 16.1402 32.1263 16.1402C29.2523 16.1402 26.5569 17.7048 25.102 20.2315C24.9057 20.5732 25.0217 21.0138 25.3608 21.2117C25.4769 21.2746 25.5929 21.3106 25.7179 21.3106C25.9678 21.3106 26.1998 21.1847 26.3337 20.9509C27.5386 18.8737 29.7521 17.5789 32.1263 17.5789C33.5722 17.5789 34.9646 18.0465 36.1338 18.9277C36.4462 19.1615 36.9014 19.0985 37.1334 18.7838C37.3744 18.4601 37.3119 18.0105 36.9906 17.7767ZM38.4901 24.206C38.4008 20.798 35.625 18.0555 32.2245 18.0555C31.8318 18.0555 31.5104 18.3792 31.5104 18.7748C31.5104 19.1705 31.8318 19.4942 32.2245 19.4942C34.8753 19.4942 37.0442 21.6613 37.062 24.3319C37.0353 27.0025 34.8753 29.1696 32.2245 29.1696C29.5558 29.1696 27.378 26.9845 27.378 24.2869C27.378 23.8913 27.0567 23.5676 26.664 23.5676C26.2712 23.5676 25.9499 23.8913 25.9499 24.2869C25.9499 27.7668 28.7614 30.6083 32.2245 30.6083C35.625 30.6083 38.4008 27.8657 38.4901 24.4578C38.4901 24.4308 38.4901 24.4038 38.4901 24.3768C38.4901 24.3589 38.4901 24.3499 38.4901 24.3319C38.4901 24.3139 38.4901 24.3049 38.4901 24.2869C38.4901 24.2599 38.4901 24.233 38.4901 24.206Z" fill="white"/>
<path d="M24.2362 0.0625V4.46858H20.3983V0.0625H24.2362Z" fill="white"/>
<path d="M23.183 39.8161H15.9981L19.595 36.1923L23.183 39.8161Z" fill="white"/>
<path d="M3.73463 33.8005C3.73463 34.1961 3.41332 34.5198 3.0206 34.5198C1.7175 34.5198 0.664299 33.4588 0.664299 32.1459C0.664299 30.8331 1.7175 29.772 3.0206 29.772C3.41332 29.772 3.73463 30.0958 3.73463 30.4914C3.73463 30.8871 3.41332 31.2108 3.0206 31.2108C2.51185 31.2108 2.09236 31.6334 2.09236 32.1459C2.09236 32.6585 2.51185 33.0811 3.0206 33.0811C3.41332 33.0811 3.73463 33.4048 3.73463 33.8005ZM41.3105 0.395203H29.3326C28.9399 0.395203 28.6186 0.718914 28.6186 1.11456C28.6186 1.51021 28.9399 1.83392 29.3326 1.83392H41.3105C41.7032 1.83392 42.0245 1.51021 42.0245 1.11456C42.0245 0.718914 41.7122 0.395203 41.3105 0.395203ZM11.4997 38.2515H4.40404C4.01132 38.2515 3.69001 38.5752 3.69001 38.9709C3.69001 39.3665 4.01132 39.6902 4.40404 39.6902H11.4997C11.8924 39.6902 12.2137 39.3665 12.2137 38.9709C12.2137 38.5752 11.8924 38.2515 11.4997 38.2515ZM4.13628 4.36067C4.51114 3.98301 4.51114 3.37155 4.13628 2.99389C3.76141 2.61623 3.15448 2.61623 2.77962 2.99389C2.40475 3.37155 2.40475 3.98301 2.77962 4.36067C3.15448 4.73834 3.76141 4.73834 4.13628 4.36067ZM39.8646 38.2875C39.4897 38.6651 39.4897 39.2766 39.8646 39.6543C40.2395 40.0319 40.8464 40.0319 41.2213 39.6543C41.5961 39.2766 41.5961 38.6651 41.2213 38.2875C40.8464 37.9098 40.2395 37.9098 39.8646 38.2875ZM28.7882 36.543H28.4401V36.1923C28.4401 35.7967 28.1188 35.473 27.7261 35.473C27.3334 35.473 27.012 35.7967 27.012 36.1923V36.543H26.664C26.2712 36.543 25.9499 36.8667 25.9499 37.2624C25.9499 37.658 26.2712 37.9817 26.664 37.9817H27.012V38.3324C27.012 38.7281 27.3334 39.0518 27.7261 39.0518C28.1188 39.0518 28.4401 38.7281 28.4401 38.3324V37.9817H28.7882C29.1809 37.9817 29.5022 37.658 29.5022 37.2624C29.5022 36.8667 29.1809 36.543 28.7882 36.543ZM14.2041 1.62711H13.856V1.27642C13.856 0.880771 13.5347 0.557059 13.142 0.557059C12.7493 0.557059 12.428 0.880771 12.428 1.27642V1.62711H12.0799C11.6872 1.62711 11.3658 1.95082 11.3658 2.34647C11.3658 2.74211 11.6872 3.06583 12.0799 3.06583H12.428V3.41651C12.428 3.81216 12.7493 4.13587 13.142 4.13587C13.5347 4.13587 13.856 3.81216 13.856 3.41651V3.06583H14.2041C14.5968 3.06583 14.9181 2.74211 14.9181 2.34647C14.9181 1.95082 14.5968 1.62711 14.2041 1.62711ZM39.6415 4.79229C39.2666 4.41462 38.6597 4.41462 38.2848 4.79229C37.9099 5.16995 37.9099 5.78141 38.2848 6.15907C38.6597 6.53674 39.2666 6.53674 39.6415 6.15907C40.0163 5.78141 40.0163 5.16995 39.6415 4.79229ZM8.98276 12.4265C9.37548 12.4265 9.69679 12.1028 9.69679 11.7071C9.69679 11.3115 9.37548 10.9878 8.98276 10.9878H0.771404C0.378687 10.9878 0.057373 11.3115 0.057373 11.7071C0.057373 12.1028 0.378687 12.4265 0.771404 12.4265H8.98276ZM8.33121 13.5775H3.45795C3.06523 13.5775 2.74391 13.9012 2.74391 14.2968C2.74391 14.6925 3.06523 15.0162 3.45795 15.0162H8.34013C8.73285 15.0162 9.05416 14.6925 9.05416 14.2968C9.05416 13.9012 8.73285 13.5775 8.33121 13.5775Z" fill="white"/>
</svg>
