<svg width="39" height="40" viewBox="0 0 39 40" fill="none" xmlns="http://www.w3.org/2000/svg">
<path d="M36.7116 32.2987C36.7116 32.6707 36.4231 32.975 36.0705 32.975H32.6243C32.2716 32.975 31.9831 32.6707 31.9831 32.2987C31.9831 31.9268 32.2716 31.6225 32.6243 31.6225H36.0705C36.4231 31.6225 36.7116 31.9268 36.7116 32.2987ZM7.97183 34.9275H2.05716C1.70452 34.9275 1.416 35.2318 1.416 35.6038C1.416 35.9757 1.70452 36.28 2.05716 36.28H7.97183C8.32446 36.28 8.61298 35.9757 8.61298 35.6038C8.61298 35.2318 8.32446 34.9275 7.97183 34.9275ZM33.2815 4.95412H34.5477V6.28965C34.5477 6.66157 34.8363 6.96587 35.1889 6.96587C35.5415 6.96587 35.8301 6.66157 35.8301 6.28965V4.95412H37.0963C37.449 4.95412 37.7375 4.64982 37.7375 4.2779C37.7375 3.90598 37.449 3.60168 37.0963 3.60168H35.8301V2.26615C35.8301 1.89423 35.5415 1.58993 35.1889 1.58993C34.8363 1.58993 34.5477 1.89423 34.5477 2.26615V3.60168H33.2815C32.9288 3.60168 32.6403 3.90598 32.6403 4.2779C32.6403 4.64982 32.9288 4.95412 33.2815 4.95412ZM37.6013 28.495C37.1284 28.495 36.7357 28.9007 36.7357 29.4079C36.7357 29.9066 37.1204 30.3208 37.6013 30.3208C38.0741 30.3208 38.4668 29.9151 38.4668 29.4079C38.4668 28.9007 38.0741 28.495 37.6013 28.495ZM7.78749 0.930614C7.78749 0.558693 7.49897 0.254395 7.14634 0.254395H1.23167C0.879035 0.254395 0.590515 0.558693 0.590515 0.930614C0.590515 1.30253 0.879035 1.60683 1.23167 1.60683H7.14634C7.49897 1.60683 7.78749 1.30253 7.78749 0.930614ZM4.61377 3.27202C4.26113 3.27202 3.97261 3.57632 3.97261 3.94824C3.97261 4.32016 4.26113 4.62446 4.61377 4.62446H7.5711C7.92374 4.62446 8.21226 4.32016 8.21226 3.94824C8.21226 3.57632 7.92374 3.27202 7.5711 3.27202H4.61377Z" fill="white"/>
<path d="M4.14093 39.7456H1.31183V37.8438H4.13292V39.7456H4.14093Z" fill="white"/>
<path d="M4.14093 9.22276H1.31183V7.39697H4.13292V9.22276H4.14093Z" fill="white"/>
<path d="M20.4423 38.4862C10.9051 38.4862 3.14713 30.3039 3.14713 20.2451C3.14713 10.609 10.296 2.62117 19.4245 2.05484C19.7771 2.02948 20.0817 2.31688 20.1057 2.6888C20.1297 3.06072 19.8573 3.38192 19.5046 3.40728C11.0414 3.9229 4.42142 11.319 4.42142 20.2451C4.42142 29.5601 11.6024 37.1337 20.4343 37.1337C29.2662 37.1337 36.4472 29.5601 36.4472 20.2451C36.4472 11.3275 29.8272 3.9229 21.372 3.40728C21.0194 3.38192 20.7469 3.06917 20.7709 2.6888C20.7949 2.31688 21.0915 2.02948 21.4521 2.05484C30.5886 2.61272 37.7375 10.609 37.7375 20.2451C37.7375 30.3039 29.9795 38.4862 20.4423 38.4862ZM20.4423 36.4237C20.0897 36.4237 19.8012 36.1194 19.8012 35.7475C19.8012 35.3755 20.0897 35.0712 20.4423 35.0712C28.1923 35.0712 34.4997 28.4189 34.4997 20.2451C34.4997 19.8732 34.7882 19.5689 35.1408 19.5689C35.4935 19.5689 35.782 19.8732 35.782 20.2451C35.782 29.1628 28.8976 36.4237 20.4423 36.4237ZM20.4423 32.2903C14.143 32.2903 9.02172 26.889 9.02172 20.2451C9.02172 19.8732 9.31024 19.5689 9.66287 19.5689C10.0155 19.5689 10.304 19.8732 10.304 20.2451C10.304 26.1367 14.8482 30.9379 20.4423 30.9379C26.0284 30.9379 30.5806 26.1452 30.5806 20.2451C30.5806 14.7678 26.5333 10.0934 21.364 9.59469C21.0354 9.56087 20.7789 9.27348 20.7789 8.91847V7.83652C20.7789 7.6421 20.6266 7.4815 20.4423 7.4815C20.258 7.4815 20.1057 7.6421 20.1057 7.83652C20.1057 8.20844 19.8172 8.51274 19.4646 8.51274C19.1119 8.51274 18.8234 8.20844 18.8234 7.83652C18.8234 6.88981 19.5527 6.12906 20.4423 6.12906C21.3399 6.12906 22.0612 6.89826 22.0612 7.83652V8.31832C24.6579 8.70715 27.0542 10.0342 28.8495 12.0967C30.789 14.3282 31.8629 17.2191 31.8629 20.2367C31.8549 26.8805 26.7337 32.2903 20.4423 32.2903ZM20.4423 21.9526C19.5447 21.9526 18.8234 21.1834 18.8234 20.2451V11.7924C15.0406 12.5954 12.2676 16.1033 12.2676 20.2451C12.2676 20.6171 11.9791 20.9214 11.6264 20.9214C11.2738 20.9214 10.9853 20.6171 10.9853 20.2451C10.9853 17.7769 11.8508 15.4102 13.4217 13.5759C14.9765 11.7501 17.1003 10.6006 19.4004 10.3301C19.5848 10.3047 19.7611 10.3723 19.8973 10.4991C20.0336 10.6259 20.1137 10.8119 20.1137 11.0063V20.2536C20.1137 20.448 20.266 20.6086 20.4503 20.6086C20.6347 20.6086 20.7869 20.448 20.7869 20.2536V10.9978C20.7869 10.6259 21.0755 10.3216 21.4281 10.3216C21.7807 10.3216 22.0692 10.6259 22.0692 10.9978V20.2451C22.0612 21.1834 21.3319 21.9526 20.4423 21.9526Z" fill="white"/>
</svg>
