<svg width="35" height="32" viewBox="0 0 35 32" fill="none" xmlns="http://www.w3.org/2000/svg">
<path d="M13.0809 30.9829C13.0809 31.2777 12.8216 31.5189 12.5046 31.5189H0.57625C0.259313 31.5189 0 31.2777 0 30.9829C0 30.6882 0.259313 30.447 0.57625 30.447H12.5046C12.8216 30.447 13.0809 30.6882 13.0809 30.9829ZM34.4237 2.17606H28.1714C27.8545 2.17606 27.5952 2.41723 27.5952 2.712C27.5952 3.00677 27.8545 3.24794 28.1714 3.24794H34.4237C34.7407 3.24794 35 3.00677 35 2.712C35 2.41723 34.7407 2.17606 34.4237 2.17606ZM7.44803 7.06653H11.5826C11.8996 7.06653 12.1589 6.82535 12.1589 6.53058C12.1589 6.23582 11.8996 5.99464 11.5826 5.99464H7.44803C7.1311 5.99464 6.87178 6.23582 6.87178 6.53058C6.87178 6.82535 7.12389 7.06653 7.44803 7.06653ZM0.785141 10.2487H6.98703C7.30397 10.2487 7.56328 10.0075 7.56328 9.71274C7.56328 9.41797 7.30397 9.1768 6.98703 9.1768H0.785141C0.468203 9.1768 0.208891 9.41797 0.208891 9.71274C0.208891 10.0075 0.461 10.2487 0.785141 10.2487ZM26.6516 28.665H25.5135V27.6065C25.5135 27.3117 25.2542 27.0706 24.9372 27.0706C24.6203 27.0706 24.361 27.3117 24.361 27.6065V28.665H23.2229C22.9059 28.665 22.6466 28.9062 22.6466 29.2009C22.6466 29.4957 22.9059 29.7369 23.2229 29.7369H24.361V30.7954C24.361 31.0901 24.6203 31.3313 24.9372 31.3313C25.2542 31.3313 25.5135 31.0901 25.5135 30.7954V29.7369H26.6516C26.9685 29.7369 27.2278 29.4957 27.2278 29.2009C27.2278 28.9062 26.9685 28.665 26.6516 28.665ZM1.57028 3.14075H2.70117V4.19924C2.70117 4.494 2.96049 4.73518 3.27742 4.73518C3.59436 4.73518 3.85367 4.494 3.85367 4.19924V3.14075H4.99177C5.30871 3.14075 5.56802 2.89958 5.56802 2.60481C5.56802 2.31004 5.30871 2.06887 4.99177 2.06887H3.85367V1.01708C3.85367 0.722314 3.59436 0.48114 3.27742 0.48114C2.96049 0.48114 2.70117 0.722314 2.70117 1.01708V2.07557H1.57028C1.25334 2.07557 0.994032 2.31674 0.994032 2.61151C0.994032 2.90628 1.24614 3.14075 1.57028 3.14075Z" fill="white"/>
<path d="M6.64534 27.4245V28.8712H0.477661V27.4245H6.64534Z" fill="white"/>
<path d="M30.6046 31.5189L34.6523 27.743V31.5189H30.6046Z" fill="white"/>
<path d="M28.3085 25.5755C25.2174 25.5755 23.74 24.3213 22.5566 23.3193L22.5494 23.3126C21.4162 22.3571 20.4337 21.5342 17.823 21.5342C15.2124 21.5342 14.2299 22.3571 13.0967 23.3126C11.9061 24.3213 10.4359 25.5755 7.34472 25.5755C7.33038 25.5755 5.63061 25.5622 3.95236 24.5469C2.44623 23.6378 0.6604 21.7266 0.6604 17.765C0.6604 17.7186 0.710604 12.8014 4.92775 9.09856C5.15726 8.89948 5.52303 8.90612 5.73819 9.11847C5.95335 9.33082 5.94618 9.66925 5.71667 9.86832C1.88682 13.2261 1.80792 17.7186 1.80792 17.765C1.80792 20.5388 2.72594 22.5097 4.54046 23.6311C5.91749 24.4805 7.33755 24.5071 7.35189 24.5071C9.9912 24.5071 11.1818 23.4984 12.3221 22.5296L12.3293 22.523C13.527 21.5143 14.7749 20.4658 17.8302 20.4658C20.8855 20.4658 22.1262 21.5143 23.3311 22.523L23.3383 22.5296C24.4858 23.5051 25.6692 24.5071 28.3157 24.5071C28.3229 24.5071 29.7429 24.4805 31.12 23.6311C32.9345 22.5163 33.8525 20.5388 33.8525 17.765C33.8525 17.7385 33.8023 14.7988 31.7726 11.9055C29.1046 8.10318 24.4141 6.17214 17.8302 6.17214C15.6571 6.17214 13.6489 6.39112 11.8631 6.82245C11.5547 6.89545 11.2463 6.72955 11.1602 6.44421C11.0813 6.15886 11.2606 5.87352 11.569 5.79389C13.4481 5.33602 15.5567 5.10376 17.8302 5.10376C21.6672 5.10376 24.9592 5.75408 27.6128 7.04144C29.7573 8.08327 31.4929 9.53653 32.7624 11.3614C34.9713 14.54 35 17.7252 35 17.7584C35 21.7134 33.207 23.6311 31.7081 24.5403C30.0226 25.5622 28.3229 25.5755 28.3085 25.5755ZM28.3085 18.6144C26.8383 18.6144 25.6477 17.5129 25.6477 16.1525C25.6477 14.7921 26.8383 13.6906 28.3085 13.6906C29.7788 13.6906 30.9693 14.7921 30.9693 16.1525C30.9693 17.5129 29.7716 18.6144 28.3085 18.6144ZM28.3085 14.7523C27.4766 14.7523 26.7952 15.3827 26.7952 16.1525C26.7952 16.9223 27.4766 17.5527 28.3085 17.5527C29.1405 17.5527 29.8218 16.9223 29.8218 16.1525C29.8218 15.3827 29.1405 14.7523 28.3085 14.7523ZM12.0567 18.4552H9.61825C9.30268 18.4552 9.04449 18.2163 9.04449 17.9243V16.199H7.17976C6.8642 16.199 6.606 15.9601 6.606 15.6681V13.4119C6.606 13.1199 6.8642 12.881 7.17976 12.881H9.04449V11.1557C9.04449 10.8637 9.30268 10.6248 9.61825 10.6248H12.0567C12.3723 10.6248 12.6305 10.8637 12.6305 11.1557V12.881H14.4952C14.8108 12.881 15.069 13.1199 15.069 13.4119V15.6681C15.069 15.9601 14.8108 16.199 14.4952 16.199H12.6305V17.9243C12.6305 18.2163 12.3723 18.4552 12.0567 18.4552ZM10.192 17.3934H11.483V15.6681C11.483 15.3761 11.7412 15.1372 12.0567 15.1372H13.9215V13.9428H12.0567C11.7412 13.9428 11.483 13.7039 11.483 13.4119V11.6866H10.192V13.4119C10.192 13.7039 9.93382 13.9428 9.61825 13.9428H7.75353V15.1372H9.61825C9.93382 15.1372 10.192 15.3761 10.192 15.6681V17.3934ZM23.0658 15.3827C21.5955 15.3827 20.405 14.2812 20.405 12.9208C20.405 11.5605 21.5955 10.4589 23.0658 10.4589C24.536 10.4589 25.7266 11.5605 25.7266 12.9208C25.7266 14.2812 24.5289 15.3827 23.0658 15.3827ZM23.0658 11.5207C22.2338 11.5207 21.5525 12.1511 21.5525 12.9208C21.5525 13.6906 22.2338 14.321 23.0658 14.321C23.8977 14.321 24.5791 13.6906 24.5791 12.9208C24.5791 12.1511 23.8977 11.5207 23.0658 11.5207Z" fill="white"/>
</svg>
