<svg width="1920" height="39" viewBox="0 0 1920 39" fill="none" xmlns="http://www.w3.org/2000/svg">
<path fill-rule="evenodd" clip-rule="evenodd" d="M0 0H1920V15.5102H1813.64L1804.47 1.62026L1804.45 1.65612L1804.43 1.62026L1788.46 27.6145H1775.54L1767.88 15.6895H1490V15.6848L1399.07 15.6256L1397.01 12.4272L1400.33 7.25919H1393.67L1397.01 12.4272L1394.91 15.6895H1391.06L1382.01 1.62026L1382 1.63741L1381.99 1.62026L1357.94 39L1345.18 19.1889L1180.02 19.1296L1177.13 23.6177L1168.48 10.1691L1162.71 19.1296L1088.45 19.1889L1081.21 7.94066H1047.58L1034.92 27.6145H1029.91L998.663 27.4009L992.498 36.9836L983.251 22.6072L978.557 15.2872H896.844L893.539 10.1629L899.035 1.62026H888.031L893.539 10.1629L890.241 15.2872H744.638L735.468 1.62026L735.449 1.65612L735.426 1.62026L719.458 27.6145H706.537L698.885 15.6895H421.002V15.6521L380.067 15.6256L378.006 12.4272L381.326 7.25919H374.67L378.006 12.4272L375.906 15.6895H372.064L363.012 1.62026L363 1.63741L362.993 1.62026L338.942 39L326.181 19.1889L211.02 19.1296L208.129 23.6177L199.48 10.1691L193.71 19.1296L119.448 19.1889L112.21 7.94066H78.5779L65.9189 27.6145H60.9099L29.6628 27.4009L23.498 36.9836L14.251 22.6072L9.55688 15.4821H0V0ZM1867.97 9.69503H1873.17V1.62026H1867.97V9.69503ZM1850.64 9.69503H1852.37V1.62026H1850.64V9.69503ZM1838.52 9.69503H1840.25V1.62026H1838.52V9.69503ZM1835.89 9.69503H1837.62V1.62026H1835.89V9.69503ZM1030.02 19.8454H1031.75V17.1554H1030.02V19.8454ZM1030.02 14.4607H1031.75V11.7706H1030.02V14.4607ZM1016.58 19.8454H1018.32V11.7706H1016.58V19.8454ZM1009.94 19.8454H1011.68V17.1554H1009.94V19.8454ZM798.973 9.69503H804.169V1.62026H798.973V9.69503ZM781.64 9.69503H783.371V1.62026H781.64V9.69503ZM769.518 9.69503H771.248V1.62026H769.518V9.69503ZM766.89 9.69503H768.624V1.62026H766.89V9.69503ZM61.0168 19.8454H62.751V17.1554H61.0168V19.8454ZM61.0168 14.4607H62.751V11.7706H61.0168V14.4607ZM47.582 19.8454H49.317V11.7706H47.582V19.8454ZM40.941 19.8454H42.676V17.1554H40.941V19.8454ZM1173.03 29.9786L1177.13 23.6177L1181.22 29.9786H1173.03ZM896.871 15.3293H890.214L890.241 15.2872H896.844L896.871 15.3293ZM204.025 29.9786L208.129 23.6177L212.222 29.9786H204.025Z" fill="#ED006C"/>
</svg>
