<svg width="1518" height="198" viewBox="0 0 1518 198" fill="none" xmlns="http://www.w3.org/2000/svg">
<g clip-path="url(#clip0_36_824)">
<path d="M1518 198H1418V98C1444.52 98 1469.96 108.536 1488.71 127.289C1507.46 146.043 1518 171.478 1518 198Z" fill="#005696" fill-opacity="0.29"/>
<path d="M1418 98V-2L1518 -2C1518 24.5216 1507.46 49.957 1488.71 68.7107C1469.96 87.4643 1444.52 98 1418 98Z" fill="#E46225" fill-opacity="0.2"/>
<path d="M1418 198H1318V98C1344.52 98 1369.96 108.536 1388.71 127.289C1407.46 146.043 1418 171.478 1418 198Z" fill="#005696" fill-opacity="0.29"/>
<path d="M1318 -2H1418V98C1391.48 98 1366.04 87.4643 1347.29 68.7107C1328.54 49.957 1318 24.5216 1318 -2Z" fill="#E46225" fill-opacity="0.2"/>
<path d="M1218 98H1318V198C1291.48 198 1266.04 187.464 1247.29 168.711C1228.54 149.957 1218 124.522 1218 98Z" fill="#005696" fill-opacity="0.29"/>
<path d="M1218 -2H1318V98C1291.48 98 1266.04 87.4643 1247.29 68.7107C1228.54 49.957 1218 24.5216 1218 -2Z" fill="#149ED8" fill-opacity="0.2"/>
<path d="M1118 198V98H1218C1218 124.522 1207.46 149.957 1188.71 168.711C1169.96 187.464 1144.52 198 1118 198Z" fill="#E46225" fill-opacity="0.2"/>
<path d="M1118 98V-2L1218 -2C1218 24.5216 1207.46 49.957 1188.71 68.7107C1169.96 87.4643 1144.52 98 1118 98Z" fill="#BF1E2D" fill-opacity="0.2"/>
<path d="M1018 198V98H1118C1118 124.522 1107.46 149.957 1088.71 168.711C1069.96 187.464 1044.52 198 1018 198Z" fill="#E46225" fill-opacity="0.2"/>
<path d="M1018 98V-2L1118 -2C1118 24.5216 1107.46 49.957 1088.71 68.7107C1069.96 87.4643 1044.52 98 1018 98Z" fill="#BF1E2D" fill-opacity="0.2"/>
<path d="M968 98C940.386 98 918 120.386 918 148C918 175.614 940.386 198 968 198C995.614 198 1018 175.614 1018 148C1018 120.386 995.614 98 968 98Z" fill="#BF1E2D" fill-opacity="0.2"/>
<path d="M918 48C918 75.6142 940.386 98 968 98C995.614 98 1018 75.6142 1018 48C1018 20.3858 995.614 -2 968 -2C940.386 -2 918 20.3858 918 48Z" fill="#BF1E2D" fill-opacity="0.2"/>
<path d="M918 198H818V98C844.522 98 869.957 108.536 888.711 127.289C907.464 146.043 918 171.478 918 198Z" fill="#E46225" fill-opacity="0.2"/>
<path d="M818 48C818 75.6142 840.386 98 868 98C895.614 98 918 75.6142 918 48C918 20.3858 895.614 -2 868 -2C840.386 -2 818 20.3858 818 48Z" fill="#BF1E2D" fill-opacity="0.2"/>
<path d="M818 148C818 120.386 795.614 98 768 98C740.386 98 718 120.386 718 148C718 175.614 740.386 198 768 198C795.614 198 818 175.614 818 148Z" fill="#E46225" fill-opacity="0.2"/>
<path d="M718 -2H818V98C791.478 98 766.043 87.4643 747.289 68.7107C728.536 49.957 718 24.5216 718 -2Z" fill="#E46225" fill-opacity="0.2"/>
<path d="M718 98V198H618C618 171.478 628.536 146.043 647.289 127.289C666.043 108.536 691.478 98 718 98Z" fill="#149ED8" fill-opacity="0.2"/>
<path d="M668 -2C640.386 -2 618 20.3858 618 48C618 75.6142 640.386 98 668 98C695.614 98 718 75.6142 718 48C718 20.3858 695.614 -2 668 -2Z" fill="#149ED8" fill-opacity="0.2"/>
<path d="M518 198V98L618 98C618 124.522 607.464 149.957 588.711 168.711C569.957 187.464 544.522 198 518 198Z" fill="#BF1E2D" fill-opacity="0.2"/>
<path d="M518 -2H618V98C591.478 98 566.043 87.4643 547.289 68.7107C528.536 49.957 518 24.5216 518 -2Z" fill="#BF1E2D" fill-opacity="0.2"/>
<path d="M468 198C495.614 198 518 175.614 518 148C518 120.386 495.614 98 468 98C440.386 98 418 120.386 418 148C418 175.614 440.386 198 468 198Z" fill="#BF1E2D" fill-opacity="0.2"/>
<path d="M418 -2H518V98C491.478 98 466.043 87.4643 447.289 68.7107C428.536 49.957 418 24.5216 418 -2Z" fill="#149ED8" fill-opacity="0.2"/>
<path d="M318 198V98L418 98C418 124.522 407.464 149.957 388.711 168.711C369.957 187.464 344.522 198 318 198Z" fill="#149ED8" fill-opacity="0.2"/>
<path d="M418 98L318 98V-2C344.522 -2 369.957 8.53568 388.711 27.2893C407.464 46.043 418 71.4784 418 98Z" fill="#E46225" fill-opacity="0.2"/>
<path d="M318 198H218V98C244.522 98 269.957 108.536 288.711 127.289C307.464 146.043 318 171.478 318 198Z" fill="#149ED8" fill-opacity="0.2"/>
<path d="M218 98V-2.00001L318 -2.00001C318 24.5216 307.464 49.957 288.711 68.7107C269.957 87.4643 244.522 98 218 98Z" fill="#149ED8" fill-opacity="0.2"/>
<path d="M118 198L118 98L218 98C218 124.522 207.464 149.957 188.711 168.711C169.957 187.464 144.522 198 118 198Z" fill="#005696" fill-opacity="0.29"/>
<path d="M118 -2H218V98C191.478 98 166.043 87.4643 147.289 68.7107C128.536 49.957 118 24.5216 118 -2Z" fill="#149ED8" fill-opacity="0.2"/>
<path d="M118 98L118 198H18C18 171.478 28.5357 146.043 47.2893 127.289C66.043 108.536 91.4784 98 118 98Z" fill="#005696" fill-opacity="0.29"/>
<path d="M118 -2.00003V98H18C18 71.4783 28.5357 46.0429 47.2893 27.2893C66.043 8.53565 91.4784 -2.00003 118 -2.00003Z" fill="#149ED8" fill-opacity="0.2"/>
</g>
<defs>
<clipPath id="clip0_36_824">
<rect width="1518" height="198" fill="white" transform="matrix(-1 0 0 -1 1518 198)"/>
</clipPath>
</defs>
</svg>
