<svg width="1920" height="609" viewBox="0 0 1920 609" fill="none" xmlns="http://www.w3.org/2000/svg">
<g opacity="0.75" clip-path="url(#clip0_6_507)">
<path d="M142.001 141.658C107.947 139.286 75.7569 124.704 51.4629 100.41C27.169 76.1161 12.5868 43.9259 10.215 9.87177H142.001V141.658Z" stroke="#C2CAD6" stroke-width="19.7435"/>
<path d="M10.215 293.874C12.5868 259.82 27.169 227.63 51.4629 203.336C75.7569 179.042 107.947 164.46 142.001 162.088V293.874H10.215Z" stroke="#A3AFC2" stroke-opacity="0.5" stroke-width="19.7435"/>
<path d="M151.873 455.619H3.05176e-05V303.746C40.2792 303.746 78.9087 319.747 107.39 348.228C135.872 376.71 151.873 415.339 151.873 455.619Z" fill="#E0E4EB" fill-opacity="0.75"/>
<path d="M151.873 607.492H1.52588e-05V455.619C40.2792 455.619 78.9087 471.62 107.39 500.101C135.872 528.583 151.873 567.212 151.873 607.492Z" fill="#E0E4EB" fill-opacity="0.75"/>
<path d="M3.05176e-05 759.365L3.05176e-05 607.492H151.873C151.873 647.771 135.872 686.4 107.39 714.882C78.9087 743.364 40.2792 759.365 3.05176e-05 759.365Z" fill="#C2CAD6"/>
<path d="M293.874 141.658C259.82 139.286 227.63 124.704 203.336 100.41C179.042 76.116 164.46 43.9258 162.088 9.87174H293.874V141.658Z" stroke="#C2CAD6" stroke-width="19.7435"/>
<path d="M161.745 162.088C195.799 164.46 227.989 179.042 252.283 203.336C276.577 227.63 291.159 259.82 293.531 293.874H161.745V162.088Z" stroke="#A3AFC2" stroke-opacity="0.5" stroke-width="19.7435"/>
<path d="M151.873 455.619L151.873 303.746H303.746C303.746 344.025 287.745 382.654 259.263 411.136C230.782 439.618 192.152 455.619 151.873 455.619Z" fill="#C2CAD6"/>
<path d="M303.746 455.619V607.492H151.873C151.873 567.212 167.874 528.583 196.355 500.101C224.837 471.62 263.467 455.619 303.746 455.619Z" fill="#C2CAD6"/>
<path d="M227.809 617.363C264.296 617.363 293.874 646.942 293.874 683.428C293.874 719.915 264.296 749.493 227.809 749.493C191.323 749.493 161.745 719.915 161.745 683.428C161.745 646.942 191.323 617.363 227.809 617.363Z" stroke="#C2CAD6" stroke-width="19.7435"/>
<path d="M313.617 10.215C347.672 12.5868 379.862 27.169 404.156 51.463C428.45 75.7569 443.032 107.947 445.404 142.001L313.617 142.001V10.215Z" stroke="#C2CAD6" stroke-width="19.7435"/>
<path d="M455.619 303.746H303.746V151.873C344.025 151.873 382.654 167.874 411.136 196.355C439.618 224.837 455.619 263.467 455.619 303.746Z" fill="#C2CAD6"/>
<path d="M455.619 455.619H303.746V303.746C344.025 303.746 382.654 319.747 411.136 348.228C439.618 376.71 455.619 415.339 455.619 455.619Z" fill="#C2CAD6"/>
<path d="M445.747 597.277C411.693 594.905 379.503 580.323 355.209 556.029C330.915 531.735 316.333 499.545 313.961 465.49H445.747V597.277Z" stroke="#A3AFC2" stroke-opacity="0.5" stroke-width="19.7435"/>
<path d="M303.746 683.428C303.746 725.367 337.744 759.364 379.682 759.364C421.621 759.364 455.619 725.367 455.619 683.428C455.619 641.489 421.621 607.492 379.682 607.492C337.744 607.492 303.746 641.489 303.746 683.428Z" fill="#E0E4EB" fill-opacity="0.75"/>
<path d="M465.834 142.001C468.205 107.947 482.788 75.7569 507.082 51.4629C531.376 27.169 563.566 12.5868 597.62 10.215V142.001H465.834Z" stroke="#A3AFC2" stroke-opacity="0.5" stroke-width="19.7435"/>
<path d="M607.492 151.873V303.746H455.619C455.619 263.467 471.62 224.837 500.101 196.355C528.583 167.874 567.212 151.873 607.492 151.873Z" fill="#E0E4EB" fill-opacity="0.75"/>
<path d="M607.492 455.619H455.619V303.746C495.898 303.746 534.527 319.747 563.009 348.228C591.491 376.71 607.492 415.339 607.492 455.619Z" fill="#C2CAD6"/>
<path d="M465.49 465.834C499.545 468.205 531.735 482.788 556.029 507.082C580.323 531.376 594.905 563.566 597.277 597.62H465.49V465.834Z" stroke="#C2CAD6" stroke-width="19.7435"/>
<path d="M455.619 607.492H607.492V759.365C567.212 759.365 528.583 743.364 500.101 714.882C471.62 686.4 455.619 647.771 455.619 607.492Z" fill="#C2CAD6"/>
<path d="M617.707 142.001C620.078 107.947 634.661 75.7569 658.955 51.4629C683.248 27.169 715.439 12.5868 749.493 10.215V142.001H617.707Z" stroke="#A3AFC2" stroke-opacity="0.5" stroke-width="19.7435"/>
<path d="M759.364 151.873V303.746H607.492C607.492 263.467 623.492 224.837 651.974 196.355C680.456 167.874 719.085 151.873 759.364 151.873Z" fill="#E0E4EB" fill-opacity="0.75"/>
<path d="M759.364 303.746V455.619H607.492C607.492 415.339 623.492 376.71 651.974 348.228C680.456 319.747 719.085 303.746 759.364 303.746Z" fill="#E0E4EB" fill-opacity="0.75"/>
<path d="M759.364 455.619V607.492H607.492C607.492 567.212 623.492 528.583 651.974 500.101C680.456 471.62 719.085 455.619 759.364 455.619Z" fill="#C2CAD6"/>
<path d="M617.363 617.707C651.417 620.078 683.608 634.661 707.902 658.954C732.196 683.248 746.778 715.439 749.149 749.493H617.363V617.707Z" stroke="#A3AFC2" stroke-opacity="0.5" stroke-width="19.7435"/>
<path d="M835.301 151.873C877.239 151.873 911.237 117.875 911.237 75.9364C911.237 33.9979 877.239 0 835.301 0C793.362 0 759.365 33.9979 759.365 75.9364C759.365 117.875 793.362 151.873 835.301 151.873Z" fill="#E0E4EB" fill-opacity="0.75"/>
<path d="M911.237 227.809C911.237 185.871 877.239 151.873 835.301 151.873C793.362 151.873 759.365 185.871 759.365 227.809C759.365 269.748 793.362 303.746 835.301 303.746C877.239 303.746 911.237 269.748 911.237 227.809Z" fill="#E0E4EB" fill-opacity="0.75"/>
<path d="M769.236 313.961C803.29 316.333 835.481 330.915 859.774 355.209C884.068 379.503 898.651 411.693 901.022 445.747H769.236V313.961Z" stroke="#A3AFC2" stroke-opacity="0.5" stroke-width="19.7435"/>
<path d="M911.237 455.619V607.492H759.365C759.365 567.212 775.365 528.583 803.847 500.101C832.329 471.62 870.958 455.619 911.237 455.619Z" fill="#E0E4EB" fill-opacity="0.75"/>
<path d="M769.236 617.707C803.29 620.078 835.481 634.661 859.774 658.954C884.068 683.248 898.651 715.439 901.022 749.493H769.236V617.707Z" stroke="#A3AFC2" stroke-opacity="0.5" stroke-width="19.7435"/>
<path d="M1053.24 141.658C1019.18 139.286 986.994 124.704 962.7 100.41C938.406 76.116 923.824 43.9258 921.452 9.87174H1053.24V141.658Z" stroke="#A3AFC2" stroke-opacity="0.5" stroke-width="19.7435"/>
<path d="M1063.11 227.809C1063.11 185.871 1029.11 151.873 987.174 151.873C945.235 151.873 911.237 185.871 911.237 227.809C911.237 269.748 945.235 303.746 987.174 303.746C1029.11 303.746 1063.11 269.748 1063.11 227.809Z" fill="#E0E4EB" fill-opacity="0.75"/>
<path d="M911.237 379.682C911.237 421.621 945.235 455.619 987.174 455.619C1029.11 455.619 1063.11 421.621 1063.11 379.682C1063.11 337.744 1029.11 303.746 987.174 303.746C945.235 303.746 911.237 337.744 911.237 379.682Z" fill="#E0E4EB" fill-opacity="0.75"/>
<path d="M921.109 465.834C955.163 468.205 987.353 482.788 1011.65 507.082C1035.94 531.376 1050.52 563.566 1052.9 597.62H921.109V465.834Z" stroke="#C2CAD6" stroke-width="19.7435"/>
<path d="M1053.24 749.149C1019.18 746.778 986.994 732.195 962.7 707.902C938.406 683.608 923.824 651.417 921.452 617.363H1053.24V749.149Z" stroke="#A3AFC2" stroke-opacity="0.5" stroke-width="19.7435"/>
<path d="M1139.05 142.001C1102.56 142.001 1072.98 112.423 1072.98 75.9364C1072.98 39.4499 1102.56 9.87174 1139.05 9.87174C1175.53 9.87174 1205.11 39.4499 1205.11 75.9364C1205.11 112.423 1175.53 142.001 1139.05 142.001Z" stroke="#A3AFC2" stroke-opacity="0.5" stroke-width="19.7435"/>
<path d="M1072.98 162.088C1107.04 164.46 1139.23 179.042 1163.52 203.336C1187.81 227.63 1202.4 259.82 1204.77 293.874H1072.98V162.088Z" stroke="#A3AFC2" stroke-opacity="0.5" stroke-width="19.7435"/>
<path d="M1063.11 455.619V303.746H1214.98C1214.98 344.025 1198.98 382.654 1170.5 411.136C1142.02 439.618 1103.39 455.619 1063.11 455.619Z" fill="#C2CAD6"/>
<path d="M1139.05 465.49C1175.53 465.49 1205.11 495.069 1205.11 531.555C1205.11 568.042 1175.53 597.62 1139.05 597.62C1102.56 597.62 1072.98 568.042 1072.98 531.555C1072.98 495.069 1102.56 465.49 1139.05 465.49Z" stroke="#A3AFC2" stroke-opacity="0.5" stroke-width="19.7435"/>
<path d="M1063.11 759.365V607.492H1214.98C1214.98 647.771 1198.98 686.4 1170.5 714.882C1142.02 743.364 1103.39 759.365 1063.11 759.365Z" fill="#E0E4EB" fill-opacity="0.75"/>
<path d="M1214.98 151.873V3.05176e-05L1366.86 3.05176e-05C1366.86 40.2792 1350.86 78.9087 1322.37 107.39C1293.89 135.872 1255.26 151.873 1214.98 151.873Z" fill="#C2CAD6"/>
<path d="M1290.92 303.746C1332.86 303.746 1366.86 269.748 1366.86 227.809C1366.86 185.871 1332.86 151.873 1290.92 151.873C1248.98 151.873 1214.98 185.871 1214.98 227.809C1214.98 269.748 1248.98 303.746 1290.92 303.746Z" fill="#C2CAD6"/>
<path d="M1356.64 313.617C1354.27 347.672 1339.69 379.862 1315.39 404.156C1291.1 428.45 1258.91 443.032 1224.85 445.404V313.617H1356.64Z" stroke="#C2CAD6" stroke-width="19.7435"/>
<path d="M1366.86 607.492H1214.98V455.619C1255.26 455.619 1293.89 471.62 1322.37 500.101C1350.86 528.583 1366.86 567.212 1366.86 607.492Z" fill="#E0E4EB" fill-opacity="0.75"/>
<path d="M1356.64 617.363C1354.27 651.417 1339.69 683.608 1315.39 707.902C1291.1 732.196 1258.91 746.778 1224.85 749.149V617.363H1356.64Z" stroke="#C2CAD6" stroke-width="19.7435"/>
<path d="M1518.73 0V151.873H1366.86C1366.86 111.594 1382.86 72.9642 1411.34 44.4825C1439.82 16.0008 1478.45 0 1518.73 0Z" fill="#E0E4EB" fill-opacity="0.75"/>
<path d="M1518.73 303.746H1366.86V151.873C1407.14 151.873 1445.76 167.874 1474.25 196.355C1502.73 224.837 1518.73 263.467 1518.73 303.746Z" fill="#E0E4EB" fill-opacity="0.75"/>
<path d="M1518.73 303.746V455.619H1366.86C1366.86 415.34 1382.86 376.71 1411.34 348.228C1439.82 319.747 1478.45 303.746 1518.73 303.746Z" fill="#C2CAD6"/>
<path d="M1366.86 455.619H1518.73V607.492C1478.45 607.492 1439.82 591.491 1411.34 563.009C1382.86 534.528 1366.86 495.898 1366.86 455.619Z" fill="#C2CAD6"/>
<path d="M1366.86 607.492H1518.73V759.365C1478.45 759.365 1439.82 743.364 1411.34 714.882C1382.86 686.4 1366.86 647.771 1366.86 607.492Z" fill="#E0E4EB" fill-opacity="0.75"/>
<path d="M1594.67 3.05176e-05C1552.73 3.05176e-05 1518.73 33.9979 1518.73 75.9365C1518.73 117.875 1552.73 151.873 1594.67 151.873C1636.6 151.873 1670.6 117.875 1670.6 75.9365C1670.6 33.9979 1636.6 3.05176e-05 1594.67 3.05176e-05Z" fill="#E0E4EB" fill-opacity="0.75"/>
<path d="M1670.6 303.746H1518.73V151.873C1559.01 151.873 1597.64 167.874 1626.12 196.355C1654.6 224.837 1670.6 263.467 1670.6 303.746Z" fill="#C2CAD6"/>
<path d="M1660.39 313.617C1658.02 347.672 1643.43 379.862 1619.14 404.156C1594.85 428.45 1562.65 443.032 1528.6 445.404V313.617H1660.39Z" stroke="#C2CAD6" stroke-width="19.7435"/>
<path d="M1670.6 607.492H1518.73V455.619C1559.01 455.619 1597.64 471.62 1626.12 500.101C1654.6 528.583 1670.6 567.212 1670.6 607.492Z" fill="#E0E4EB" fill-opacity="0.75"/>
<path d="M1670.6 607.492V759.365H1518.73C1518.73 719.085 1534.73 680.456 1563.21 651.974C1591.69 623.493 1630.32 607.492 1670.6 607.492Z" fill="#E0E4EB" fill-opacity="0.75"/>
<path d="M1822.47 0V151.873H1670.6C1670.6 111.594 1686.6 72.9642 1715.08 44.4825C1743.57 16.0009 1782.2 0 1822.47 0Z" fill="#C2CAD6"/>
<path d="M1812.6 293.531C1778.55 291.159 1746.36 276.577 1722.06 252.283C1697.77 227.989 1683.19 195.799 1680.82 161.745H1812.6V293.531Z" stroke="#A3AFC2" stroke-opacity="0.5" stroke-width="19.7435"/>
<path d="M1822.47 303.746V455.619H1670.6C1670.6 415.339 1686.6 376.71 1715.08 348.228C1743.57 319.747 1782.2 303.746 1822.47 303.746Z" fill="#C2CAD6"/>
<path d="M1822.47 607.492H1670.6V455.619C1710.88 455.619 1749.51 471.62 1777.99 500.101C1806.47 528.583 1822.47 567.212 1822.47 607.492Z" fill="#C2CAD6"/>
<path d="M1670.6 759.365V607.492H1822.47C1822.47 647.771 1806.47 686.4 1777.99 714.882C1749.51 743.364 1710.88 759.365 1670.6 759.365Z" fill="#E0E4EB" fill-opacity="0.75"/>
<path d="M1822.47 3.05176e-05H1974.35V151.873C1934.07 151.873 1895.44 135.872 1866.96 107.39C1838.48 78.9087 1822.47 40.2792 1822.47 3.05176e-05Z" fill="#C2CAD6"/>
<path d="M1974.35 151.873V303.746H1822.47C1822.47 263.467 1838.48 224.837 1866.96 196.355C1895.44 167.874 1934.07 151.873 1974.35 151.873Z" fill="#C2CAD6"/>
<path d="M1964.48 445.404C1930.42 443.032 1898.23 428.45 1873.94 404.156C1849.64 379.862 1835.06 347.672 1832.69 313.618H1964.48V445.404Z" stroke="#A3AFC2" stroke-opacity="0.5" stroke-width="19.7435"/>
<path d="M1974.35 607.492H1822.47V455.619C1862.75 455.619 1901.38 471.62 1929.87 500.101C1958.35 528.583 1974.35 567.212 1974.35 607.492Z" fill="#E0E4EB" fill-opacity="0.75"/>
<path d="M1974.35 607.492V759.364H1822.47C1822.47 719.085 1838.48 680.456 1866.96 651.974C1895.44 623.492 1934.07 607.492 1974.35 607.492Z" fill="#C2CAD6"/>
</g>
<defs>
<clipPath id="clip0_6_507">
<rect width="1980" height="609" fill="white"/>
</clipPath>
</defs>
</svg>
