<svg width="1920" height="531" viewBox="0 0 1920 531" fill="none" xmlns="http://www.w3.org/2000/svg">
<g clip-path="url(#clip0_28_532)">
<path d="M90.159 130.019C57.3532 129.005 26.1033 115.53 2.82441 92.2508C-20.4545 68.9719 -33.9296 37.722 -34.9437 4.9162H90.159V130.019Z" stroke="#005696" stroke-width="7.98922"/>
<path d="M-34.9437 263.234C-33.9296 230.428 -20.4545 199.178 2.82441 175.9C26.1033 152.621 57.3532 139.146 90.159 138.132V263.234H-34.9437Z" stroke="#E46225" stroke-width="7.98922"/>
<path d="M-35.0054 271.285C-2.19968 272.299 29.0503 285.774 52.3292 309.053C75.608 332.332 89.0832 363.582 90.0972 396.388H-35.0054V271.285Z" stroke="#BF1E2D" stroke-width="7.98922"/>
<path d="M-35.0054 404.439C-2.19968 405.453 29.0503 418.928 52.3292 442.207C75.608 465.486 89.0832 496.736 90.0972 529.541H-35.0054V404.439Z" stroke="#BF1E2D" stroke-width="7.98922"/>
<path d="M223.313 130.019C190.507 129.005 159.257 115.53 135.978 92.2508C112.699 68.972 99.224 37.722 98.2099 4.91624H223.313V130.019Z" stroke="#005696" stroke-width="7.98922"/>
<path d="M98.1483 138.132C130.954 139.146 162.204 152.621 185.483 175.9C208.762 199.178 222.237 230.428 223.251 263.234H98.1483V138.132Z" stroke="#E46225" stroke-width="7.98922"/>
<path d="M223.251 271.223C222.237 304.029 208.762 335.279 185.483 358.558C162.204 381.837 130.954 395.312 98.1483 396.326L98.1483 271.223H223.251Z" stroke="#149ED8" stroke-width="7.98922"/>
<path d="M98.2099 529.541C99.224 496.736 112.699 465.486 135.978 442.207C159.257 418.928 190.507 405.453 223.313 404.439V529.541H98.2099Z" stroke="#149ED8" stroke-width="7.98922"/>
<path d="M231.302 4.97792C264.108 5.992 295.358 19.4671 318.636 42.746C341.915 66.0248 355.39 97.2748 356.404 130.081L231.302 130.081L231.302 4.97792Z" stroke="#005696" stroke-width="7.98922"/>
<path d="M231.302 138.132C264.108 139.146 295.358 152.621 318.636 175.9C341.915 199.178 355.39 230.428 356.404 263.234H231.302V138.132Z" stroke="#149ED8" stroke-width="7.98922"/>
<path d="M231.302 271.285C264.108 272.299 295.358 285.774 318.636 309.053C341.915 332.332 355.39 363.582 356.404 396.388H231.302V271.285Z" stroke="#149ED8" stroke-width="7.98922"/>
<path d="M356.466 529.48C323.66 528.466 292.411 514.991 269.132 491.712C245.853 468.433 232.378 437.183 231.364 404.377H356.466V529.48Z" stroke="#E46225" stroke-width="7.98922"/>
<path d="M364.517 130.081C365.531 97.2749 379.006 66.0249 402.285 42.746C425.564 19.4672 456.814 5.99204 489.62 4.97796V130.081H364.517Z" stroke="#E46225" stroke-width="7.98922"/>
<path d="M364.517 263.234C365.531 230.428 379.006 199.178 402.285 175.9C425.564 152.621 456.814 139.146 489.62 138.132V263.234H364.517Z" stroke="#BF1E2D" stroke-width="7.98922"/>
<path d="M364.455 271.285C397.261 272.299 428.511 285.774 451.79 309.053C475.069 332.332 488.544 363.582 489.558 396.388H364.455V271.285Z" stroke="#149ED8" stroke-width="7.98922"/>
<path d="M364.455 404.439C397.261 405.453 428.511 418.928 451.79 442.207C475.069 465.486 488.544 496.736 489.558 529.541H364.455V404.439Z" stroke="#005696" stroke-width="7.98922"/>
<path d="M497.671 130.081C498.685 97.2749 512.16 66.0249 535.439 42.746C558.718 19.4672 589.968 5.99204 622.773 4.97796V130.081H497.671Z" stroke="#E46225" stroke-width="7.98922"/>
<path d="M497.671 263.234C498.685 230.428 512.16 199.178 535.439 175.9C558.718 152.621 589.968 139.146 622.773 138.132V263.234H497.671Z" stroke="#BF1E2D" stroke-width="7.98922"/>
<path d="M497.671 396.388C498.685 363.582 512.16 332.332 535.439 309.053C558.718 285.774 589.968 272.299 622.773 271.285V396.388H497.671Z" stroke="#BF1E2D" stroke-width="7.98922"/>
<path d="M497.671 529.541C498.685 496.736 512.16 465.486 535.439 442.207C558.718 418.928 589.968 405.453 622.773 404.439V529.541H497.671Z" stroke="#149ED8" stroke-width="7.98922"/>
<path d="M755.927 67.4984C755.927 102.062 727.908 130.081 693.345 130.081C658.782 130.081 630.763 102.062 630.763 67.4984C630.763 32.9352 658.782 4.91624 693.345 4.91624C727.908 4.91624 755.927 32.9352 755.927 67.4984Z" stroke="#BF1E2D" stroke-width="7.98922"/>
<path d="M693.345 138.07C727.908 138.07 755.927 166.089 755.927 200.652C755.927 235.215 727.908 263.234 693.345 263.234C658.782 263.234 630.763 235.215 630.763 200.652C630.763 166.089 658.782 138.07 693.345 138.07Z" stroke="#BF1E2D" stroke-width="7.98922"/>
<path d="M630.763 271.285C663.568 272.299 694.818 285.774 718.097 309.053C741.376 332.332 754.851 363.582 755.865 396.388H630.763V271.285Z" stroke="#E46225" stroke-width="7.98922"/>
<path d="M630.824 529.541C631.838 496.736 645.314 465.486 668.592 442.207C691.871 418.928 723.121 405.453 755.927 404.439V529.541H630.824Z" stroke="#BF1E2D" stroke-width="7.98922"/>
<path d="M889.081 130.019C856.275 129.005 825.025 115.53 801.746 92.2508C778.467 68.972 764.992 37.722 763.978 4.91624H889.081V130.019Z" stroke="#E46225" stroke-width="7.98922"/>
<path d="M826.498 138.07C861.062 138.07 889.081 166.089 889.081 200.652C889.081 235.215 861.062 263.234 826.498 263.234C791.935 263.234 763.916 235.215 763.916 200.652C763.916 166.089 791.935 138.07 826.498 138.07Z" stroke="#BF1E2D" stroke-width="7.98922"/>
<path d="M826.498 396.388C791.935 396.388 763.916 368.369 763.916 333.806C763.916 299.242 791.935 271.223 826.498 271.223C861.062 271.223 889.081 299.242 889.081 333.806C889.081 368.369 861.062 396.388 826.498 396.388Z" stroke="#BF1E2D" stroke-width="7.98922"/>
<path d="M763.916 404.439C796.722 405.453 827.972 418.928 851.251 442.207C874.53 465.486 888.005 496.736 889.019 529.541H763.916V404.439Z" stroke="#005696" stroke-width="7.98922"/>
<path d="M959.652 130.081C925.089 130.081 897.07 102.062 897.07 67.4984C897.07 32.9352 925.089 4.91624 959.652 4.91624C994.215 4.91624 1022.23 32.9352 1022.23 67.4984C1022.23 102.062 994.215 130.081 959.652 130.081Z" stroke="#E46225" stroke-width="7.98922"/>
<path d="M897.07 138.132C929.876 139.146 961.126 152.621 984.404 175.9C1007.68 199.178 1021.16 230.428 1022.17 263.234H897.07V138.132Z" stroke="#E46225" stroke-width="7.98922"/>
<path d="M1022.17 271.223C1021.16 304.029 1007.68 335.279 984.404 358.558C961.126 381.837 929.876 395.312 897.07 396.326V271.223H1022.17Z" stroke="#149ED8" stroke-width="7.98922"/>
<path d="M959.652 404.377C994.215 404.377 1022.23 432.396 1022.23 466.959C1022.23 501.523 994.215 529.542 959.652 529.542C925.089 529.542 897.07 501.523 897.07 466.959C897.07 432.396 925.089 404.377 959.652 404.377Z" stroke="#E46225" stroke-width="7.98922"/>
<path d="M1155.33 4.9162C1154.31 37.722 1140.84 68.9719 1117.56 92.2508C1094.28 115.53 1063.03 129.005 1030.22 130.019V4.9162L1155.33 4.9162Z" stroke="#149ED8" stroke-width="7.98922"/>
<path d="M1155.39 200.652C1155.39 235.215 1127.37 263.234 1092.81 263.234C1058.24 263.234 1030.22 235.215 1030.22 200.652C1030.22 166.089 1058.24 138.07 1092.81 138.07C1127.37 138.07 1155.39 166.089 1155.39 200.652Z" stroke="#149ED8" stroke-width="7.98922"/>
<path d="M1155.33 271.223C1154.31 304.029 1140.84 335.279 1117.56 358.558C1094.28 381.837 1063.03 395.312 1030.22 396.326V271.223H1155.33Z" stroke="#005696" stroke-width="7.98922"/>
<path d="M1030.22 404.439C1063.03 405.453 1094.28 418.928 1117.56 442.207C1140.84 465.486 1154.31 496.736 1155.33 529.541H1030.22V404.439Z" stroke="#BF1E2D" stroke-width="7.98922"/>
<path d="M1163.44 130.081C1164.45 97.2749 1177.93 66.0249 1201.21 42.746C1224.49 19.4672 1255.74 5.99204 1288.54 4.97796V130.081H1163.44Z" stroke="#BF1E2D" stroke-width="7.98922"/>
<path d="M1163.38 138.132C1196.18 139.146 1227.43 152.621 1250.71 175.9C1273.99 199.178 1287.47 230.428 1288.48 263.234H1163.38V138.132Z" stroke="#BF1E2D" stroke-width="7.98922"/>
<path d="M1163.44 396.388C1164.45 363.582 1177.93 332.332 1201.21 309.053C1224.49 285.774 1255.74 272.299 1288.54 271.285V396.388H1163.44Z" stroke="#149ED8" stroke-width="7.98922"/>
<path d="M1288.54 529.48C1255.74 528.466 1224.49 514.991 1201.21 491.712C1177.93 468.433 1164.45 437.183 1163.44 404.377H1288.54V529.48Z" stroke="#149ED8" stroke-width="7.98922"/>
<path d="M1296.53 67.4984C1296.53 32.9352 1324.55 4.9162 1359.11 4.9162C1393.68 4.9162 1421.7 32.9352 1421.7 67.4984C1421.7 102.062 1393.68 130.081 1359.11 130.081C1324.55 130.081 1296.53 102.062 1296.53 67.4984Z" stroke="#BF1E2D" stroke-width="7.98922"/>
<path d="M1296.53 138.132C1329.34 139.146 1360.59 152.621 1383.87 175.9C1407.14 199.178 1420.62 230.428 1421.63 263.234H1296.53V138.132Z" stroke="#149ED8" stroke-width="7.98922"/>
<path d="M1421.63 271.223C1420.62 304.029 1407.14 335.279 1383.87 358.558C1360.59 381.837 1329.34 395.312 1296.53 396.326V271.223H1421.63Z" stroke="#005696" stroke-width="7.98922"/>
<path d="M1296.53 404.439C1329.34 405.453 1360.59 418.928 1383.87 442.207C1407.14 465.486 1420.62 496.736 1421.63 529.541H1296.53V404.439Z" stroke="#BF1E2D" stroke-width="7.98922"/>
<path d="M1429.75 130.081C1430.76 97.2749 1444.24 66.0249 1467.51 42.746C1490.79 19.4672 1522.04 5.99204 1554.85 4.97796V130.081H1429.75Z" stroke="#149ED8" stroke-width="7.98922"/>
<path d="M1554.85 263.172C1522.04 262.158 1490.79 248.683 1467.51 225.404C1444.24 202.126 1430.76 170.876 1429.75 138.07H1554.85V263.172Z" stroke="#E46225" stroke-width="7.98922"/>
<path d="M1429.75 396.388C1430.76 363.582 1444.24 332.332 1467.51 309.053C1490.79 285.774 1522.04 272.299 1554.85 271.285V396.388H1429.75Z" stroke="#149ED8" stroke-width="7.98922"/>
<path d="M1429.68 404.439C1462.49 405.453 1493.74 418.928 1517.02 442.207C1540.3 465.486 1553.77 496.736 1554.79 529.541H1429.68V404.439Z" stroke="#149ED8" stroke-width="7.98922"/>
<path d="M1688 130.019C1655.2 129.005 1623.95 115.53 1600.67 92.2508C1577.39 68.9719 1563.91 37.722 1562.9 4.9162H1688V130.019Z" stroke="#149ED8" stroke-width="7.98922"/>
<path d="M1562.9 263.234C1563.91 230.428 1577.39 199.178 1600.67 175.9C1623.95 152.621 1655.2 139.146 1688 138.132V263.234H1562.9Z" stroke="#149ED8" stroke-width="7.98922"/>
<path d="M1688 396.326C1655.2 395.312 1623.95 381.837 1600.67 358.558C1577.39 335.279 1563.91 304.029 1562.9 271.223H1688V396.326Z" stroke="#E46225" stroke-width="7.98922"/>
<path d="M1562.84 404.439C1595.64 405.453 1626.89 418.928 1650.17 442.207C1673.45 465.486 1686.93 496.736 1687.94 529.541H1562.84V404.439Z" stroke="#BF1E2D" stroke-width="7.98922"/>
<path d="M1696.05 130.081C1697.07 97.2749 1710.54 66.0249 1733.82 42.746C1757.1 19.4672 1788.35 5.99204 1821.16 4.97796V130.081H1696.05Z" stroke="#005696" stroke-width="7.98922"/>
<path d="M1695.99 138.132C1728.8 139.146 1760.05 152.621 1783.33 175.9C1806.6 199.178 1820.08 230.428 1821.09 263.234H1695.99V138.132Z" stroke="#149ED8" stroke-width="7.98922"/>
<path d="M1821.09 271.223C1820.08 304.029 1806.6 335.279 1783.33 358.558C1760.05 381.837 1728.8 395.312 1695.99 396.326V271.223H1821.09Z" stroke="#E46225" stroke-width="7.98922"/>
<path d="M1695.99 404.439C1728.8 405.453 1760.05 418.928 1783.33 442.207C1806.6 465.486 1820.08 496.736 1821.09 529.541H1695.99V404.439Z" stroke="#BF1E2D" stroke-width="7.98922"/>
<path d="M1954.25 4.9162C1953.23 37.722 1939.76 68.9719 1916.48 92.2508C1893.2 115.53 1861.95 129.005 1829.15 130.019V4.9162H1954.25Z" stroke="#005696" stroke-width="7.98922"/>
<path d="M1954.25 138.07C1953.23 170.876 1939.76 202.125 1916.48 225.404C1893.2 248.683 1861.95 262.158 1829.15 263.172V138.07L1954.25 138.07Z" stroke="#149ED8" stroke-width="7.98922"/>
<path d="M1829.15 271.285C1861.95 272.299 1893.2 285.774 1916.48 309.053C1939.76 332.332 1953.23 363.582 1954.25 396.388H1829.15V271.285Z" stroke="#149ED8" stroke-width="7.98922"/>
<path d="M1954.31 529.48C1921.5 528.466 1890.25 514.991 1866.97 491.712C1843.7 468.433 1830.22 437.183 1829.21 404.377H1954.31V529.48Z" stroke="#149ED8" stroke-width="7.98922"/>
</g>
<defs>
<clipPath id="clip0_28_532">
<rect width="1997" height="529.156" fill="white" transform="translate(-39 0.921631)"/>
</clipPath>
</defs>
</svg>
