<svg width="1432" height="998" viewBox="0 0 1432 998" fill="none" xmlns="http://www.w3.org/2000/svg">
<g clip-path="url(#clip0_414_516)">
<path d="M1440 998H1340V898C1366.52 898 1391.96 908.536 1410.71 927.289C1429.46 946.043 1440 971.478 1440 998Z" fill="#D88ADB"/>
<path d="M1340 898V798H1440C1440 824.522 1429.46 849.957 1410.71 868.711C1391.96 887.464 1366.52 898 1340 898Z" fill="#E37AE8"/>
<path d="M1340 698H1440V798C1413.48 798 1388.04 787.464 1369.29 768.711C1350.54 749.957 1340 724.522 1340 698Z" fill="#B930C2"/>
<path d="M1340 598H1440V698C1413.48 698 1388.04 687.464 1369.29 668.711C1350.54 649.957 1340 624.522 1340 598Z" fill="#B930C2"/>
<path d="M1440 498V598H1340C1340 571.478 1350.54 546.043 1369.29 527.289C1388.04 508.536 1413.48 498 1440 498Z" fill="#B930C2"/>
<path d="M1340 498V398H1440C1440 424.522 1429.46 449.957 1410.71 468.711C1391.96 487.464 1366.52 498 1340 498Z" fill="#AB3392"/>
<path d="M1440 298V398H1340C1340 371.478 1350.54 346.043 1369.29 327.289C1388.04 308.536 1413.48 298 1440 298Z" fill="#D88ADB"/>
<path d="M1440 298H1340V198C1366.52 198 1391.96 208.536 1410.71 227.289C1429.46 246.043 1440 271.478 1440 298Z" fill="#B930C2"/>
<path d="M1440 198H1340V98C1366.52 98 1391.96 108.536 1410.71 127.289C1429.46 146.043 1440 171.478 1440 198Z" fill="#D88ADB"/>
<path d="M1340 -2.00012H1440V97.9999C1413.48 97.9999 1388.04 87.4642 1369.29 68.7106C1350.54 49.9569 1340 24.5215 1340 -2.00012Z" fill="#B930C2"/>
<path d="M1340 998H1240V898C1266.52 898 1291.96 908.536 1310.71 927.289C1329.46 946.043 1340 971.478 1340 998Z" fill="#AB3392"/>
<path d="M1240 798H1340V898C1313.48 898 1288.04 887.464 1269.29 868.711C1250.54 849.957 1240 824.522 1240 798Z" fill="#E37AE8"/>
<path d="M1340 698V798H1240C1240 771.478 1250.54 746.043 1269.29 727.289C1288.04 708.536 1313.48 698 1340 698Z" fill="#E243AA"/>
<path d="M1240 698V598H1340C1340 624.522 1329.46 649.957 1310.71 668.711C1291.96 687.464 1266.52 698 1240 698Z" fill="#E243AA"/>
<path d="M1240 548C1240 575.614 1262.39 598 1290 598C1317.61 598 1340 575.614 1340 548C1340 520.386 1317.61 498 1290 498C1262.39 498 1240 520.386 1240 548Z" fill="#D88ADB"/>
<path d="M1340 498H1240V398C1266.52 398 1291.96 408.536 1310.71 427.289C1329.46 446.043 1340 471.478 1340 498Z" fill="#AB3392"/>
<path d="M1240 398V298H1340C1340 324.522 1329.46 349.957 1310.71 368.711C1291.96 387.464 1266.52 398 1240 398Z" fill="#AB3392"/>
<path d="M1240 198H1340V298C1313.48 298 1288.04 287.464 1269.29 268.711C1250.54 249.957 1240 224.522 1240 198Z" fill="#D88ADB"/>
<path d="M1240 98H1340V198C1313.48 198 1288.04 187.464 1269.29 168.711C1250.54 149.957 1240 124.522 1240 98Z" fill="#D88ADB"/>
<path d="M1340 97.9999L1240 97.9999V-2.00012C1266.52 -2.00012 1291.96 8.53557 1310.71 27.2892C1329.46 46.0428 1340 71.4782 1340 97.9999Z" fill="#B930C2"/>
<path d="M1140 898H1240V998C1213.48 998 1188.04 987.464 1169.29 968.711C1150.54 949.957 1140 924.522 1140 898Z" fill="#AB3392"/>
<path d="M1140 798H1240V898C1213.48 898 1188.04 887.464 1169.29 868.711C1150.54 849.957 1140 824.522 1140 798Z" fill="#E243AA"/>
<path d="M1140 698H1240V798C1213.48 798 1188.04 787.464 1169.29 768.711C1150.54 749.957 1140 724.522 1140 698Z" fill="#E243AA"/>
<path d="M1240 698H1140V598C1166.52 598 1191.96 608.536 1210.71 627.289C1229.46 646.043 1240 671.478 1240 698Z" fill="#AB3392"/>
<path d="M1240 548C1240 520.386 1217.61 498 1190 498C1162.39 498 1140 520.386 1140 548C1140 575.614 1162.39 598 1190 598C1217.61 598 1240 575.614 1240 548Z" fill="#B930C2"/>
<path d="M1140 498V398H1240C1240 424.522 1229.46 449.957 1210.71 468.711C1191.96 487.464 1166.52 498 1140 498Z" fill="#B930C2"/>
<path d="M1140 398V298H1240C1240 324.522 1229.46 349.957 1210.71 368.711C1191.96 387.464 1166.52 398 1140 398Z" fill="#B930C2"/>
<path d="M1240 198V298H1140C1140 271.478 1150.54 246.043 1169.29 227.289C1188.04 208.536 1213.48 198 1240 198Z" fill="#D88ADB"/>
<path d="M1240 98V198H1140C1140 171.478 1150.54 146.043 1169.29 127.289C1188.04 108.536 1213.48 98 1240 98Z" fill="#AB3392"/>
<path d="M1240 -2V98H1140C1140 71.4784 1150.54 46.043 1169.29 27.2893C1188.04 8.53569 1213.48 -2 1240 -2Z" fill="#B930C2"/>
<path d="M1040 998V898H1140C1140 924.522 1129.46 949.957 1110.71 968.711C1091.96 987.464 1066.52 998 1040 998Z" fill="#AB3392"/>
<path d="M1040 898V798H1140C1140 824.522 1129.46 849.957 1110.71 868.711C1091.96 887.464 1066.52 898 1040 898Z" fill="#D88ADB"/>
<path d="M1040 698H1140V798C1113.48 798 1088.04 787.464 1069.29 768.711C1050.54 749.957 1040 724.522 1040 698Z" fill="#E243AA"/>
<path d="M1040 598H1140V698C1113.48 698 1088.04 687.464 1069.29 668.711C1050.54 649.957 1040 624.522 1040 598Z" fill="#D88ADB"/>
<path d="M1140 598H1040V498C1066.52 498 1091.96 508.536 1110.71 527.289C1129.46 546.043 1140 571.478 1140 598Z" fill="#E243AA"/>
<path d="M1040 398H1140V498C1113.48 498 1088.04 487.464 1069.29 468.711C1050.54 449.957 1040 424.522 1040 398Z" fill="#E243AA"/>
<path d="M1140 298V398H1040C1040 371.478 1050.54 346.043 1069.29 327.289C1088.04 308.536 1113.48 298 1140 298Z" fill="#D88ADB"/>
<path d="M1140 198V298H1040C1040 271.478 1050.54 246.043 1069.29 227.289C1088.04 208.536 1113.48 198 1140 198Z" fill="#E243AA"/>
<path d="M1140 97.9999V198H1040C1040 171.478 1050.54 146.043 1069.29 127.289C1088.04 108.536 1113.48 97.9999 1140 97.9999Z" fill="#B930C2"/>
<path d="M1140 98L1040 98V-2C1066.52 -2 1091.96 8.53569 1110.71 27.2893C1129.46 46.043 1140 71.4784 1140 98Z" fill="#AB3392"/>
<path d="M940 998V898H1040C1040 924.522 1029.46 949.957 1010.71 968.711C991.957 987.464 966.522 998 940 998Z" fill="#AB3392"/>
<path d="M940 898V798H1040C1040 824.522 1029.46 849.957 1010.71 868.711C991.957 887.464 966.522 898 940 898Z" fill="#D88ADB"/>
<path d="M940 798V698H1040C1040 724.522 1029.46 749.957 1010.71 768.711C991.957 787.464 966.522 798 940 798Z" fill="#B930C2"/>
<path d="M940 698V598H1040C1040 624.522 1029.46 649.957 1010.71 668.711C991.957 687.464 966.522 698 940 698Z" fill="#E243AA"/>
<path d="M940 498H1040V598C1013.48 598 988.043 587.464 969.289 568.711C950.536 549.957 940 524.522 940 498Z" fill="#AB3392"/>
<path d="M1040 498H940V398C966.522 398 991.957 408.536 1010.71 427.289C1029.46 446.043 1040 471.478 1040 498Z" fill="#E243AA"/>
<path d="M990 398C1017.61 398 1040 375.614 1040 348C1040 320.386 1017.61 298 990 298C962.386 298 940 320.386 940 348C940 375.614 962.386 398 990 398Z" fill="#AB3392"/>
<path d="M940 298V198H1040C1040 224.522 1029.46 249.957 1010.71 268.711C991.957 287.464 966.522 298 940 298Z" fill="#B930C2"/>
<path d="M940 198V97.9999L1040 97.9999C1040 124.522 1029.46 149.957 1010.71 168.711C991.957 187.464 966.522 198 940 198Z" fill="#B930C2"/>
<path d="M1040 98L940 98V-2C966.522 -2 991.957 8.53569 1010.71 27.2893C1029.46 46.043 1040 71.4784 1040 98Z" fill="#AB3392"/>
<path d="M890 898C862.386 898 840 920.386 840 948C840 975.614 862.386 998 890 998C917.614 998 940 975.614 940 948C940 920.386 917.614 898 890 898Z" fill="#D88ADB"/>
<path d="M840 848C840 875.614 862.386 898 890 898C917.614 898 940 875.614 940 848C940 820.386 917.614 798 890 798C862.386 798 840 820.386 840 848Z" fill="#B930C2"/>
<path d="M840 698H940V798C913.478 798 888.043 787.464 869.289 768.711C850.536 749.957 840 724.522 840 698Z" fill="#AB3392"/>
<path d="M840 698V598H940C940 624.522 929.464 649.957 910.711 668.711C891.957 687.464 866.522 698 840 698Z" fill="#B930C2"/>
<path d="M840 498H940V598C913.478 598 888.043 587.464 869.289 568.711C850.536 549.957 840 524.522 840 498Z" fill="#AB3392"/>
<path d="M840 398H940V498C913.478 498 888.043 487.464 869.289 468.711C850.536 449.957 840 424.522 840 398Z" fill="#D88ADB"/>
<path d="M890 398C917.614 398 940 375.614 940 348C940 320.386 917.614 298 890 298C862.386 298 840 320.386 840 348C840 375.614 862.386 398 890 398Z" fill="#E243AA"/>
<path d="M840 198H940V298C913.478 298 888.043 287.464 869.289 268.711C850.536 249.957 840 224.522 840 198Z" fill="#E243AA"/>
<path d="M940 198H840V97.9999C866.522 97.9999 891.957 108.536 910.711 127.289C929.464 146.043 940 171.478 940 198Z" fill="#E243AA"/>
<path d="M840 -2.00012H940V97.9999C913.478 97.9999 888.043 87.4642 869.289 68.7106C850.536 49.9569 840 24.5215 840 -2.00012Z" fill="#E243AA"/>
<path d="M840 998H740V898C766.522 898 791.957 908.536 810.711 927.289C829.464 946.043 840 971.478 840 998Z" fill="#AB3392"/>
<path d="M740 848C740 875.614 762.386 898 790 898C817.614 898 840 875.614 840 848C840 820.386 817.614 798 790 798C762.386 798 740 820.386 740 848Z" fill="#B930C2"/>
<path d="M840 748C840 720.386 817.614 698 790 698C762.386 698 740 720.386 740 748C740 775.614 762.386 798 790 798C817.614 798 840 775.614 840 748Z" fill="#B930C2"/>
<path d="M740 598H840V698C813.478 698 788.043 687.464 769.289 668.711C750.536 649.957 740 624.522 740 598Z" fill="#D88ADB"/>
<path d="M840 598H740V498C766.522 498 791.957 508.536 810.711 527.289C829.464 546.043 840 571.478 840 598Z" fill="#AB3392"/>
<path d="M840 498H740V398C766.522 398 791.957 408.536 810.711 427.289C829.464 446.043 840 471.478 840 498Z" fill="#B930C2"/>
<path d="M840 298V398H740C740 371.478 750.536 346.043 769.289 327.289C788.043 308.536 813.478 298 840 298Z" fill="#D88ADB"/>
<path d="M790 198C762.386 198 740 220.386 740 248C740 275.614 762.386 298 790 298C817.614 298 840 275.614 840 248C840 220.386 817.614 198 790 198Z" fill="#E243AA"/>
<path d="M840 98V198H740C740 171.478 750.536 146.043 769.289 127.289C788.043 108.536 813.478 98 840 98Z" fill="#B930C2"/>
<path d="M790 98C817.614 98 840 75.6142 840 48C840 20.3858 817.614 -2 790 -2C762.386 -2 740 20.3858 740 48C740 75.6142 762.386 98 790 98Z" fill="#E243AA"/>
<path d="M740 948C740 920.386 717.614 898 690 898C662.386 898 640 920.386 640 948C640 975.614 662.386 998 690 998C717.614 998 740 975.614 740 948Z" fill="#AB3392"/>
<path d="M640 798H740V898C713.478 898 688.043 887.464 669.289 868.711C650.536 849.957 640 824.522 640 798Z" fill="#AB3392"/>
<path d="M740 698V798H640C640 771.478 650.536 746.043 669.289 727.289C688.043 708.536 713.478 698 740 698Z" fill="#E243AA"/>
<path d="M640 648C640 675.614 662.386 698 690 698C717.614 698 740 675.614 740 648C740 620.386 717.614 598 690 598C662.386 598 640 620.386 640 648Z" fill="#AB3392"/>
<path d="M740 498V598H640C640 571.478 650.536 546.043 669.289 527.289C688.043 508.536 713.478 498 740 498Z" fill="#B930C2"/>
<path d="M640 498V398H740C740 424.522 729.464 449.957 710.711 468.711C691.957 487.464 666.522 498 640 498Z" fill="#B930C2"/>
<path d="M740 348C740 320.386 717.614 298 690 298C662.386 298 640 320.386 640 348C640 375.614 662.386 398 690 398C717.614 398 740 375.614 740 348Z" fill="#AB3392"/>
<path d="M640 198H740V298C713.478 298 688.043 287.464 669.289 268.711C650.536 249.957 640 224.522 640 198Z" fill="#B930C2"/>
<path d="M640 97.9999H740V198C713.478 198 688.043 187.464 669.289 168.711C650.536 149.957 640 124.522 640 97.9999Z" fill="#B930C2"/>
<path d="M740 97.9999L640 97.9999V-2.00012C666.522 -2.00012 691.957 8.53557 710.711 27.2892C729.464 46.0428 740 71.4782 740 97.9999Z" fill="#B930C2"/>
<path d="M640 898V998H540C540 971.478 550.536 946.043 569.289 927.289C588.043 908.536 613.478 898 640 898Z" fill="#E243AA"/>
<path d="M590 798C562.386 798 540 820.386 540 848C540 875.614 562.386 898 590 898C617.614 898 640 875.614 640 848C640 820.386 617.614 798 590 798Z" fill="#E243AA"/>
<path d="M640 698V798H540C540 771.478 550.536 746.043 569.289 727.289C588.043 708.536 613.478 698 640 698Z" fill="#D88ADB"/>
<path d="M540 598H640V698C613.478 698 588.043 687.464 569.289 668.711C550.536 649.957 540 624.522 540 598Z" fill="#B930C2"/>
<path d="M640 498V598H540C540 571.478 550.536 546.043 569.289 527.289C588.043 508.536 613.478 498 640 498Z" fill="#D88ADB"/>
<path d="M540 398H640V498C613.478 498 588.043 487.464 569.289 468.711C550.536 449.957 540 424.522 540 398Z" fill="#E243AA"/>
<path d="M590 298C562.386 298 540 320.386 540 348C540 375.614 562.386 398 590 398C617.614 398 640 375.614 640 348C640 320.386 617.614 298 590 298Z" fill="#E243AA"/>
<path d="M640 298H540V198C566.522 198 591.957 208.536 610.711 227.289C629.464 246.043 640 271.478 640 298Z" fill="#B930C2"/>
<path d="M540 98H640V198C613.478 198 588.043 187.464 569.289 168.711C550.536 149.957 540 124.522 540 98Z" fill="#D88ADB"/>
<path d="M640 -2V98L540 98C540 71.4784 550.536 46.043 569.289 27.2893C588.043 8.53568 613.478 -2 640 -2Z" fill="#D88ADB"/>
<path d="M440 998V898H540C540 924.522 529.464 949.957 510.711 968.711C491.957 987.464 466.522 998 440 998Z" fill="#B930C2"/>
<path d="M440 798H540V898C513.478 898 488.043 887.464 469.289 868.711C450.536 849.957 440 824.522 440 798Z" fill="#B930C2"/>
<path d="M440 798V698H540C540 724.522 529.464 749.957 510.711 768.711C491.957 787.464 466.522 798 440 798Z" fill="#E243AA"/>
<path d="M540 698H440V598C466.522 598 491.957 608.536 510.711 627.289C529.464 646.043 540 671.478 540 698Z" fill="#E243AA"/>
<path d="M540 598H440V498C466.522 498 491.957 508.536 510.711 527.289C529.464 546.043 540 571.478 540 598Z" fill="#B930C2"/>
<path d="M540 398V498H440C440 471.478 450.536 446.043 469.289 427.289C488.043 408.536 513.478 398 540 398Z" fill="#D88ADB"/>
<path d="M440 398V298H540C540 324.522 529.464 349.957 510.711 368.711C491.957 387.464 466.522 398 440 398Z" fill="#D88ADB"/>
<path d="M440 198H540V298C513.478 298 488.043 287.464 469.289 268.711C450.536 249.957 440 224.522 440 198Z" fill="#B930C2"/>
<path d="M440 198V98H540C540 124.522 529.464 149.957 510.711 168.711C491.957 187.464 466.522 198 440 198Z" fill="#AB3392"/>
<path d="M440 -2.00012H540V97.9999C513.478 97.9999 488.043 87.4642 469.289 68.7106C450.536 49.9569 440 24.5215 440 -2.00012Z" fill="#E243AA"/>
<path d="M390 998C417.614 998 440 975.614 440 948C440 920.386 417.614 898 390 898C362.386 898 340 920.386 340 948C340 975.614 362.386 998 390 998Z" fill="#B930C2"/>
<path d="M340 798H440V898C413.478 898 388.043 887.464 369.289 868.711C350.536 849.957 340 824.522 340 798Z" fill="#E243AA"/>
<path d="M440 698V798H340C340 771.478 350.536 746.043 369.289 727.289C388.043 708.536 413.478 698 440 698Z" fill="#D88ADB"/>
<path d="M340 598H440V698C413.478 698 388.043 687.464 369.289 668.711C350.536 649.957 340 624.522 340 598Z" fill="#B930C2"/>
<path d="M340 598V498H440C440 524.522 429.464 549.957 410.711 568.711C391.957 587.464 366.522 598 340 598Z" fill="#B930C2"/>
<path d="M440 448C440 420.386 417.614 398 390 398C362.386 398 340 420.386 340 448C340 475.614 362.386 498 390 498C417.614 498 440 475.614 440 448Z" fill="#D88ADB"/>
<path d="M340 398V298H440C440 324.522 429.464 349.957 410.711 368.711C391.957 387.464 366.522 398 340 398Z" fill="#D88ADB"/>
<path d="M440 248C440 220.386 417.614 198 390 198C362.386 198 340 220.386 340 248C340 275.614 362.386 298 390 298C417.614 298 440 275.614 440 248Z" fill="#AB3392"/>
<path d="M340 98H440V198C413.478 198 388.043 187.464 369.289 168.711C350.536 149.957 340 124.522 340 98Z" fill="#E243AA"/>
<path d="M340 98V-2.00001H440C440 24.5216 429.464 49.957 410.711 68.7107C391.957 87.4643 366.522 98 340 98Z" fill="#D88ADB"/>
<path d="M240 998V898H340C340 924.522 329.464 949.957 310.711 968.711C291.957 987.464 266.522 998 240 998Z" fill="#E243AA"/>
<path d="M340 898H240V798C266.522 798 291.957 808.536 310.711 827.289C329.464 846.043 340 871.478 340 898Z" fill="#AB3392"/>
<path d="M240 798V698H340C340 724.522 329.464 749.957 310.711 768.711C291.957 787.464 266.522 798 240 798Z" fill="#E243AA"/>
<path d="M240 598H340V698C313.478 698 288.043 687.464 269.289 668.711C250.536 649.957 240 624.522 240 598Z" fill="#E243AA"/>
<path d="M340 498V598H240C240 571.478 250.536 546.043 269.289 527.289C288.043 508.536 313.478 498 340 498Z" fill="#B930C2"/>
<path d="M340 498H240V398C266.522 398 291.957 408.536 310.711 427.289C329.464 446.043 340 471.478 340 498Z" fill="#AB3392"/>
<path d="M240 298H340V398C313.478 398 288.043 387.464 269.289 368.711C250.536 349.957 240 324.522 240 298Z" fill="#AB3392"/>
<path d="M340 198V298H240C240 271.478 250.536 246.043 269.289 227.289C288.043 208.536 313.478 198 340 198Z" fill="#B930C2"/>
<path d="M340 198H240V98C266.522 98 291.957 108.536 310.711 127.289C329.464 146.043 340 171.478 340 198Z" fill="#D88ADB"/>
<path d="M240 -2H340V98C313.478 98 288.043 87.4643 269.289 68.7107C250.536 49.957 240 24.5216 240 -2Z" fill="#B930C2"/>
<path d="M240 998H140V898C166.522 898 191.957 908.536 210.711 927.289C229.464 946.043 240 971.478 240 998Z" fill="#E243AA"/>
<path d="M140 898V798H240C240 824.522 229.464 849.957 210.711 868.711C191.957 887.464 166.522 898 140 898Z" fill="#E243AA"/>
<path d="M240 798H140V698C166.522 698 191.957 708.536 210.711 727.289C229.464 746.043 240 771.478 240 798Z" fill="#AB3392"/>
<path d="M140 598H240V698C213.478 698 188.043 687.464 169.289 668.711C150.536 649.957 140 624.522 140 598Z" fill="#B930C2"/>
<path d="M140 598V498H240C240 524.522 229.464 549.957 210.711 568.711C191.957 587.464 166.522 598 140 598Z" fill="#E243AA"/>
<path d="M240 448C240 420.386 217.614 398 190 398C162.386 398 140 420.386 140 448C140 475.614 162.386 498 190 498C217.614 498 240 475.614 240 448Z" fill="#AB3392"/>
<path d="M240 398H140V298C166.522 298 191.957 308.536 210.711 327.289C229.464 346.043 240 371.478 240 398Z" fill="#B930C2"/>
<path d="M240 198L240 298H140C140 271.478 150.536 246.043 169.289 227.289C188.043 208.536 213.478 198 240 198Z" fill="#D88ADB"/>
<path d="M140 98H240V198C213.478 198 188.043 187.464 169.289 168.711C150.536 149.957 140 124.522 140 98Z" fill="#AB3392"/>
<path d="M190 98C217.614 98 240 75.6142 240 48C240 20.3858 217.614 -2 190 -2C162.386 -2 140 20.3858 140 48C140 75.6142 162.386 98 190 98Z" fill="#D88ADB"/>
<path d="M40 998L40 898H140C140 924.522 129.464 949.957 110.711 968.711C91.957 987.464 66.5216 998 40 998Z" fill="#D88ADB"/>
<path d="M40 798H140V898C113.478 898 88.043 887.464 69.2893 868.711C50.5357 849.957 40 824.522 40 798Z" fill="#E243AA"/>
<path d="M140 698L140 798H40C40 771.478 50.5357 746.043 69.2893 727.289C88.043 708.536 113.478 698 140 698Z" fill="#AB3392"/>
<path d="M40 598H140V698C113.478 698 88.043 687.464 69.2893 668.711C50.5357 649.957 40 624.522 40 598Z" fill="#B930C2"/>
<path d="M140 498V598H40C40 571.478 50.5357 546.043 69.2893 527.289C88.043 508.536 113.478 498 140 498Z" fill="#B930C2"/>
<path d="M40 398H140V498C113.478 498 88.043 487.464 69.2893 468.711C50.5357 449.957 40 424.522 40 398Z" fill="#AB3392"/>
<path d="M40 298H140V398C113.478 398 88.043 387.464 69.2893 368.711C50.5357 349.957 40 324.522 40 298Z" fill="#AB3392"/>
<path d="M40 298L40 198H140C140 224.522 129.464 249.957 110.711 268.711C91.957 287.464 66.5216 298 40 298Z" fill="#AB3392"/>
<path d="M140 148C140 120.386 117.614 98 90 98C62.3858 98 40 120.386 40 148C40 175.614 62.3858 198 90 198C117.614 198 140 175.614 140 148Z" fill="#E243AA"/>
<path d="M40 -2H140V98C113.478 98 88.043 87.4643 69.2893 68.7107C50.5357 49.957 40 24.5216 40 -2Z" fill="#D88ADB"/>
<path d="M40 898L40 998H-60C-60 971.478 -49.4643 946.043 -30.7107 927.289C-11.957 908.536 13.4784 898 40 898Z" fill="#D88ADB"/>
<path d="M40 798V898H-60C-60 871.478 -49.4643 846.043 -30.7107 827.289C-11.957 808.536 13.4784 798 40 798Z" fill="#E243AA"/>
<path d="M-60 698H40V798C13.4784 798 -11.957 787.464 -30.7107 768.711C-49.4643 749.957 -60 724.522 -60 698Z" fill="#E243AA"/>
<path d="M40 698H-60L-60 598C-33.4784 598 -8.04296 608.536 10.7107 627.289C29.4643 646.043 40 671.478 40 698Z" fill="#E243AA"/>
<path d="M40 498V598H-60C-60 571.478 -49.4643 546.043 -30.7107 527.289C-11.957 508.536 13.4784 498 40 498Z" fill="#B930C2"/>
<path d="M-10 498C17.6142 498 40 475.614 40 448C40 420.386 17.6142 398 -10 398C-37.6142 398 -60 420.386 -60 448C-60 475.614 -37.6142 498 -10 498Z" fill="#AB3392"/>
<path d="M40 298V398H-60C-60 371.478 -49.4643 346.043 -30.7107 327.289C-11.957 308.536 13.4784 298 40 298Z" fill="#AB3392"/>
<path d="M-60 298L-60 198H40C40 224.522 29.4643 249.957 10.7107 268.711C-8.04296 287.464 -33.4784 298 -60 298Z" fill="#B930C2"/>
<path d="M40 198H-60L-60 97.9999C-33.4784 97.9999 -8.04296 108.536 10.7107 127.289C29.4643 146.043 40 171.478 40 198Z" fill="#B930C2"/>
<path d="M-10 98C17.6142 98 40 75.6142 40 48C40 20.3858 17.6142 -2 -10 -2C-37.6142 -2 -60 20.3858 -60 48C-60 75.6142 -37.6142 98 -10 98Z" fill="#AB3392"/>
</g>
<defs>
<clipPath id="clip0_414_516">
<rect width="1440" height="998" fill="white" transform="matrix(-1 0 0 -1 1440 998)"/>
</clipPath>
</defs>
</svg>
