<svg width="165" height="96" viewBox="0 0 165 96" fill="none" xmlns="http://www.w3.org/2000/svg">
<path d="M13.84 27.4C9.52 27.4 6.21333 26.24 3.92 23.92C1.62667 21.5733 0.48 18.3867 0.48 14.36C0.48 10.0933 1.58667 6.77333 3.8 4.4C6.04 2.02667 9.37333 0.839998 13.8 0.839998C15.3467 0.839998 16.7333 0.959998 17.96 1.2C19.2133 1.41333 20.3867 1.72 21.48 2.12V6.84C19.2133 5.90667 16.7867 5.44 14.2 5.44C11.2667 5.44 9.16 6.17333 7.88 7.64C6.6 9.10667 5.96 11.3467 5.96 14.36C5.96 20.0133 8.73333 22.84 14.28 22.84C15.5333 22.84 16.7733 22.7333 18 22.52C19.2267 22.28 20.4 21.9333 21.52 21.48V26.24C20.4267 26.5867 19.2533 26.8667 18 27.08C16.7733 27.2933 15.3867 27.4 13.84 27.4ZM32.7444 27.4C29.1977 27.4 26.5977 26.5467 24.9444 24.84C23.291 23.1067 22.4644 20.6667 22.4644 17.52C22.4644 14.3733 23.291 11.9467 24.9444 10.24C26.6244 8.50667 29.2244 7.64 32.7444 7.64C36.291 7.64 38.891 8.50667 40.5444 10.24C42.2244 11.9467 43.0644 14.3733 43.0644 17.52C43.0644 20.6667 42.2377 23.1067 40.5844 24.84C38.931 26.5467 36.3177 27.4 32.7444 27.4ZM32.7444 22.8C34.4777 22.8 35.7177 22.4133 36.4644 21.64C37.211 20.84 37.5844 19.4667 37.5844 17.52C37.5844 15.5733 37.211 14.2133 36.4644 13.44C35.7177 12.64 34.4777 12.24 32.7444 12.24C31.0377 12.24 29.811 12.64 29.0644 13.44C28.3177 14.2133 27.9444 15.5733 27.9444 17.52C27.9444 19.4667 28.3177 20.84 29.0644 21.64C29.811 22.4133 31.0377 22.8 32.7444 22.8ZM44.8191 27V8.04H49.8191L50.0191 9.88C50.9257 9.18667 51.9124 8.64 52.9791 8.24C54.0724 7.84 55.2457 7.64 56.4991 7.64C57.8324 7.64 58.8591 7.84 59.5791 8.24C60.3257 8.64 60.8991 9.21333 61.2991 9.96C62.1791 9.26667 63.1791 8.70667 64.2991 8.28C65.4457 7.85333 66.7924 7.64 68.3391 7.64C70.5257 7.64 72.1391 8.21333 73.1791 9.36C74.2191 10.48 74.7391 12.2 74.7391 14.52V27H69.4191V15.12C69.4191 13.8667 69.1524 12.9733 68.6191 12.44C68.0857 11.88 67.2324 11.6 66.0591 11.6C64.4591 11.6 63.1257 12.1733 62.0591 13.32C62.1924 13.7733 62.2591 14.32 62.2591 14.96V27H57.2191V15.12C57.2191 13.9467 57.0191 13.0667 56.6191 12.48C56.2191 11.8933 55.4457 11.6 54.2991 11.6C53.4991 11.6 52.7391 11.8133 52.0191 12.24C51.3257 12.64 50.6991 13.1067 50.1391 13.64V27H44.8191ZM77.155 35.64V8.04H81.835L82.115 9.8C82.9417 9.10667 83.8483 8.57333 84.835 8.2C85.8217 7.82667 86.9817 7.64 88.315 7.64C91.0883 7.64 93.2217 8.4 94.715 9.92C96.235 11.4133 96.995 13.8667 96.995 17.28C96.995 20.6933 96.1817 23.24 94.555 24.92C92.955 26.5733 90.7683 27.4 87.995 27.4C85.8617 27.4 84.0483 26.92 82.555 25.96V35.64H77.155ZM86.635 23.44C88.235 23.44 89.4483 22.9467 90.275 21.96C91.1017 20.9733 91.515 19.4267 91.515 17.32C91.515 15.2933 91.1417 13.84 90.395 12.96C89.6483 12.0533 88.4483 11.6 86.795 11.6C85.1417 11.6 83.7283 12.1733 82.555 13.32V22C83.115 22.4267 83.7017 22.7733 84.315 23.04C84.955 23.3067 85.7283 23.44 86.635 23.44ZM105.749 27.4C103.482 27.4 101.709 26.7733 100.429 25.52C99.1754 24.24 98.5488 22.3733 98.5488 19.92V8.04H103.949V19.8C103.949 21.08 104.255 22.0133 104.869 22.6C105.482 23.16 106.402 23.44 107.629 23.44C108.562 23.44 109.415 23.2533 110.189 22.88C110.989 22.5067 111.669 22.04 112.229 21.48V8.04H117.629V27H112.629L112.429 25.2C111.629 25.84 110.682 26.3733 109.589 26.8C108.522 27.2 107.242 27.4 105.749 27.4ZM127.745 27.4C125.559 27.4 123.932 26.8267 122.865 25.68C121.825 24.5333 121.305 22.9733 121.305 21V12.2H118.625V8.04H121.305V3.96L126.705 2.36V8.04H131.505L131.185 12.2H126.705V20.64C126.705 21.68 126.945 22.4 127.425 22.8C127.905 23.1733 128.652 23.36 129.665 23.36C130.412 23.36 131.185 23.2267 131.985 22.96V26.68C131.399 26.92 130.759 27.0933 130.065 27.2C129.372 27.3333 128.599 27.4 127.745 27.4ZM142.637 27.4C139.357 27.4 136.757 26.5867 134.837 24.96C132.917 23.3067 131.957 20.8133 131.957 17.48C131.957 14.4667 132.757 12.08 134.357 10.32C135.983 8.53333 138.397 7.64 141.597 7.64C144.53 7.64 146.77 8.41333 148.317 9.96C149.89 11.48 150.677 13.48 150.677 15.96V19.4H136.957C137.25 20.92 137.943 21.96 139.037 22.52C140.157 23.08 141.73 23.36 143.757 23.36C144.77 23.36 145.797 23.2667 146.837 23.08C147.903 22.8933 148.81 22.6533 149.557 22.36V26.2C148.677 26.6 147.65 26.8933 146.477 27.08C145.303 27.2933 144.023 27.4 142.637 27.4ZM136.957 16.08H145.957V15.04C145.957 13.9467 145.637 13.0933 144.997 12.48C144.357 11.84 143.277 11.52 141.757 11.52C139.97 11.52 138.717 11.88 137.997 12.6C137.303 13.32 136.957 14.48 136.957 16.08ZM152.436 27V8.04H157.436L157.676 10C158.53 9.46667 159.583 8.98667 160.836 8.56C162.116 8.10667 163.37 7.8 164.596 7.64V11.72C163.876 11.8267 163.09 11.9867 162.236 12.2C161.383 12.4133 160.57 12.6533 159.796 12.92C159.023 13.1867 158.37 13.4667 157.836 13.76V27H152.436ZM9.28 61.4C7.62667 61.4 6.08 61.28 4.64 61.04C3.22667 60.8 2 60.4533 0.96 60V55.24C2.13333 55.72 3.4 56.1067 4.76 56.4C6.12 56.6933 7.45333 56.84 8.76 56.84C10.6267 56.84 12 56.6667 12.88 56.32C13.76 55.9733 14.2 55.1867 14.2 53.96C14.2 53.1867 14.0133 52.5733 13.64 52.12C13.2667 51.6667 12.6133 51.2667 11.68 50.92C10.7733 50.5467 9.48 50.1333 7.8 49.68C5.10667 48.9333 3.21333 48 2.12 46.88C1.02667 45.76 0.48 44.2133 0.48 42.24C0.48 39.8667 1.34667 38.04 3.08 36.76C4.81333 35.48 7.33333 34.84 10.64 34.84C12.1867 34.84 13.6267 34.9467 14.96 35.16C16.2933 35.3733 17.3733 35.6267 18.2 35.92V40.68C16.0133 39.8533 13.7333 39.44 11.36 39.44C9.68 39.44 8.36 39.6267 7.4 40C6.44 40.3467 5.96 41.0933 5.96 42.24C5.96 42.9067 6.13333 43.44 6.48 43.84C6.82667 44.24 7.41333 44.6 8.24 44.92C9.09333 45.24 10.28 45.6 11.8 46C13.9067 46.56 15.5333 47.2267 16.68 48C17.8267 48.7733 18.6133 49.6533 19.04 50.64C19.4933 51.6267 19.72 52.7333 19.72 53.96C19.72 56.2 18.8667 58 17.16 59.36C15.4533 60.72 12.8267 61.4 9.28 61.4ZM31.1475 61.4C27.7608 61.4 25.1608 60.56 23.3475 58.88C21.5608 57.2 20.6675 54.7467 20.6675 51.52C20.6675 48.1867 21.6275 45.7067 23.5475 44.08C25.4942 42.4533 28.0808 41.64 31.3075 41.64C32.6408 41.64 33.7875 41.7333 34.7475 41.92C35.7075 42.1067 36.6408 42.4133 37.5475 42.84V46.72C36.8808 46.4 36.1075 46.1467 35.2275 45.96C34.3475 45.7733 33.4008 45.68 32.3875 45.68C30.3608 45.68 28.8142 46.1067 27.7475 46.96C26.6808 47.7867 26.1475 49.3067 26.1475 51.52C26.1475 53.5467 26.6275 55.0267 27.5875 55.96C28.5742 56.8933 30.1608 57.36 32.3475 57.36C33.2808 57.36 34.1875 57.2667 35.0675 57.08C35.9742 56.8933 36.8142 56.6133 37.5875 56.24V60.24C35.8008 61.0133 33.6542 61.4 31.1475 61.4ZM40.3188 38.56V34.32H46.1988V38.56H40.3188ZM40.7588 61V46.04H37.9188L38.3988 42.04H46.1588V61H40.7588ZM58.6366 61.4C55.3566 61.4 52.7566 60.5867 50.8366 58.96C48.9166 57.3067 47.9566 54.8133 47.9566 51.48C47.9566 48.4667 48.7566 46.08 50.3566 44.32C51.9832 42.5333 54.3966 41.64 57.5966 41.64C60.5299 41.64 62.7699 42.4133 64.3166 43.96C65.8899 45.48 66.6766 47.48 66.6766 49.96V53.4H52.9566C53.2499 54.92 53.9432 55.96 55.0366 56.52C56.1566 57.08 57.7299 57.36 59.7566 57.36C60.7699 57.36 61.7966 57.2667 62.8366 57.08C63.9032 56.8933 64.8099 56.6533 65.5566 56.36V60.2C64.6766 60.6 63.6499 60.8933 62.4766 61.08C61.3032 61.2933 60.0232 61.4 58.6366 61.4ZM52.9566 50.08H61.9566V49.04C61.9566 47.9467 61.6366 47.0933 60.9966 46.48C60.3566 45.84 59.2766 45.52 57.7566 45.52C55.9699 45.52 54.7166 45.88 53.9966 46.6C53.3032 47.32 52.9566 48.48 52.9566 50.08ZM68.4363 61V42.04H73.4363L73.6363 43.84C74.4096 43.2533 75.3829 42.7467 76.5563 42.32C77.7563 41.8667 79.0096 41.64 80.3163 41.64C82.8229 41.64 84.6496 42.2267 85.7963 43.4C86.9429 44.5733 87.5163 46.3867 87.5163 48.84V61H82.1163V49.12C82.1163 47.84 81.8496 46.9333 81.3163 46.4C80.8096 45.8667 79.8496 45.6 78.4363 45.6C77.6096 45.6 76.7696 45.7867 75.9163 46.16C75.0896 46.5333 74.3963 47 73.8363 47.56V61H68.4363ZM98.9678 61.4C95.5811 61.4 92.9811 60.56 91.1678 58.88C89.3811 57.2 88.4878 54.7467 88.4878 51.52C88.4878 48.1867 89.4478 45.7067 91.3678 44.08C93.3145 42.4533 95.9011 41.64 99.1278 41.64C100.461 41.64 101.608 41.7333 102.568 41.92C103.528 42.1067 104.461 42.4133 105.368 42.84V46.72C104.701 46.4 103.928 46.1467 103.048 45.96C102.168 45.7733 101.221 45.68 100.208 45.68C98.1811 45.68 96.6345 46.1067 95.5678 46.96C94.5011 47.7867 93.9678 49.3067 93.9678 51.52C93.9678 53.5467 94.4478 55.0267 95.4078 55.96C96.3945 56.8933 97.9811 57.36 100.168 57.36C101.101 57.36 102.008 57.2667 102.888 57.08C103.794 56.8933 104.634 56.6133 105.408 56.24V60.24C103.621 61.0133 101.474 61.4 98.9678 61.4ZM116.699 61.4C113.419 61.4 110.819 60.5867 108.899 58.96C106.979 57.3067 106.019 54.8133 106.019 51.48C106.019 48.4667 106.819 46.08 108.419 44.32C110.046 42.5333 112.459 41.64 115.659 41.64C118.592 41.64 120.832 42.4133 122.379 43.96C123.952 45.48 124.739 47.48 124.739 49.96V53.4H111.019C111.312 54.92 112.006 55.96 113.099 56.52C114.219 57.08 115.792 57.36 117.819 57.36C118.832 57.36 119.859 57.2667 120.899 57.08C121.966 56.8933 122.872 56.6533 123.619 56.36V60.2C122.739 60.6 121.712 60.8933 120.539 61.08C119.366 61.2933 118.086 61.4 116.699 61.4ZM111.019 50.08H120.019V49.04C120.019 47.9467 119.699 47.0933 119.059 46.48C118.419 45.84 117.339 45.52 115.819 45.52C114.032 45.52 112.779 45.88 112.059 46.6C111.366 47.32 111.019 48.48 111.019 50.08ZM9.28 95.4C7.62667 95.4 6.08 95.28 4.64 95.04C3.22667 94.8 2 94.4533 0.96 94V89.24C2.13333 89.72 3.4 90.1067 4.76 90.4C6.12 90.6933 7.45333 90.84 8.76 90.84C10.6267 90.84 12 90.6667 12.88 90.32C13.76 89.9733 14.2 89.1867 14.2 87.96C14.2 87.1867 14.0133 86.5733 13.64 86.12C13.2667 85.6667 12.6133 85.2667 11.68 84.92C10.7733 84.5467 9.48 84.1333 7.8 83.68C5.10667 82.9333 3.21333 82 2.12 80.88C1.02667 79.76 0.48 78.2133 0.48 76.24C0.48 73.8667 1.34667 72.04 3.08 70.76C4.81333 69.48 7.33333 68.84 10.64 68.84C12.1867 68.84 13.6267 68.9467 14.96 69.16C16.2933 69.3733 17.3733 69.6267 18.2 69.92V74.68C16.0133 73.8533 13.7333 73.44 11.36 73.44C9.68 73.44 8.36 73.6267 7.4 74C6.44 74.3467 5.96 75.0933 5.96 76.24C5.96 76.9067 6.13333 77.44 6.48 77.84C6.82667 78.24 7.41333 78.6 8.24 78.92C9.09333 79.24 10.28 79.6 11.8 80C13.9067 80.56 15.5333 81.2267 16.68 82C17.8267 82.7733 18.6133 83.6533 19.04 84.64C19.4933 85.6267 19.72 86.7333 19.72 87.96C19.72 90.2 18.8667 92 17.16 93.36C15.4533 94.72 12.8267 95.4 9.28 95.4ZM21.4675 95V68.04H26.8675V77.64C27.6408 77.0533 28.5875 76.5733 29.7075 76.2C30.8275 75.8267 32.0408 75.64 33.3475 75.64C35.8542 75.64 37.6808 76.2267 38.8275 77.4C39.9742 78.5733 40.5475 80.3867 40.5475 82.84V95H35.1475V83.12C35.1475 81.84 34.8808 80.9333 34.3475 80.4C33.8408 79.8667 32.8808 79.6 31.4675 79.6C30.6408 79.6 29.8008 79.7867 28.9475 80.16C28.1208 80.5333 27.4275 81 26.8675 81.56V95H21.4675ZM52.1991 95.4C48.9191 95.4 46.3191 94.5867 44.3991 92.96C42.4791 91.3067 41.5191 88.8133 41.5191 85.48C41.5191 82.4667 42.3191 80.08 43.9191 78.32C45.5457 76.5333 47.9591 75.64 51.1591 75.64C54.0924 75.64 56.3324 76.4133 57.8791 77.96C59.4524 79.48 60.2391 81.48 60.2391 83.96V87.4H46.5191C46.8124 88.92 47.5057 89.96 48.5991 90.52C49.7191 91.08 51.2924 91.36 53.3191 91.36C54.3324 91.36 55.3591 91.2667 56.3991 91.08C57.4657 90.8933 58.3724 90.6533 59.1191 90.36V94.2C58.2391 94.6 57.2124 94.8933 56.0391 95.08C54.8657 95.2933 53.5857 95.4 52.1991 95.4ZM46.5191 84.08H55.5191V83.04C55.5191 81.9467 55.1991 81.0933 54.5591 80.48C53.9191 79.84 52.8391 79.52 51.3191 79.52C49.5324 79.52 48.2791 79.88 47.5591 80.6C46.8657 81.32 46.5191 82.48 46.5191 84.08ZM67.2788 95.4C65.4388 95.4 64.0921 94.9733 63.2388 94.12C62.4121 93.2667 61.9988 91.9067 61.9988 90.04V68.04H67.3988V89.6C67.3988 90.2667 67.5321 90.7333 67.7988 91C68.0654 91.24 68.4521 91.36 68.9588 91.36C69.6521 91.36 70.2788 91.2667 70.8388 91.08V94.8C69.8254 95.2 68.6388 95.4 67.2788 95.4ZM78.4172 95.4C76.2305 95.4 74.6039 94.8267 73.5372 93.68C72.4972 92.5333 71.9772 90.9733 71.9772 89V80.2H69.2972V76.04H71.9772V71.96L77.3772 70.36V76.04H82.1772L81.8572 80.2H77.3772V88.64C77.3772 89.68 77.6172 90.4 78.0972 90.8C78.5772 91.1733 79.3239 91.36 80.3372 91.36C81.0839 91.36 81.8572 91.2267 82.6572 90.96V94.68C82.0705 94.92 81.4305 95.0933 80.7372 95.2C80.0439 95.3333 79.2705 95.4 78.4172 95.4ZM93.3084 95.4C90.0284 95.4 87.4284 94.5867 85.5084 92.96C83.5884 91.3067 82.6284 88.8133 82.6284 85.48C82.6284 82.4667 83.4284 80.08 85.0284 78.32C86.6551 76.5333 89.0684 75.64 92.2684 75.64C95.2018 75.64 97.4418 76.4133 98.9884 77.96C100.562 79.48 101.348 81.48 101.348 83.96V87.4H87.6284C87.9218 88.92 88.6151 89.96 89.7084 90.52C90.8284 91.08 92.4018 91.36 94.4284 91.36C95.4418 91.36 96.4684 91.2667 97.5084 91.08C98.5751 90.8933 99.4818 90.6533 100.228 90.36V94.2C99.3484 94.6 98.3218 94.8933 97.1484 95.08C95.9751 95.2933 94.6951 95.4 93.3084 95.4ZM87.6284 84.08H96.6284V83.04C96.6284 81.9467 96.3084 81.0933 95.6684 80.48C95.0284 79.84 93.9484 79.52 92.4284 79.52C90.6418 79.52 89.3884 79.88 88.6684 80.6C87.9751 81.32 87.6284 82.48 87.6284 84.08ZM103.108 95V76.04H108.108L108.348 78C109.201 77.4667 110.255 76.9867 111.508 76.56C112.788 76.1067 114.041 75.8 115.268 75.64V79.72C114.548 79.8267 113.761 79.9867 112.908 80.2C112.055 80.4133 111.241 80.6533 110.468 80.92C109.695 81.1867 109.041 81.4667 108.508 81.76V95H103.108Z" fill="url(#paint0_linear_414_522)"/>
<defs>
<linearGradient id="paint0_linear_414_522" x1="5" y1="12" x2="133.5" y2="95" gradientUnits="userSpaceOnUse">
<stop stop-color="#77257C"/>
<stop offset="1" stop-color="#E243AA"/>
</linearGradient>
</defs>
</svg>
