<svg width="102" height="120" viewBox="0 0 102 120" fill="none" xmlns="http://www.w3.org/2000/svg">
<g style="mix-blend-mode:color-dodge" opacity="0.5">
<path d="M1.56153 92.5512L0 89.7208V83.1568L4.94664 80.1698L34.8029 98.2006L37.0756 96.8273V93.6754L35.3618 90.5739L1.56153 70.1602L0 67.3328V38.3807L4.94664 35.3937L47.4556 61.0625L49.0172 63.8926V70.4567L44.0705 73.4437L14.2142 55.413L11.9414 56.7861V60.3017L13.3532 62.858L47.4556 83.4532L49.0172 86.2807V115.233L44.0705 118.22L1.56153 92.5512Z" fill="#D9D9D9"/>
<path d="M87.6314 85.935L87.7958 85.8358L87.8906 85.664L89.3772 82.9706L89.4721 82.7989V82.6003V79.1743V78.7463L89.1177 78.5325L86.8449 77.1621L86.491 76.9488L86.1372 77.1623L56.6375 94.9765L52.3992 92.4172V64.0912L53.7709 61.6047L95.7615 36.249L100 38.8084V44.7462L98.6282 47.2299L64.7489 67.6898L64.5847 67.789L64.4898 67.9608L63.0192 70.6233L62.9243 70.7952V70.9938V74.4393V74.8673L63.2787 75.0811L65.5515 76.4515L65.9054 76.6648L66.2592 76.4513L95.7615 58.6372L100 61.1964V89.5224L98.6281 92.0089L56.6375 117.365L52.3992 114.805V108.867L53.7709 106.384L87.6314 85.935Z" stroke="#F0F2F5" stroke-width="3"/>
<path d="M53.3339 14.9959L53.1697 14.8967H52.9798H47.7257H47.536L47.3716 14.9959L27.1413 27.2122L26.7872 27.426V27.8536V30.6V31.0278L27.1412 31.2416L56.6407 49.0556V54.1743L51.7258 57.1445H48.9823L7.76721 32.2533V26.2005L47.8406 2H52.8677L93.7163 26.6675V31.7863L88.7989 34.7564H86.0554L53.3339 14.9959Z" stroke="#F0F2F5" stroke-width="3"/>
</g>
</svg>
