<svg width="40" height="40" viewBox="0 0 40 40" fill="none" xmlns="http://www.w3.org/2000/svg">
<circle cx="20" cy="20" r="20" transform="matrix(-1 0 0 1 40 0)" fill="#3D495C"/>
<circle cx="20" cy="20" r="20" transform="matrix(-1 0 0 1 40 0)" fill="#3D495C"/>
<path d="M29.7071 20.7071C30.0976 20.3166 30.0976 19.6834 29.7071 19.2929L23.3431 12.9289C22.9526 12.5384 22.3194 12.5384 21.9289 12.9289C21.5384 13.3195 21.5384 13.9526 21.9289 14.3431L27.5858 20L21.9289 25.6569C21.5384 26.0474 21.5384 26.6805 21.9289 27.0711C22.3194 27.4616 22.9526 27.4616 23.3431 27.0711L29.7071 20.7071ZM11.7373 21H29V19H11.7373V21Z" fill="#F0F2F5"/>
</svg>
