<svg width="1920" height="398" viewBox="0 0 1920 398" fill="none" xmlns="http://www.w3.org/2000/svg">
<g clip-path="url(#clip0_123_894)">
<path d="M129.159 129.097C96.3532 128.083 65.1033 114.608 41.8244 91.3289C18.5455 68.05 5.07041 36.8001 4.05632 3.99432H129.159V129.097Z" stroke="#005696" stroke-width="7.98922"/>
<path d="M4.05632 262.312C5.07041 229.507 18.5455 198.257 41.8244 174.978C65.1033 151.699 96.3532 138.224 129.159 137.21V262.312H4.05632Z" stroke="#E46225" stroke-width="7.98922"/>
<path d="M3.99457 270.364C36.8003 271.378 68.0503 284.853 91.3292 308.132C114.608 331.411 128.083 362.661 129.097 395.467H3.99457V270.364Z" stroke="#BF1E2D" stroke-width="7.98922"/>
<path d="M262.313 129.097C229.507 128.083 198.257 114.608 174.978 91.3292C151.699 68.0503 138.224 36.8004 137.21 3.99461H262.313V129.097Z" stroke="#005696" stroke-width="7.98922"/>
<path d="M137.148 137.21C169.954 138.224 201.204 151.699 224.483 174.978C247.762 198.257 261.237 229.507 262.251 262.312H137.148V137.21Z" stroke="#E46225" stroke-width="7.98922"/>
<path d="M262.251 270.302C261.237 303.108 247.762 334.358 224.483 357.637C201.204 380.915 169.954 394.391 137.148 395.405L137.148 270.302H262.251Z" stroke="#149ED8" stroke-width="7.98922"/>
<path d="M270.302 4.05605C303.108 5.07013 334.358 18.5452 357.637 41.8241C380.915 65.103 394.391 96.353 395.405 129.159L270.302 129.159V4.05605Z" stroke="#005696" stroke-width="7.98922"/>
<path d="M270.302 137.21C303.108 138.224 334.358 151.699 357.637 174.978C380.915 198.257 394.391 229.507 395.405 262.312H270.302V137.21Z" stroke="#149ED8" stroke-width="7.98922"/>
<path d="M270.302 270.364C303.108 271.378 334.358 284.853 357.637 308.132C380.915 331.411 394.391 362.661 395.405 395.467H270.302V270.364Z" stroke="#149ED8" stroke-width="7.98922"/>
<path d="M403.517 129.159C404.531 96.3532 418.006 65.1033 441.285 41.8244C464.564 18.5455 495.814 5.0704 528.62 4.05632V129.159H403.517Z" stroke="#E46225" stroke-width="7.98922"/>
<path d="M403.517 262.312C404.531 229.507 418.006 198.257 441.285 174.978C464.564 151.699 495.814 138.224 528.62 137.21V262.312H403.517Z" stroke="#BF1E2D" stroke-width="7.98922"/>
<path d="M403.456 270.364C436.261 271.378 467.511 284.853 490.79 308.132C514.069 331.411 527.544 362.661 528.558 395.467H403.456V270.364Z" stroke="#149ED8" stroke-width="7.98922"/>
<path d="M536.671 129.159C537.685 96.3532 551.16 65.1033 574.439 41.8244C597.718 18.5455 628.968 5.0704 661.773 4.05632V129.159H536.671Z" stroke="#E46225" stroke-width="7.98922"/>
<path d="M536.671 262.312C537.685 229.507 551.16 198.257 574.439 174.978C597.718 151.699 628.968 138.224 661.773 137.21V262.312H536.671Z" stroke="#BF1E2D" stroke-width="7.98922"/>
<path d="M536.671 395.467C537.685 362.661 551.16 331.411 574.439 308.132C597.718 284.853 628.968 271.378 661.773 270.364V395.467H536.671Z" stroke="#BF1E2D" stroke-width="7.98922"/>
<path d="M794.927 66.5768C794.927 101.14 766.908 129.159 732.345 129.159C697.782 129.159 669.763 101.14 669.763 66.5768C669.763 32.0136 697.782 3.99461 732.345 3.99461C766.908 3.99461 794.927 32.0136 794.927 66.5768Z" stroke="#BF1E2D" stroke-width="7.98922"/>
<path d="M732.345 137.149C766.908 137.149 794.927 165.168 794.927 199.731C794.927 234.294 766.908 262.313 732.345 262.313C697.782 262.313 669.763 234.294 669.763 199.731C669.763 165.168 697.782 137.149 732.345 137.149Z" stroke="#BF1E2D" stroke-width="7.98922"/>
<path d="M669.763 270.364C702.568 271.378 733.818 284.853 757.097 308.132C780.376 331.411 793.851 362.661 794.865 395.466H669.763V270.364Z" stroke="#E46225" stroke-width="7.98922"/>
<path d="M928.081 129.097C895.275 128.083 864.025 114.608 840.746 91.3292C817.467 68.0503 803.992 36.8004 802.978 3.99461H928.081V129.097Z" stroke="#E46225" stroke-width="7.98922"/>
<path d="M865.498 137.149C900.062 137.149 928.081 165.168 928.081 199.731C928.081 234.294 900.062 262.313 865.498 262.313C830.935 262.313 802.916 234.294 802.916 199.731C802.916 165.168 830.935 137.149 865.498 137.149Z" stroke="#BF1E2D" stroke-width="7.98922"/>
<path d="M865.498 395.467C830.935 395.467 802.916 367.448 802.916 332.884C802.916 298.321 830.935 270.302 865.498 270.302C900.062 270.302 928.081 298.321 928.081 332.884C928.081 367.448 900.062 395.467 865.498 395.467Z" stroke="#BF1E2D" stroke-width="7.98922"/>
<path d="M998.652 129.159C964.089 129.159 936.07 101.14 936.07 66.5768C936.07 32.0136 964.089 3.99461 998.652 3.99461C1033.22 3.99461 1061.23 32.0136 1061.23 66.5768C1061.23 101.14 1033.22 129.159 998.652 129.159Z" stroke="#E46225" stroke-width="7.98922"/>
<path d="M936.07 137.21C968.876 138.224 1000.13 151.699 1023.4 174.978C1046.68 198.257 1060.16 229.507 1061.17 262.312H936.07V137.21Z" stroke="#E46225" stroke-width="7.98922"/>
<path d="M1061.17 270.302C1060.16 303.108 1046.68 334.358 1023.4 357.637C1000.13 380.915 968.876 394.391 936.07 395.405V270.302H1061.17Z" stroke="#149ED8" stroke-width="7.98922"/>
<path d="M1194.33 3.99432C1193.31 36.8001 1179.84 68.05 1156.56 91.3289C1133.28 114.608 1102.03 128.083 1069.22 129.097V3.99432L1194.33 3.99432Z" stroke="#149ED8" stroke-width="7.98922"/>
<path d="M1194.39 199.73C1194.39 234.293 1166.37 262.312 1131.81 262.312C1097.24 262.312 1069.22 234.293 1069.22 199.73C1069.22 165.167 1097.24 137.148 1131.81 137.148C1166.37 137.148 1194.39 165.167 1194.39 199.73Z" stroke="#149ED8" stroke-width="7.98922"/>
<path d="M1194.33 270.302C1193.31 303.108 1179.84 334.358 1156.56 357.637C1133.28 380.915 1102.03 394.391 1069.22 395.405V270.302H1194.33Z" stroke="#005696" stroke-width="7.98922"/>
<path d="M1202.44 129.159C1203.45 96.3532 1216.93 65.1033 1240.21 41.8244C1263.49 18.5455 1294.74 5.07041 1327.54 4.05632V129.159H1202.44Z" stroke="#BF1E2D" stroke-width="7.98922"/>
<path d="M1202.38 137.21C1235.18 138.224 1266.43 151.699 1289.71 174.978C1312.99 198.257 1326.47 229.507 1327.48 262.312H1202.38V137.21Z" stroke="#BF1E2D" stroke-width="7.98922"/>
<path d="M1202.44 395.467C1203.45 362.661 1216.93 331.411 1240.21 308.132C1263.49 284.853 1294.74 271.378 1327.54 270.364V395.467H1202.44Z" stroke="#149ED8" stroke-width="7.98922"/>
<path d="M1335.53 66.5765C1335.53 32.0133 1363.55 3.99432 1398.11 3.99432C1432.68 3.99432 1460.7 32.0133 1460.7 66.5765C1460.7 101.14 1432.68 129.159 1398.11 129.159C1363.55 129.159 1335.53 101.14 1335.53 66.5765Z" stroke="#BF1E2D" stroke-width="7.98922"/>
<path d="M1335.53 137.21C1368.34 138.224 1399.59 151.699 1422.87 174.978C1446.14 198.257 1459.62 229.507 1460.63 262.312H1335.53V137.21Z" stroke="#149ED8" stroke-width="7.98922"/>
<path d="M1460.63 270.302C1459.62 303.108 1446.14 334.358 1422.87 357.637C1399.59 380.915 1368.34 394.391 1335.53 395.405V270.302H1460.63Z" stroke="#005696" stroke-width="7.98922"/>
<path d="M1468.75 129.159C1469.76 96.3532 1483.24 65.1033 1506.51 41.8244C1529.79 18.5455 1561.04 5.07041 1593.85 4.05632V129.159H1468.75Z" stroke="#149ED8" stroke-width="7.98922"/>
<path d="M1593.85 262.251C1561.04 261.237 1529.79 247.761 1506.51 224.483C1483.24 201.204 1469.76 169.954 1468.75 137.148H1593.85V262.251Z" stroke="#E46225" stroke-width="7.98922"/>
<path d="M1468.75 395.467C1469.76 362.661 1483.24 331.411 1506.51 308.132C1529.79 284.853 1561.04 271.378 1593.85 270.364V395.467H1468.75Z" stroke="#149ED8" stroke-width="7.98922"/>
<path d="M1727 129.097C1694.2 128.083 1662.95 114.608 1639.67 91.3289C1616.39 68.05 1602.91 36.8001 1601.9 3.99432H1727V129.097Z" stroke="#149ED8" stroke-width="7.98922"/>
<path d="M1601.9 262.312C1602.91 229.507 1616.39 198.257 1639.67 174.978C1662.95 151.699 1694.2 138.224 1727 137.21V262.312H1601.9Z" stroke="#149ED8" stroke-width="7.98922"/>
<path d="M1727 395.405C1694.2 394.391 1662.95 380.916 1639.67 357.637C1616.39 334.358 1602.91 303.108 1601.9 270.302H1727V395.405Z" stroke="#E46225" stroke-width="7.98922"/>
<path d="M1735.05 129.159C1736.07 96.3532 1749.54 65.1033 1772.82 41.8244C1796.1 18.5455 1827.35 5.07041 1860.16 4.05632V129.159H1735.05Z" stroke="#005696" stroke-width="7.98922"/>
<path d="M1734.99 137.21C1767.8 138.224 1799.05 151.699 1822.33 174.978C1845.6 198.257 1859.08 229.507 1860.09 262.312H1734.99V137.21Z" stroke="#149ED8" stroke-width="7.98922"/>
<path d="M1860.09 270.302C1859.08 303.108 1845.6 334.358 1822.33 357.637C1799.05 380.915 1767.8 394.391 1734.99 395.405V270.302H1860.09Z" stroke="#E46225" stroke-width="7.98922"/>
<path d="M1993.25 3.99432C1992.23 36.8001 1978.76 68.0501 1955.48 91.3289C1932.2 114.608 1900.95 128.083 1868.14 129.097V3.99432H1993.25Z" stroke="#005696" stroke-width="7.98922"/>
<path d="M1993.25 137.149C1992.23 169.954 1978.76 201.204 1955.48 224.483C1932.2 247.762 1900.95 261.237 1868.15 262.251V137.149L1993.25 137.149Z" stroke="#149ED8" stroke-width="7.98922"/>
<path d="M1868.15 270.364C1900.95 271.378 1932.2 284.853 1955.48 308.132C1978.76 331.411 1992.23 362.661 1993.25 395.467H1868.15V270.364Z" stroke="#149ED8" stroke-width="7.98922"/>
</g>
<defs>
<clipPath id="clip0_123_894">
<rect width="1920" height="398" fill="white"/>
</clipPath>
</defs>
</svg>
