<svg width="289" height="644" viewBox="0 0 289 644" fill="none" xmlns="http://www.w3.org/2000/svg">
<path d="M264.796 41.2161V26.8058H62.4473V27.3282C32.2554 29.6684 3.03952 39.6232 -22.7385 56.3538C-48.5165 73.0844 -70.1013 96.1005 -85.6742 123.463C-97.1931 -8.67956 -287.562 -0.0333805 -287.562 133.442C-287.784 194.56 -237.914 243.951 -180.064 239.844C-210.119 254.985 -235.844 278.227 -254.634 307.218C-273.424 336.208 -284.613 369.918 -287.066 404.932H-287.562V618.204C-215.441 622.635 -147.558 584.304 -112.557 522.358V618.204C-8.6825 625.013 82.272 542.316 89.2961 433.752H89.7917V433.23C192.795 425.917 271.291 329.962 264.796 220.48H157.76C189.797 204.243 216.838 178.806 235.772 147.095C254.707 115.384 264.767 78.6844 264.796 41.2161ZM-83.8456 397.763C-75.6593 320.181 -11.3828 255.191 62.5327 249.913V404.932H-84.6317C-84.4437 402.536 -84.1874 400.14 -83.931 397.763H-83.8456ZM62.4473 56.2388V211.258H-84.6317C-81.3596 171.301 -64.8129 133.844 -37.907 105.486C-11.0011 77.1275 24.5375 59.6875 62.4473 56.2388ZM-260.217 133.442C-258.508 31.1829 -114.283 31.1829 -112.557 133.442C-114.3 235.755 -258.508 235.755 -260.217 133.442ZM-98.885 249.301H-21.8591C-73.3351 282.048 -108.25 341.581 -112.079 404.932H-259.636C-256.165 362.501 -237.732 322.981 -207.973 294.171C-178.215 265.36 -139.292 249.351 -98.885 249.301ZM-260.217 588.807V433.752H-113.138C-116.413 473.711 -132.959 511.171 -159.864 539.535C-186.769 567.898 -222.306 585.347 -260.217 588.807ZM-85.2128 588.807V433.752H61.8662C58.5952 473.713 42.0497 511.174 15.1444 539.539C-11.761 567.903 -47.3001 585.35 -85.2128 588.807ZM89.7917 404.355V249.301H236.871C233.599 289.259 217.053 326.718 190.147 355.08C163.242 383.441 127.703 400.885 89.7917 404.337V404.355ZM89.7917 210.663V55.6264H236.871C233.599 95.5826 217.052 133.04 190.146 161.398C163.24 189.756 127.701 207.196 89.7917 210.645V210.663Z" fill="#F0F2F5"/>
</svg>
