<svg width="289" height="644" viewBox="0 0 289 644" fill="none" xmlns="http://www.w3.org/2000/svg">
<path d="M575.796 41.2161V26.8058H373.447V27.3282C343.255 29.6684 314.04 39.6232 288.262 56.3538C262.483 73.0844 240.899 96.1005 225.326 123.463C213.807 -8.67956 23.4382 -0.0333805 23.4382 133.442C23.2161 194.56 73.0855 243.951 130.936 239.844C100.881 254.985 75.1563 278.227 56.366 307.218C37.5756 336.208 26.3872 369.918 23.9339 404.932H23.4382V618.204C95.5592 622.635 163.442 584.304 198.443 522.358V618.204C302.318 625.013 393.272 542.316 400.296 433.752H400.792V433.23C503.795 425.917 582.291 329.962 575.796 220.48H468.76C500.797 204.243 527.838 178.806 546.772 147.095C565.707 115.384 575.767 78.6844 575.796 41.2161ZM227.154 397.763C235.341 320.181 299.617 255.191 373.533 249.913V404.932H226.368C226.556 402.536 226.813 400.14 227.069 397.763H227.154ZM373.447 56.2388V211.258H226.368C229.64 171.301 246.187 133.844 273.093 105.486C299.999 77.1275 335.538 59.6875 373.447 56.2388ZM50.7827 133.442C52.4917 31.1829 196.717 31.1829 198.443 133.442C196.7 235.755 52.4917 235.755 50.7827 133.442ZM212.115 249.301H289.141C237.665 282.048 202.75 341.581 198.921 404.932H51.3638C54.8351 362.501 73.2683 322.981 103.027 294.171C132.785 265.36 171.708 249.351 212.115 249.301ZM50.7827 588.807V433.752H197.862C194.587 473.711 178.041 511.171 151.136 539.535C124.231 567.898 88.6942 585.347 50.7827 588.807ZM225.787 588.807V433.752H372.866C369.595 473.713 353.05 511.174 326.144 539.539C299.239 567.903 263.7 585.35 225.787 588.807ZM400.792 404.355V249.301H547.871C544.599 289.259 528.053 326.718 501.147 355.08C474.242 383.441 438.703 400.885 400.792 404.337V404.355ZM400.792 210.663V55.6264H547.871C544.599 95.5826 528.052 133.04 501.146 161.398C474.24 189.756 438.701 207.196 400.792 210.645V210.663Z" fill="#F0F2F5"/>
</svg>
