<svg width="32" height="32" viewBox="0 0 32 32" fill="none" xmlns="http://www.w3.org/2000/svg">
<path d="M19.7599 5.68005C19.4951 6.1543 19.2591 6.64408 19.0532 7.14672C17.0302 6.82679 14.9695 6.82679 12.9466 7.14672C12.7407 6.64408 12.5047 6.1543 12.2399 5.68005C10.3343 6.00565 8.48176 6.58877 6.73322 7.41339C3.60648 11.9258 2.18847 17.404 2.73322 22.8667C4.77087 24.3985 7.05783 25.5668 9.49322 26.3201C10.0478 25.5875 10.5427 24.8117 10.9732 24.0001C10.1787 23.7071 9.41495 23.3364 8.69322 22.8934C8.89117 22.7617 9.07842 22.6146 9.25322 22.4534C11.3578 23.4671 13.6638 23.9936 15.9999 23.9936C18.3359 23.9936 20.6419 23.4671 22.7466 22.4534C22.9332 22.6134 23.1199 22.7601 23.3066 22.8934C22.5809 23.3329 21.818 23.7077 21.0266 24.0134C21.4392 24.8434 21.9209 25.6373 22.4666 26.3867C24.8989 25.6361 27.1819 24.4675 29.2132 22.9334C29.7711 17.4697 28.3519 11.987 25.2132 7.48005C23.4843 6.63837 21.6501 6.03295 19.7599 5.68005ZM11.5732 19.7467C10.906 19.6988 10.2833 19.3943 9.83578 18.8971C9.38829 18.3999 9.15082 17.7486 9.17322 17.0801C9.14744 16.4106 9.38374 15.7575 9.83191 15.2595C10.2801 14.7616 10.9048 14.458 11.5732 14.4134C12.2417 14.458 12.8664 14.7616 13.3145 15.2595C13.7627 15.7575 13.999 16.4106 13.9732 17.0801C13.999 17.7495 13.7627 18.4026 13.3145 18.9006C12.8664 19.3985 12.2417 19.7021 11.5732 19.7467ZM20.4266 19.7467C19.7593 19.6988 19.1366 19.3943 18.6891 18.8971C18.2416 18.3999 18.0042 17.7486 18.0266 17.0801C18.0008 16.4106 18.2371 15.7575 18.6852 15.2595C19.1334 14.7616 19.7581 14.458 20.4266 14.4134C21.0963 14.4547 21.723 14.7573 22.1718 15.256C22.6207 15.7547 22.8558 16.4097 22.8266 17.0801C22.8558 17.7504 22.6207 18.4054 22.1718 18.9041C21.723 19.4029 21.0963 19.7054 20.4266 19.7467Z" fill="#EEEEEE"/>
</svg>
