<svg width="32" height="32" viewBox="0 0 32 32" fill="none" xmlns="http://www.w3.org/2000/svg">
<path d="M26.6667 10.6667L16.0001 17.3334L5.33341 10.6667V8.00004L16.0001 14.6667L26.6667 8.00004M26.6667 5.33337H5.33341C3.85341 5.33337 2.66675 6.52004 2.66675 8.00004V24C2.66675 24.7073 2.9477 25.3856 3.4478 25.8857C3.94789 26.3858 4.62617 26.6667 5.33341 26.6667H26.6667C27.374 26.6667 28.0523 26.3858 28.5524 25.8857C29.0525 25.3856 29.3334 24.7073 29.3334 24V8.00004C29.3334 7.2928 29.0525 6.61452 28.5524 6.11442C28.0523 5.61433 27.374 5.33337 26.6667 5.33337Z" fill="#EEEEEE"/>
</svg>
