<svg width="28" height="32" viewBox="0 0 28 32" fill="none" xmlns="http://www.w3.org/2000/svg">
<path d="M17.0063 12.7625V17.2063C17.0063 17.3188 16.9188 17.4063 16.8063 17.4063H16.0938C16.025 17.4063 15.9625 17.3688 15.9313 17.325L13.8938 14.575V17.2125C13.8938 17.325 13.8063 17.4125 13.6938 17.4125H12.9813C12.8688 17.4125 12.7813 17.325 12.7813 17.2125V12.7688C12.7813 12.6563 12.8688 12.5688 12.9813 12.5688H13.6875C13.75 12.5688 13.8188 12.6 13.85 12.6563L15.8875 15.4063V12.7688C15.8875 12.6563 15.975 12.5688 16.0875 12.5688H16.8C16.9125 12.5625 17.0063 12.6563 17.0063 12.7625ZM11.8813 12.5625H11.1688C11.0563 12.5625 10.9688 12.65 10.9688 12.7625V17.2063C10.9688 17.3188 11.0563 17.4063 11.1688 17.4063H11.8813C11.9938 17.4063 12.0813 17.3188 12.0813 17.2063V12.7625C12.0813 12.6563 11.9938 12.5625 11.8813 12.5625ZM10.1625 16.2875H8.21876V12.7625C8.21876 12.65 8.13126 12.5625 8.01876 12.5625H7.30626C7.19376 12.5625 7.10626 12.65 7.10626 12.7625V17.2063C7.10626 17.2625 7.12501 17.3063 7.16251 17.3438C7.20001 17.375 7.24376 17.4 7.30001 17.4H10.1563C10.2688 17.4 10.3563 17.3125 10.3563 17.2V16.4875C10.3563 16.3813 10.2688 16.2875 10.1625 16.2875ZM20.7563 12.5625H17.9C17.7938 12.5625 17.7 12.65 17.7 12.7625V17.2063C17.7 17.3125 17.7875 17.4063 17.9 17.4063H20.7563C20.8688 17.4063 20.9563 17.3188 20.9563 17.2063V16.4938C20.9563 16.3813 20.8688 16.2938 20.7563 16.2938H18.8125V15.5438H20.7563C20.8688 15.5438 20.9563 15.4563 20.9563 15.3438V14.625C20.9563 14.5125 20.8688 14.425 20.7563 14.425H18.8125V13.675H20.7563C20.8688 13.675 20.9563 13.5875 20.9563 13.475V12.7625C20.95 12.6563 20.8625 12.5625 20.7563 12.5625ZM28 7.10626V24.9375C27.9938 27.7375 25.7 30.0063 22.8938 30H5.06251C2.26251 29.9938 -0.00623712 27.6938 1.28823e-05 24.8938V7.06251C0.00626288 4.26251 2.30626 1.99376 5.10626 2.00001H22.9375C25.7375 2.00626 28.0063 4.30001 28 7.10626ZM24.15 14.7688C24.15 10.2063 19.575 6.49376 13.9563 6.49376C8.33751 6.49376 3.76251 10.2063 3.76251 14.7688C3.76251 18.8563 7.38751 22.2813 12.2875 22.9313C13.4813 23.1875 13.3438 23.625 13.075 25.2313C13.0313 25.4875 12.8688 26.2375 13.9563 25.7813C15.0438 25.325 19.825 22.325 21.9688 19.8625C23.4438 18.2375 24.15 16.5938 24.15 14.7688Z" fill="#EEEEEE"/>
</svg>
